ISO-10303-21;
HEADER;

/* File generated by Shapr3D Version 5.920.0.9294 */

FILE_DESCRIPTION(('HOOPS Exchange Step'),'2;1');

FILE_NAME('/Users/milsagw1/Library/Containers/com.shapr3d.shapr/Data/tmp/export/temp_export',
'2025-08-11T14:35:53-04:00',
('milsagw1'),
('Shapr3D Limited'),
'HOOPS Exchange 2025.5',
'Shapr3D',
'Authorized');

FILE_SCHEMA( ('AP242_MANAGED_MODEL_BASED_3D_ENGINEERING_MIM_LF {1 0 10303 442 1 1 4}') );

ENDSEC;

DATA;
#3=(NAMED_UNIT(*)PLANE_ANGLE_UNIT()SI_UNIT($,.RADIAN.));
#4=PLANE_ANGLE_MEASURE_WITH_UNIT(PLANE_ANGLE_MEASURE(0.0174532925),#3);
#5=(CONVERSION_BASED_UNIT('DEGREE',#4)NAMED_UNIT(#6)PLANE_ANGLE_UNIT());
#6=DIMENSIONAL_EXPONENTS(0.,0.,0.,0.,0.,0.,0.);
#7=(NAMED_UNIT(*)SI_UNIT($,.STERADIAN.)SOLID_ANGLE_UNIT());
#8=(LENGTH_UNIT()NAMED_UNIT(*)SI_UNIT(.MILLI.,.METRE.));
#9=UNCERTAINTY_MEASURE_WITH_UNIT(LENGTH_MEASURE(1.000000E-05),#8,'DISTANCE_ACCURACY_VALUE','Maximum Tolerance applied to model');
#10=(GEOMETRIC_REPRESENTATION_CONTEXT(3)GLOBAL_UNCERTAINTY_ASSIGNED_CONTEXT((#9))GLOBAL_UNIT_ASSIGNED_CONTEXT((#8,#5,#7))REPRESENTATION_CONTEXT('','root'));
#12=CARTESIAN_POINT('',(0.,0.,0.));
#13=DIRECTION('',(0.,0.,1.));
#14=DIRECTION('',(1.,0.,0.));
#15=AXIS2_PLACEMENT_3D('',#12,#13,#14);
#27=CARTESIAN_POINT('',(0.,-14.5,1.5));
#28=DIRECTION('',(0.,-1.,0.));
#29=DIRECTION('',(1.,0.,0.));
#30=AXIS2_PLACEMENT_3D('',#27,#28,#29);
#31=PLANE('',#30);
#32=CARTESIAN_POINT('',(10.33198916,-14.5,1.4));
#33=VERTEX_POINT('',#32);
#34=CARTESIAN_POINT('',(3.,-14.5,1.4));
#35=VERTEX_POINT('',#34);
#36=CARTESIAN_POINT('',(10.33198916,-14.5,1.4));
#37=DIRECTION('',(-1.,-0.,0.));
#38=VECTOR('',#37,7.33198916);
#39=LINE('',#36,#38);
#40=EDGE_CURVE('',#33,#35,#39,.T.);
#41=ORIENTED_EDGE('',*,*,#40,.T.);
#42=CARTESIAN_POINT('',(3.,-14.5,0.));
#43=VERTEX_POINT('',#42);
#44=CARTESIAN_POINT('',(3.,-14.5,1.4));
#45=DIRECTION('',(-0.,-0.,-1.));
#46=VECTOR('',#45,1.4);
#47=LINE('',#44,#46);
#48=EDGE_CURVE('',#35,#43,#47,.T.);
#49=ORIENTED_EDGE('',*,*,#48,.T.);
#50=CARTESIAN_POINT('',(20.,-14.5,0.));
#51=VERTEX_POINT('',#50);
#52=CARTESIAN_POINT('',(20.,-14.5,0.));
#53=DIRECTION('',(-1.,-0.,0.));
#54=VECTOR('',#53,17.);
#55=LINE('',#52,#54);
#56=EDGE_CURVE('',#51,#43,#55,.T.);
#57=ORIENTED_EDGE('',*,*,#56,.F.);
#58=CARTESIAN_POINT('',(20.,-14.5,6.4));
#59=VERTEX_POINT('',#58);
#60=CARTESIAN_POINT('',(20.,-14.5,0.));
#61=DIRECTION('',(-0.,-0.,1.));
#62=VECTOR('',#61,6.4);
#63=LINE('',#60,#62);
#64=EDGE_CURVE('',#51,#59,#63,.T.);
#65=ORIENTED_EDGE('',*,*,#64,.T.);
#66=CARTESIAN_POINT('',(10.33198916,-14.5,6.4));
#67=VERTEX_POINT('',#66);
#68=CARTESIAN_POINT('',(20.,-14.5,6.4));
#69=DIRECTION('',(-1.,-0.,0.));
#70=VECTOR('',#69,9.66801084);
#71=LINE('',#68,#70);
#72=EDGE_CURVE('',#59,#67,#71,.T.);
#73=ORIENTED_EDGE('',*,*,#72,.T.);
#74=CARTESIAN_POINT('',(10.33198916,-14.5,6.4));
#75=DIRECTION('',(0.,0.,-1.));
#76=VECTOR('',#75,5.);
#77=LINE('',#74,#76);
#78=EDGE_CURVE('',#67,#33,#77,.T.);
#79=ORIENTED_EDGE('',*,*,#78,.T.);
#80=EDGE_LOOP('',(#41,#49,#57,#65,#73,#79));
#81=FACE_BOUND('',#80,.T.);
#82=ADVANCED_FACE('',(#81),#31,.T.);
#83=CARTESIAN_POINT('',(0.,0.,5.5));
#84=DIRECTION('',(0.,0.,-1.));
#85=DIRECTION('',(-1.,0.,0.));
#86=AXIS2_PLACEMENT_3D('',#83,#84,#85);
#87=CYLINDRICAL_SURFACE('',#86,16.);
#88=CARTESIAN_POINT('',(-15.198684154,-5.,1.4));
#89=VERTEX_POINT('',#88);
#90=CARTESIAN_POINT('',(-9.724225092,-12.705882353,1.4));
#91=VERTEX_POINT('',#90);
#92=CARTESIAN_POINT('',(0.,0.,1.4));
#93=DIRECTION('',(0.,0.,1.));
#94=DIRECTION('',(1.,0.,-0.));
#95=AXIS2_PLACEMENT_3D('',#92,#93,#94);
#96=CIRCLE('',#95,16.);
#97=EDGE_CURVE('',#89,#91,#96,.T.);
#98=ORIENTED_EDGE('',*,*,#97,.F.);
#99=CARTESIAN_POINT('',(-15.198684154,-5.,6.4));
#100=VERTEX_POINT('',#99);
#101=CARTESIAN_POINT('',(-15.198684154,-5.,1.4));
#102=DIRECTION('',(0.,0.,1.));
#103=VECTOR('',#102,5.);
#104=LINE('',#101,#103);
#105=EDGE_CURVE('',#89,#100,#104,.T.);
#106=ORIENTED_EDGE('',*,*,#105,.T.);
#107=CARTESIAN_POINT('',(-9.724225092,-12.705882353,6.4));
#108=VERTEX_POINT('',#107);
#109=CARTESIAN_POINT('',(0.,0.,6.4));
#110=DIRECTION('',(0.,0.,1.));
#111=DIRECTION('',(1.,0.,-0.));
#112=AXIS2_PLACEMENT_3D('',#109,#110,#111);
#113=CIRCLE('',#112,16.);
#114=EDGE_CURVE('',#100,#108,#113,.T.);
#115=ORIENTED_EDGE('',*,*,#114,.T.);
#116=CARTESIAN_POINT('',(-9.724225092,-12.705882353,6.4));
#117=DIRECTION('',(0.,0.,-1.));
#118=VECTOR('',#117,5.);
#119=LINE('',#116,#118);
#120=EDGE_CURVE('',#108,#91,#119,.T.);
#121=ORIENTED_EDGE('',*,*,#120,.T.);
#122=EDGE_LOOP('',(#98,#106,#115,#121));
#123=FACE_BOUND('',#122,.T.);
#124=ADVANCED_FACE('',(#123),#87,.F.);
#125=CARTESIAN_POINT('',(0.,0.,6.4));
#126=DIRECTION('',(0.,0.,1.));
#127=DIRECTION('',(1.,0.,0.));
#128=AXIS2_PLACEMENT_3D('',#125,#126,#127);
#129=PLANE('',#128);
#130=CARTESIAN_POINT('',(-18.5,11.5,6.4));
#131=VERTEX_POINT('',#130);
#132=CARTESIAN_POINT('',(-20.,11.5,6.4));
#133=DIRECTION('',(0.,0.,1.));
#134=DIRECTION('',(1.,0.,-0.));
#135=AXIS2_PLACEMENT_3D('',#132,#133,#134);
#136=CIRCLE('',#135,1.5);
#137=EDGE_CURVE('',#131,#131,#136,.T.);
#138=ORIENTED_EDGE('',*,*,#137,.F.);
#139=EDGE_LOOP('',(#138));
#140=FACE_BOUND('',#139,.T.);
#141=CARTESIAN_POINT('',(-18.5,-11.5,6.4));
#142=VERTEX_POINT('',#141);
#143=CARTESIAN_POINT('',(-20.,-11.5,6.4));
#144=DIRECTION('',(0.,0.,1.));
#145=DIRECTION('',(1.,0.,-0.));
#146=AXIS2_PLACEMENT_3D('',#143,#144,#145);
#147=CIRCLE('',#146,1.5);
#148=EDGE_CURVE('',#142,#142,#147,.T.);
#149=ORIENTED_EDGE('',*,*,#148,.F.);
#150=EDGE_LOOP('',(#149));
#151=FACE_BOUND('',#150,.T.);
#152=CARTESIAN_POINT('',(-18.,-5.,6.4));
#153=VERTEX_POINT('',#152);
#154=CARTESIAN_POINT('',(-18.,5.,6.4));
#155=VERTEX_POINT('',#154);
#156=CARTESIAN_POINT('',(-18.,-5.,6.4));
#157=DIRECTION('',(0.,1.,0.));
#158=VECTOR('',#157,10.);
#159=LINE('',#156,#158);
#160=EDGE_CURVE('',#153,#155,#159,.T.);
#161=ORIENTED_EDGE('',*,*,#160,.T.);
#162=CARTESIAN_POINT('',(-15.198684154,5.,6.4));
#163=VERTEX_POINT('',#162);
#164=CARTESIAN_POINT('',(-18.,5.,6.4));
#165=DIRECTION('',(1.,0.,-0.));
#166=VECTOR('',#165,2.801315846);
#167=LINE('',#164,#166);
#168=EDGE_CURVE('',#155,#163,#167,.T.);
#169=ORIENTED_EDGE('',*,*,#168,.T.);
#170=CARTESIAN_POINT('',(-9.724225092,12.705882353,6.4));
#171=VERTEX_POINT('',#170);
#172=CARTESIAN_POINT('',(0.,0.,6.4));
#173=DIRECTION('',(0.,0.,1.));
#174=DIRECTION('',(1.,0.,-0.));
#175=AXIS2_PLACEMENT_3D('',#172,#173,#174);
#176=CIRCLE('',#175,16.);
#177=EDGE_CURVE('',#171,#163,#176,.T.);
#178=ORIENTED_EDGE('',*,*,#177,.F.);
#179=CARTESIAN_POINT('',(-10.33198916,14.5,6.4));
#180=VERTEX_POINT('',#179);
#181=CARTESIAN_POINT('',(-10.33198916,13.5,6.4));
#182=DIRECTION('',(0.,0.,1.));
#183=DIRECTION('',(1.,0.,-0.));
#184=AXIS2_PLACEMENT_3D('',#181,#182,#183);
#185=CIRCLE('',#184,1.);
#186=EDGE_CURVE('',#171,#180,#185,.T.);
#187=ORIENTED_EDGE('',*,*,#186,.T.);
#188=CARTESIAN_POINT('',(-20.,14.5,6.4));
#189=VERTEX_POINT('',#188);
#190=CARTESIAN_POINT('',(-20.,14.5,6.4));
#191=DIRECTION('',(1.,0.,0.));
#192=VECTOR('',#191,9.66801084);
#193=LINE('',#190,#192);
#194=EDGE_CURVE('',#189,#180,#193,.T.);
#195=ORIENTED_EDGE('',*,*,#194,.F.);
#196=CARTESIAN_POINT('',(-23.,11.5,6.4));
#197=VERTEX_POINT('',#196);
#198=CARTESIAN_POINT('',(-20.,11.5,6.4));
#199=DIRECTION('',(0.,0.,1.));
#200=DIRECTION('',(1.,0.,-0.));
#201=AXIS2_PLACEMENT_3D('',#198,#199,#200);
#202=CIRCLE('',#201,3.);
#203=EDGE_CURVE('',#189,#197,#202,.T.);
#204=ORIENTED_EDGE('',*,*,#203,.T.);
#205=CARTESIAN_POINT('',(-23.,-11.5,6.4));
#206=VERTEX_POINT('',#205);
#207=CARTESIAN_POINT('',(-23.,-11.5,6.4));
#208=DIRECTION('',(-0.,1.,0.));
#209=VECTOR('',#208,23.);
#210=LINE('',#207,#209);
#211=EDGE_CURVE('',#206,#197,#210,.T.);
#212=ORIENTED_EDGE('',*,*,#211,.F.);
#213=CARTESIAN_POINT('',(-20.,-14.5,6.4));
#214=VERTEX_POINT('',#213);
#215=CARTESIAN_POINT('',(-20.,-11.5,6.4));
#216=DIRECTION('',(0.,0.,1.));
#217=DIRECTION('',(1.,0.,-0.));
#218=AXIS2_PLACEMENT_3D('',#215,#216,#217);
#219=CIRCLE('',#218,3.);
#220=EDGE_CURVE('',#206,#214,#219,.T.);
#221=ORIENTED_EDGE('',*,*,#220,.T.);
#222=CARTESIAN_POINT('',(-10.33198916,-14.5,6.4));
#223=VERTEX_POINT('',#222);
#224=CARTESIAN_POINT('',(-10.33198916,-14.5,6.4));
#225=DIRECTION('',(-1.,-0.,0.));
#226=VECTOR('',#225,9.66801084);
#227=LINE('',#224,#226);
#228=EDGE_CURVE('',#223,#214,#227,.T.);
#229=ORIENTED_EDGE('',*,*,#228,.F.);
#230=CARTESIAN_POINT('',(-10.33198916,-13.5,6.4));
#231=DIRECTION('',(0.,0.,1.));
#232=DIRECTION('',(1.,0.,-0.));
#233=AXIS2_PLACEMENT_3D('',#230,#231,#232);
#234=CIRCLE('',#233,1.);
#235=EDGE_CURVE('',#223,#108,#234,.T.);
#236=ORIENTED_EDGE('',*,*,#235,.T.);
#237=ORIENTED_EDGE('',*,*,#114,.F.);
#238=CARTESIAN_POINT('',(-15.198684154,-5.,6.4));
#239=DIRECTION('',(-1.,-0.,0.));
#240=VECTOR('',#239,2.801315846);
#241=LINE('',#238,#240);
#242=EDGE_CURVE('',#100,#153,#241,.T.);
#243=ORIENTED_EDGE('',*,*,#242,.T.);
#244=EDGE_LOOP('',(#161,#169,#178,#187,#195,#204,#212,#221,#229,#236,#237,#243));
#245=FACE_BOUND('',#244,.T.);
#246=ADVANCED_FACE('',(#140,#151,#245),#129,.T.);
#247=CARTESIAN_POINT('',(0.,0.,1.4));
#248=DIRECTION('',(0.,0.,1.));
#249=DIRECTION('',(1.,0.,0.));
#250=AXIS2_PLACEMENT_3D('',#247,#248,#249);
#251=PLANE('',#250);
#252=CARTESIAN_POINT('',(2.,-8.5,1.4));
#253=VERTEX_POINT('',#252);
#254=CARTESIAN_POINT('',(2.,-13.5,1.4));
#255=VERTEX_POINT('',#254);
#256=CARTESIAN_POINT('',(2.,-8.5,1.4));
#257=DIRECTION('',(0.,-1.,0.));
#258=VECTOR('',#257,5.);
#259=LINE('',#256,#258);
#260=EDGE_CURVE('',#253,#255,#259,.T.);
#261=ORIENTED_EDGE('',*,*,#260,.T.);
#262=CARTESIAN_POINT('',(3.,-13.5,1.4));
#263=DIRECTION('',(0.,0.,1.));
#264=DIRECTION('',(1.,0.,-0.));
#265=AXIS2_PLACEMENT_3D('',#262,#263,#264);
#266=CIRCLE('',#265,1.);
#267=EDGE_CURVE('',#255,#35,#266,.T.);
#268=ORIENTED_EDGE('',*,*,#267,.T.);
#269=ORIENTED_EDGE('',*,*,#40,.F.);
#270=CARTESIAN_POINT('',(9.33198916,-13.5,1.4));
#271=VERTEX_POINT('',#270);
#272=CARTESIAN_POINT('',(10.33198916,-13.5,1.4));
#273=DIRECTION('',(-0.,-0.,-1.));
#274=DIRECTION('',(1.,0.,-0.));
#275=AXIS2_PLACEMENT_3D('',#272,#273,#274);
#276=CIRCLE('',#275,1.);
#277=EDGE_CURVE('',#33,#271,#276,.T.);
#278=ORIENTED_EDGE('',*,*,#277,.T.);
#279=CARTESIAN_POINT('',(9.724225092,-12.705882353,1.4));
#280=VERTEX_POINT('',#279);
#281=CARTESIAN_POINT('',(10.33198916,-13.5,1.4));
#282=DIRECTION('',(-0.,-0.,-1.));
#283=DIRECTION('',(1.,0.,-0.));
#284=AXIS2_PLACEMENT_3D('',#281,#282,#283);
#285=CIRCLE('',#284,1.);
#286=EDGE_CURVE('',#271,#280,#285,.T.);
#287=ORIENTED_EDGE('',*,*,#286,.T.);
#288=CARTESIAN_POINT('',(12.489995997,-10.,1.4));
#289=VERTEX_POINT('',#288);
#290=CARTESIAN_POINT('',(0.,0.,1.4));
#291=DIRECTION('',(0.,0.,1.));
#292=DIRECTION('',(1.,0.,-0.));
#293=AXIS2_PLACEMENT_3D('',#290,#291,#292);
#294=CIRCLE('',#293,16.);
#295=EDGE_CURVE('',#280,#289,#294,.T.);
#296=ORIENTED_EDGE('',*,*,#295,.T.);
#297=CARTESIAN_POINT('',(8.5,-10.,1.4));
#298=VERTEX_POINT('',#297);
#299=CARTESIAN_POINT('',(12.489995997,-10.,1.4));
#300=DIRECTION('',(-1.,-0.,0.));
#301=VECTOR('',#300,3.989995997);
#302=LINE('',#299,#301);
#303=EDGE_CURVE('',#289,#298,#302,.T.);
#304=ORIENTED_EDGE('',*,*,#303,.T.);
#305=CARTESIAN_POINT('',(8.5,-3.,1.4));
#306=VERTEX_POINT('',#305);
#307=CARTESIAN_POINT('',(8.5,-10.,1.4));
#308=DIRECTION('',(0.,1.,0.));
#309=VECTOR('',#308,7.);
#310=LINE('',#307,#309);
#311=EDGE_CURVE('',#298,#306,#310,.T.);
#312=ORIENTED_EDGE('',*,*,#311,.T.);
#313=CARTESIAN_POINT('',(15.5,-3.,1.4));
#314=VERTEX_POINT('',#313);
#315=CARTESIAN_POINT('',(8.5,-3.,1.4));
#316=DIRECTION('',(1.,0.,0.));
#317=VECTOR('',#316,7.);
#318=LINE('',#315,#317);
#319=EDGE_CURVE('',#306,#314,#318,.T.);
#320=ORIENTED_EDGE('',*,*,#319,.T.);
#321=CARTESIAN_POINT('',(15.5,-3.968626967,1.4));
#322=VERTEX_POINT('',#321);
#323=CARTESIAN_POINT('',(15.5,-3.,1.4));
#324=DIRECTION('',(0.,-1.,0.));
#325=VECTOR('',#324,0.968626967);
#326=LINE('',#323,#325);
#327=EDGE_CURVE('',#314,#322,#326,.T.);
#328=ORIENTED_EDGE('',*,*,#327,.T.);
#329=CARTESIAN_POINT('',(9.724225092,12.705882353,1.4));
#330=VERTEX_POINT('',#329);
#331=CARTESIAN_POINT('',(0.,0.,1.4));
#332=DIRECTION('',(0.,0.,1.));
#333=DIRECTION('',(1.,0.,-0.));
#334=AXIS2_PLACEMENT_3D('',#331,#332,#333);
#335=CIRCLE('',#334,16.);
#336=EDGE_CURVE('',#322,#330,#335,.T.);
#337=ORIENTED_EDGE('',*,*,#336,.T.);
#338=CARTESIAN_POINT('',(9.33198916,13.5,1.4));
#339=VERTEX_POINT('',#338);
#340=CARTESIAN_POINT('',(10.33198916,13.5,1.4));
#341=DIRECTION('',(-0.,-0.,-1.));
#342=DIRECTION('',(1.,0.,-0.));
#343=AXIS2_PLACEMENT_3D('',#340,#341,#342);
#344=CIRCLE('',#343,1.);
#345=EDGE_CURVE('',#330,#339,#344,.T.);
#346=ORIENTED_EDGE('',*,*,#345,.T.);
#347=CARTESIAN_POINT('',(10.33198916,14.5,1.4));
#348=VERTEX_POINT('',#347);
#349=CARTESIAN_POINT('',(10.33198916,13.5,1.4));
#350=DIRECTION('',(-0.,-0.,-1.));
#351=DIRECTION('',(1.,0.,-0.));
#352=AXIS2_PLACEMENT_3D('',#349,#350,#351);
#353=CIRCLE('',#352,1.);
#354=EDGE_CURVE('',#339,#348,#353,.T.);
#355=ORIENTED_EDGE('',*,*,#354,.T.);
#356=CARTESIAN_POINT('',(7.2,14.5,1.4));
#357=VERTEX_POINT('',#356);
#358=CARTESIAN_POINT('',(7.2,14.5,1.4));
#359=DIRECTION('',(1.,0.,0.));
#360=VECTOR('',#359,3.13198916);
#361=LINE('',#358,#360);
#362=EDGE_CURVE('',#357,#348,#361,.T.);
#363=ORIENTED_EDGE('',*,*,#362,.F.);
#364=CARTESIAN_POINT('',(6.2,13.5,1.4));
#365=VERTEX_POINT('',#364);
#366=CARTESIAN_POINT('',(7.2,13.5,1.4));
#367=DIRECTION('',(0.,0.,1.));
#368=DIRECTION('',(1.,0.,-0.));
#369=AXIS2_PLACEMENT_3D('',#366,#367,#368);
#370=CIRCLE('',#369,1.);
#371=EDGE_CURVE('',#357,#365,#370,.T.);
#372=ORIENTED_EDGE('',*,*,#371,.T.);
#373=CARTESIAN_POINT('',(6.2,1.1,1.4));
#374=VERTEX_POINT('',#373);
#375=CARTESIAN_POINT('',(6.2,13.5,1.4));
#376=DIRECTION('',(0.,-1.,0.));
#377=VECTOR('',#376,12.4);
#378=LINE('',#375,#377);
#379=EDGE_CURVE('',#365,#374,#378,.T.);
#380=ORIENTED_EDGE('',*,*,#379,.T.);
#381=CARTESIAN_POINT('',(-6.2,1.1,1.4));
#382=VERTEX_POINT('',#381);
#383=CARTESIAN_POINT('',(6.2,1.1,1.4));
#384=DIRECTION('',(-1.,-0.,0.));
#385=VECTOR('',#384,12.4);
#386=LINE('',#383,#385);
#387=EDGE_CURVE('',#374,#382,#386,.T.);
#388=ORIENTED_EDGE('',*,*,#387,.T.);
#389=CARTESIAN_POINT('',(-6.2,13.5,1.4));
#390=VERTEX_POINT('',#389);
#391=CARTESIAN_POINT('',(-6.2,1.1,1.4));
#392=DIRECTION('',(-0.,1.,0.));
#393=VECTOR('',#392,12.4);
#394=LINE('',#391,#393);
#395=EDGE_CURVE('',#382,#390,#394,.T.);
#396=ORIENTED_EDGE('',*,*,#395,.T.);
#397=CARTESIAN_POINT('',(-7.2,14.5,1.4));
#398=VERTEX_POINT('',#397);
#399=CARTESIAN_POINT('',(-7.2,13.5,1.4));
#400=DIRECTION('',(0.,0.,1.));
#401=DIRECTION('',(1.,0.,-0.));
#402=AXIS2_PLACEMENT_3D('',#399,#400,#401);
#403=CIRCLE('',#402,1.);
#404=EDGE_CURVE('',#390,#398,#403,.T.);
#405=ORIENTED_EDGE('',*,*,#404,.T.);
#406=CARTESIAN_POINT('',(-10.33198916,14.5,1.4));
#407=VERTEX_POINT('',#406);
#408=CARTESIAN_POINT('',(-10.33198916,14.5,1.4));
#409=DIRECTION('',(1.,0.,0.));
#410=VECTOR('',#409,3.13198916);
#411=LINE('',#408,#410);
#412=EDGE_CURVE('',#407,#398,#411,.T.);
#413=ORIENTED_EDGE('',*,*,#412,.F.);
#414=CARTESIAN_POINT('',(-9.724225092,12.705882353,1.4));
#415=VERTEX_POINT('',#414);
#416=CARTESIAN_POINT('',(-10.33198916,13.5,1.4));
#417=DIRECTION('',(-0.,-0.,-1.));
#418=DIRECTION('',(1.,0.,-0.));
#419=AXIS2_PLACEMENT_3D('',#416,#417,#418);
#420=CIRCLE('',#419,1.);
#421=EDGE_CURVE('',#407,#415,#420,.T.);
#422=ORIENTED_EDGE('',*,*,#421,.T.);
#423=CARTESIAN_POINT('',(-15.198684154,5.,1.4));
#424=VERTEX_POINT('',#423);
#425=CARTESIAN_POINT('',(0.,0.,1.4));
#426=DIRECTION('',(0.,0.,1.));
#427=DIRECTION('',(1.,0.,-0.));
#428=AXIS2_PLACEMENT_3D('',#425,#426,#427);
#429=CIRCLE('',#428,16.);
#430=EDGE_CURVE('',#415,#424,#429,.T.);
#431=ORIENTED_EDGE('',*,*,#430,.T.);
#432=CARTESIAN_POINT('',(-18.,5.,1.4));
#433=VERTEX_POINT('',#432);
#434=CARTESIAN_POINT('',(-18.,5.,1.4));
#435=DIRECTION('',(1.,0.,-0.));
#436=VECTOR('',#435,2.801315846);
#437=LINE('',#434,#436);
#438=EDGE_CURVE('',#433,#424,#437,.T.);
#439=ORIENTED_EDGE('',*,*,#438,.F.);
#440=CARTESIAN_POINT('',(-18.,-5.,1.4));
#441=VERTEX_POINT('',#440);
#442=CARTESIAN_POINT('',(-18.,-5.,1.4));
#443=DIRECTION('',(0.,1.,0.));
#444=VECTOR('',#443,10.);
#445=LINE('',#442,#444);
#446=EDGE_CURVE('',#441,#433,#445,.T.);
#447=ORIENTED_EDGE('',*,*,#446,.F.);
#448=CARTESIAN_POINT('',(-15.198684154,-5.,1.4));
#449=DIRECTION('',(-1.,-0.,0.));
#450=VECTOR('',#449,2.801315846);
#451=LINE('',#448,#450);
#452=EDGE_CURVE('',#89,#441,#451,.T.);
#453=ORIENTED_EDGE('',*,*,#452,.F.);
#454=ORIENTED_EDGE('',*,*,#97,.T.);
#455=CARTESIAN_POINT('',(-10.33198916,-14.5,1.4));
#456=VERTEX_POINT('',#455);
#457=CARTESIAN_POINT('',(-10.33198916,-13.5,1.4));
#458=DIRECTION('',(-0.,-0.,-1.));
#459=DIRECTION('',(1.,0.,-0.));
#460=AXIS2_PLACEMENT_3D('',#457,#458,#459);
#461=CIRCLE('',#460,1.);
#462=EDGE_CURVE('',#91,#456,#461,.T.);
#463=ORIENTED_EDGE('',*,*,#462,.T.);
#464=CARTESIAN_POINT('',(-3.,-14.5,1.4));
#465=VERTEX_POINT('',#464);
#466=CARTESIAN_POINT('',(-3.,-14.5,1.4));
#467=DIRECTION('',(-1.,-0.,0.));
#468=VECTOR('',#467,7.33198916);
#469=LINE('',#466,#468);
#470=EDGE_CURVE('',#465,#456,#469,.T.);
#471=ORIENTED_EDGE('',*,*,#470,.F.);
#472=CARTESIAN_POINT('',(-2.,-13.5,1.4));
#473=VERTEX_POINT('',#472);
#474=CARTESIAN_POINT('',(-3.,-13.5,1.4));
#475=DIRECTION('',(0.,0.,1.));
#476=DIRECTION('',(1.,0.,-0.));
#477=AXIS2_PLACEMENT_3D('',#474,#475,#476);
#478=CIRCLE('',#477,1.);
#479=EDGE_CURVE('',#465,#473,#478,.T.);
#480=ORIENTED_EDGE('',*,*,#479,.T.);
#481=CARTESIAN_POINT('',(-2.,-8.5,1.4));
#482=VERTEX_POINT('',#481);
#483=CARTESIAN_POINT('',(-2.,-13.5,1.4));
#484=DIRECTION('',(0.,1.,0.));
#485=VECTOR('',#484,5.);
#486=LINE('',#483,#485);
#487=EDGE_CURVE('',#473,#482,#486,.T.);
#488=ORIENTED_EDGE('',*,*,#487,.T.);
#489=CARTESIAN_POINT('',(-2.,-8.5,1.4));
#490=DIRECTION('',(1.,0.,-0.));
#491=VECTOR('',#490,4.);
#492=LINE('',#489,#491);
#493=EDGE_CURVE('',#482,#253,#492,.T.);
#494=ORIENTED_EDGE('',*,*,#493,.T.);
#495=EDGE_LOOP('',(#261,#268,#269,#278,#287,#296,#304,#312,#320,#328,#337,#346,#355,#363,#372,#380,#388,#396,#405,#413,#422,#431,#439,#447,#453,#454,
#463,#471,#480,#488,#494));
#496=FACE_BOUND('',#495,.T.);
#497=ADVANCED_FACE('',(#496),#251,.T.);
#498=CARTESIAN_POINT('',(0.,0.,0.));
#499=DIRECTION('',(0.,0.,1.));
#500=DIRECTION('',(1.,0.,0.));
#501=AXIS2_PLACEMENT_3D('',#498,#499,#500);
#502=PLANE('',#501);
#503=CARTESIAN_POINT('',(-18.5,-11.5,0.));
#504=VERTEX_POINT('',#503);
#505=CARTESIAN_POINT('',(-20.,-11.5,0.));
#506=DIRECTION('',(0.,0.,1.));
#507=DIRECTION('',(1.,0.,-0.));
#508=AXIS2_PLACEMENT_3D('',#505,#506,#507);
#509=CIRCLE('',#508,1.5);
#510=EDGE_CURVE('',#504,#504,#509,.T.);
#511=ORIENTED_EDGE('',*,*,#510,.T.);
#512=EDGE_LOOP('',(#511));
#513=FACE_BOUND('',#512,.T.);
#514=CARTESIAN_POINT('',(-18.5,11.5,0.));
#515=VERTEX_POINT('',#514);
#516=CARTESIAN_POINT('',(-20.,11.5,0.));
#517=DIRECTION('',(0.,0.,1.));
#518=DIRECTION('',(1.,0.,-0.));
#519=AXIS2_PLACEMENT_3D('',#516,#517,#518);
#520=CIRCLE('',#519,1.5);
#521=EDGE_CURVE('',#515,#515,#520,.T.);
#522=ORIENTED_EDGE('',*,*,#521,.T.);
#523=EDGE_LOOP('',(#522));
#524=FACE_BOUND('',#523,.T.);
#525=CARTESIAN_POINT('',(21.5,11.5,0.));
#526=VERTEX_POINT('',#525);
#527=CARTESIAN_POINT('',(20.,11.5,0.));
#528=DIRECTION('',(0.,0.,1.));
#529=DIRECTION('',(1.,0.,-0.));
#530=AXIS2_PLACEMENT_3D('',#527,#528,#529);
#531=CIRCLE('',#530,1.5);
#532=EDGE_CURVE('',#526,#526,#531,.T.);
#533=ORIENTED_EDGE('',*,*,#532,.T.);
#534=EDGE_LOOP('',(#533));
#535=FACE_BOUND('',#534,.T.);
#536=CARTESIAN_POINT('',(17.9,-10.,0.));
#537=VERTEX_POINT('',#536);
#538=CARTESIAN_POINT('',(17.5,-10.,0.));
#539=VERTEX_POINT('',#538);
#540=CARTESIAN_POINT('',(17.9,-10.,0.));
#541=DIRECTION('',(-1.,0.,0.));
#542=VECTOR('',#541,0.4);
#543=LINE('',#540,#542);
#544=EDGE_CURVE('',#537,#539,#543,.T.);
#545=ORIENTED_EDGE('',*,*,#544,.F.);
#546=CARTESIAN_POINT('',(18.9,-11.,0.));
#547=VERTEX_POINT('',#546);
#548=CARTESIAN_POINT('',(17.9,-11.,0.));
#549=DIRECTION('',(-0.,-0.,-1.));
#550=DIRECTION('',(1.,0.,-0.));
#551=AXIS2_PLACEMENT_3D('',#548,#549,#550);
#552=CIRCLE('',#551,1.);
#553=EDGE_CURVE('',#537,#547,#552,.T.);
#554=ORIENTED_EDGE('',*,*,#553,.T.);
#555=CARTESIAN_POINT('',(18.9,-11.5,0.));
#556=VERTEX_POINT('',#555);
#557=CARTESIAN_POINT('',(18.9,-11.5,0.));
#558=DIRECTION('',(-0.,1.,0.));
#559=VECTOR('',#558,0.5);
#560=LINE('',#557,#559);
#561=EDGE_CURVE('',#556,#547,#560,.T.);
#562=ORIENTED_EDGE('',*,*,#561,.F.);
#563=CARTESIAN_POINT('',(21.9,-11.5,0.));
#564=VERTEX_POINT('',#563);
#565=CARTESIAN_POINT('',(20.4,-11.5,0.));
#566=DIRECTION('',(0.,0.,1.));
#567=DIRECTION('',(1.,0.,-0.));
#568=AXIS2_PLACEMENT_3D('',#565,#566,#567);
#569=CIRCLE('',#568,1.5);
#570=EDGE_CURVE('',#556,#564,#569,.T.);
#571=ORIENTED_EDGE('',*,*,#570,.T.);
#572=CARTESIAN_POINT('',(21.9,4.,0.));
#573=VERTEX_POINT('',#572);
#574=CARTESIAN_POINT('',(21.9,4.,0.));
#575=DIRECTION('',(0.,-1.,0.));
#576=VECTOR('',#575,15.5);
#577=LINE('',#574,#576);
#578=EDGE_CURVE('',#573,#564,#577,.T.);
#579=ORIENTED_EDGE('',*,*,#578,.F.);
#580=CARTESIAN_POINT('',(17.5,4.,0.));
#581=VERTEX_POINT('',#580);
#582=CARTESIAN_POINT('',(17.5,4.,0.));
#583=DIRECTION('',(1.,0.,0.));
#584=VECTOR('',#583,4.4);
#585=LINE('',#582,#584);
#586=EDGE_CURVE('',#581,#573,#585,.T.);
#587=ORIENTED_EDGE('',*,*,#586,.F.);
#588=CARTESIAN_POINT('',(17.5,-10.,0.));
#589=DIRECTION('',(-0.,1.,0.));
#590=VECTOR('',#589,14.);
#591=LINE('',#588,#590);
#592=EDGE_CURVE('',#539,#581,#591,.T.);
#593=ORIENTED_EDGE('',*,*,#592,.F.);
#594=EDGE_LOOP('',(#545,#554,#562,#571,#579,#587,#593));
#595=FACE_BOUND('',#594,.T.);
#596=CARTESIAN_POINT('',(15.5,-3.,0.));
#597=VERTEX_POINT('',#596);
#598=CARTESIAN_POINT('',(15.5,-10.,0.));
#599=VERTEX_POINT('',#598);
#600=CARTESIAN_POINT('',(15.5,-3.,0.));
#601=DIRECTION('',(0.,-1.,0.));
#602=VECTOR('',#601,7.);
#603=LINE('',#600,#602);
#604=EDGE_CURVE('',#597,#599,#603,.T.);
#605=ORIENTED_EDGE('',*,*,#604,.F.);
#606=CARTESIAN_POINT('',(8.5,-3.,0.));
#607=VERTEX_POINT('',#606);
#608=CARTESIAN_POINT('',(8.5,-3.,0.));
#609=DIRECTION('',(1.,0.,0.));
#610=VECTOR('',#609,7.);
#611=LINE('',#608,#610);
#612=EDGE_CURVE('',#607,#597,#611,.T.);
#613=ORIENTED_EDGE('',*,*,#612,.F.);
#614=CARTESIAN_POINT('',(8.5,-10.,0.));
#615=VERTEX_POINT('',#614);
#616=CARTESIAN_POINT('',(8.5,-10.,0.));
#617=DIRECTION('',(0.,1.,0.));
#618=VECTOR('',#617,7.);
#619=LINE('',#616,#618);
#620=EDGE_CURVE('',#615,#607,#619,.T.);
#621=ORIENTED_EDGE('',*,*,#620,.F.);
#622=CARTESIAN_POINT('',(15.5,-10.,0.));
#623=DIRECTION('',(-1.,-0.,0.));
#624=VECTOR('',#623,7.);
#625=LINE('',#622,#624);
#626=EDGE_CURVE('',#599,#615,#625,.T.);
#627=ORIENTED_EDGE('',*,*,#626,.F.);
#628=EDGE_LOOP('',(#605,#613,#621,#627));
#629=FACE_BOUND('',#628,.T.);
#630=ORIENTED_EDGE('',*,*,#56,.T.);
#631=CARTESIAN_POINT('',(2.,-13.5,0.));
#632=VERTEX_POINT('',#631);
#633=CARTESIAN_POINT('',(3.,-13.5,0.));
#634=DIRECTION('',(-0.,-0.,-1.));
#635=DIRECTION('',(1.,0.,-0.));
#636=AXIS2_PLACEMENT_3D('',#633,#634,#635);
#637=CIRCLE('',#636,1.);
#638=EDGE_CURVE('',#43,#632,#637,.T.);
#639=ORIENTED_EDGE('',*,*,#638,.T.);
#640=CARTESIAN_POINT('',(2.,-8.5,0.));
#641=VERTEX_POINT('',#640);
#642=CARTESIAN_POINT('',(2.,-8.5,0.));
#643=DIRECTION('',(0.,-1.,0.));
#644=VECTOR('',#643,5.);
#645=LINE('',#642,#644);
#646=EDGE_CURVE('',#641,#632,#645,.T.);
#647=ORIENTED_EDGE('',*,*,#646,.F.);
#648=CARTESIAN_POINT('',(-2.,-8.5,0.));
#649=VERTEX_POINT('',#648);
#650=CARTESIAN_POINT('',(-2.,-8.5,0.));
#651=DIRECTION('',(1.,0.,-0.));
#652=VECTOR('',#651,4.);
#653=LINE('',#650,#652);
#654=EDGE_CURVE('',#649,#641,#653,.T.);
#655=ORIENTED_EDGE('',*,*,#654,.F.);
#656=CARTESIAN_POINT('',(-2.,-13.5,0.));
#657=VERTEX_POINT('',#656);
#658=CARTESIAN_POINT('',(-2.,-13.5,0.));
#659=DIRECTION('',(0.,1.,0.));
#660=VECTOR('',#659,5.);
#661=LINE('',#658,#660);
#662=EDGE_CURVE('',#657,#649,#661,.T.);
#663=ORIENTED_EDGE('',*,*,#662,.F.);
#664=CARTESIAN_POINT('',(-3.,-14.5,0.));
#665=VERTEX_POINT('',#664);
#666=CARTESIAN_POINT('',(-3.,-13.5,0.));
#667=DIRECTION('',(-0.,-0.,-1.));
#668=DIRECTION('',(1.,0.,-0.));
#669=AXIS2_PLACEMENT_3D('',#666,#667,#668);
#670=CIRCLE('',#669,1.);
#671=EDGE_CURVE('',#657,#665,#670,.T.);
#672=ORIENTED_EDGE('',*,*,#671,.T.);
#673=CARTESIAN_POINT('',(-20.,-14.5,0.));
#674=VERTEX_POINT('',#673);
#675=CARTESIAN_POINT('',(-3.,-14.5,0.));
#676=DIRECTION('',(-1.,-0.,0.));
#677=VECTOR('',#676,17.);
#678=LINE('',#675,#677);
#679=EDGE_CURVE('',#665,#674,#678,.T.);
#680=ORIENTED_EDGE('',*,*,#679,.T.);
#681=CARTESIAN_POINT('',(-23.,-11.5,0.));
#682=VERTEX_POINT('',#681);
#683=CARTESIAN_POINT('',(-20.,-11.5,0.));
#684=DIRECTION('',(-0.,-0.,-1.));
#685=DIRECTION('',(1.,0.,-0.));
#686=AXIS2_PLACEMENT_3D('',#683,#684,#685);
#687=CIRCLE('',#686,3.);
#688=EDGE_CURVE('',#674,#682,#687,.T.);
#689=ORIENTED_EDGE('',*,*,#688,.T.);
#690=CARTESIAN_POINT('',(-23.,11.5,0.));
#691=VERTEX_POINT('',#690);
#692=CARTESIAN_POINT('',(-23.,-11.5,0.));
#693=DIRECTION('',(-0.,1.,0.));
#694=VECTOR('',#693,23.);
#695=LINE('',#692,#694);
#696=EDGE_CURVE('',#682,#691,#695,.T.);
#697=ORIENTED_EDGE('',*,*,#696,.T.);
#698=CARTESIAN_POINT('',(-20.,14.5,0.));
#699=VERTEX_POINT('',#698);
#700=CARTESIAN_POINT('',(-20.,11.5,0.));
#701=DIRECTION('',(-0.,-0.,-1.));
#702=DIRECTION('',(1.,0.,-0.));
#703=AXIS2_PLACEMENT_3D('',#700,#701,#702);
#704=CIRCLE('',#703,3.);
#705=EDGE_CURVE('',#691,#699,#704,.T.);
#706=ORIENTED_EDGE('',*,*,#705,.T.);
#707=CARTESIAN_POINT('',(-7.2,14.5,0.));
#708=VERTEX_POINT('',#707);
#709=CARTESIAN_POINT('',(-20.,14.5,0.));
#710=DIRECTION('',(1.,0.,0.));
#711=VECTOR('',#710,12.8);
#712=LINE('',#709,#711);
#713=EDGE_CURVE('',#699,#708,#712,.T.);
#714=ORIENTED_EDGE('',*,*,#713,.T.);
#715=CARTESIAN_POINT('',(-6.2,13.5,0.));
#716=VERTEX_POINT('',#715);
#717=CARTESIAN_POINT('',(-7.2,13.5,0.));
#718=DIRECTION('',(-0.,-0.,-1.));
#719=DIRECTION('',(1.,0.,-0.));
#720=AXIS2_PLACEMENT_3D('',#717,#718,#719);
#721=CIRCLE('',#720,1.);
#722=EDGE_CURVE('',#708,#716,#721,.T.);
#723=ORIENTED_EDGE('',*,*,#722,.T.);
#724=CARTESIAN_POINT('',(-6.2,1.1,0.));
#725=VERTEX_POINT('',#724);
#726=CARTESIAN_POINT('',(-6.2,1.1,0.));
#727=DIRECTION('',(-0.,1.,0.));
#728=VECTOR('',#727,12.4);
#729=LINE('',#726,#728);
#730=EDGE_CURVE('',#725,#716,#729,.T.);
#731=ORIENTED_EDGE('',*,*,#730,.F.);
#732=CARTESIAN_POINT('',(6.2,1.1,0.));
#733=VERTEX_POINT('',#732);
#734=CARTESIAN_POINT('',(6.2,1.1,0.));
#735=DIRECTION('',(-1.,-0.,0.));
#736=VECTOR('',#735,12.4);
#737=LINE('',#734,#736);
#738=EDGE_CURVE('',#733,#725,#737,.T.);
#739=ORIENTED_EDGE('',*,*,#738,.F.);
#740=CARTESIAN_POINT('',(6.2,13.5,0.));
#741=VERTEX_POINT('',#740);
#742=CARTESIAN_POINT('',(6.2,13.5,0.));
#743=DIRECTION('',(0.,-1.,0.));
#744=VECTOR('',#743,12.4);
#745=LINE('',#742,#744);
#746=EDGE_CURVE('',#741,#733,#745,.T.);
#747=ORIENTED_EDGE('',*,*,#746,.F.);
#748=CARTESIAN_POINT('',(7.2,14.5,0.));
#749=VERTEX_POINT('',#748);
#750=CARTESIAN_POINT('',(7.2,13.5,0.));
#751=DIRECTION('',(-0.,-0.,-1.));
#752=DIRECTION('',(1.,0.,-0.));
#753=AXIS2_PLACEMENT_3D('',#750,#751,#752);
#754=CIRCLE('',#753,1.);
#755=EDGE_CURVE('',#741,#749,#754,.T.);
#756=ORIENTED_EDGE('',*,*,#755,.T.);
#757=CARTESIAN_POINT('',(20.,14.5,0.));
#758=VERTEX_POINT('',#757);
#759=CARTESIAN_POINT('',(7.2,14.5,0.));
#760=DIRECTION('',(1.,0.,0.));
#761=VECTOR('',#760,12.8);
#762=LINE('',#759,#761);
#763=EDGE_CURVE('',#749,#758,#762,.T.);
#764=ORIENTED_EDGE('',*,*,#763,.T.);
#765=CARTESIAN_POINT('',(23.,11.5,0.));
#766=VERTEX_POINT('',#765);
#767=CARTESIAN_POINT('',(20.,11.5,0.));
#768=DIRECTION('',(-0.,-0.,-1.));
#769=DIRECTION('',(1.,0.,-0.));
#770=AXIS2_PLACEMENT_3D('',#767,#768,#769);
#771=CIRCLE('',#770,3.);
#772=EDGE_CURVE('',#758,#766,#771,.T.);
#773=ORIENTED_EDGE('',*,*,#772,.T.);
#774=CARTESIAN_POINT('',(23.,-11.5,0.));
#775=VERTEX_POINT('',#774);
#776=CARTESIAN_POINT('',(23.,11.5,0.));
#777=DIRECTION('',(0.,-1.,0.));
#778=VECTOR('',#777,23.);
#779=LINE('',#776,#778);
#780=EDGE_CURVE('',#766,#775,#779,.T.);
#781=ORIENTED_EDGE('',*,*,#780,.T.);
#782=CARTESIAN_POINT('',(20.,-11.5,0.));
#783=DIRECTION('',(-0.,-0.,-1.));
#784=DIRECTION('',(1.,0.,-0.));
#785=AXIS2_PLACEMENT_3D('',#782,#783,#784);
#786=CIRCLE('',#785,3.);
#787=EDGE_CURVE('',#775,#51,#786,.T.);
#788=ORIENTED_EDGE('',*,*,#787,.T.);
#789=EDGE_LOOP('',(#630,#639,#647,#655,#663,#672,#680,#689,#697,#706,#714,#723,#731,#739,#747,#756,#764,#773,#781,#788));
#790=FACE_BOUND('',#789,.T.);
#791=ADVANCED_FACE('',(#513,#524,#535,#595,#629,#790),#502,.F.);
#792=CARTESIAN_POINT('',(-0.,14.5,1.5));
#793=DIRECTION('',(-0.,1.,0.));
#794=DIRECTION('',(-1.,-0.,0.));
#795=AXIS2_PLACEMENT_3D('',#792,#793,#794);
#796=PLANE('',#795);
#797=ORIENTED_EDGE('',*,*,#763,.F.);
#798=CARTESIAN_POINT('',(7.2,14.5,0.));
#799=DIRECTION('',(0.,0.,1.));
#800=VECTOR('',#799,1.4);
#801=LINE('',#798,#800);
#802=EDGE_CURVE('',#749,#357,#801,.T.);
#803=ORIENTED_EDGE('',*,*,#802,.T.);
#804=ORIENTED_EDGE('',*,*,#362,.T.);
#805=CARTESIAN_POINT('',(10.33198916,14.5,6.4));
#806=VERTEX_POINT('',#805);
#807=CARTESIAN_POINT('',(10.33198916,14.5,1.4));
#808=DIRECTION('',(-0.,-0.,1.));
#809=VECTOR('',#808,5.);
#810=LINE('',#807,#809);
#811=EDGE_CURVE('',#348,#806,#810,.T.);
#812=ORIENTED_EDGE('',*,*,#811,.T.);
#813=CARTESIAN_POINT('',(20.,14.5,6.4));
#814=VERTEX_POINT('',#813);
#815=CARTESIAN_POINT('',(10.33198916,14.5,6.4));
#816=DIRECTION('',(1.,0.,0.));
#817=VECTOR('',#816,9.66801084);
#818=LINE('',#815,#817);
#819=EDGE_CURVE('',#806,#814,#818,.T.);
#820=ORIENTED_EDGE('',*,*,#819,.T.);
#821=CARTESIAN_POINT('',(20.,14.5,6.4));
#822=DIRECTION('',(0.,0.,-1.));
#823=VECTOR('',#822,6.4);
#824=LINE('',#821,#823);
#825=EDGE_CURVE('',#814,#758,#824,.T.);
#826=ORIENTED_EDGE('',*,*,#825,.T.);
#827=EDGE_LOOP('',(#797,#803,#804,#812,#820,#826));
#828=FACE_BOUND('',#827,.T.);
#829=ADVANCED_FACE('',(#828),#796,.T.);
#830=CARTESIAN_POINT('',(23.,0.,1.5));
#831=DIRECTION('',(1.,0.,0.));
#832=DIRECTION('',(-0.,1.,0.));
#833=AXIS2_PLACEMENT_3D('',#830,#831,#832);
#834=PLANE('',#833);
#835=ORIENTED_EDGE('',*,*,#780,.F.);
#836=CARTESIAN_POINT('',(23.,11.5,6.4));
#837=VERTEX_POINT('',#836);
#838=CARTESIAN_POINT('',(23.,11.5,0.));
#839=DIRECTION('',(-0.,-0.,1.));
#840=VECTOR('',#839,6.4);
#841=LINE('',#838,#840);
#842=EDGE_CURVE('',#766,#837,#841,.T.);
#843=ORIENTED_EDGE('',*,*,#842,.T.);
#844=CARTESIAN_POINT('',(23.,-11.5,6.4));
#845=VERTEX_POINT('',#844);
#846=CARTESIAN_POINT('',(23.,11.5,6.4));
#847=DIRECTION('',(0.,-1.,0.));
#848=VECTOR('',#847,23.);
#849=LINE('',#846,#848);
#850=EDGE_CURVE('',#837,#845,#849,.T.);
#851=ORIENTED_EDGE('',*,*,#850,.T.);
#852=CARTESIAN_POINT('',(23.,-11.5,6.4));
#853=DIRECTION('',(0.,0.,-1.));
#854=VECTOR('',#853,6.4);
#855=LINE('',#852,#854);
#856=EDGE_CURVE('',#845,#775,#855,.T.);
#857=ORIENTED_EDGE('',*,*,#856,.T.);
#858=EDGE_LOOP('',(#835,#843,#851,#857));
#859=FACE_BOUND('',#858,.T.);
#860=ADVANCED_FACE('',(#859),#834,.T.);
#861=CARTESIAN_POINT('',(-0.,14.5,1.5));
#862=DIRECTION('',(-0.,1.,0.));
#863=DIRECTION('',(-1.,-0.,0.));
#864=AXIS2_PLACEMENT_3D('',#861,#862,#863);
#865=PLANE('',#864);
#866=ORIENTED_EDGE('',*,*,#412,.T.);
#867=CARTESIAN_POINT('',(-7.2,14.5,1.4));
#868=DIRECTION('',(-0.,-0.,-1.));
#869=VECTOR('',#868,1.4);
#870=LINE('',#867,#869);
#871=EDGE_CURVE('',#398,#708,#870,.T.);
#872=ORIENTED_EDGE('',*,*,#871,.T.);
#873=ORIENTED_EDGE('',*,*,#713,.F.);
#874=CARTESIAN_POINT('',(-20.,14.5,0.));
#875=DIRECTION('',(-0.,-0.,1.));
#876=VECTOR('',#875,6.4);
#877=LINE('',#874,#876);
#878=EDGE_CURVE('',#699,#189,#877,.T.);
#879=ORIENTED_EDGE('',*,*,#878,.T.);
#880=ORIENTED_EDGE('',*,*,#194,.T.);
#881=CARTESIAN_POINT('',(-10.33198916,14.5,6.4));
#882=DIRECTION('',(0.,0.,-1.));
#883=VECTOR('',#882,5.);
#884=LINE('',#881,#883);
#885=EDGE_CURVE('',#180,#407,#884,.T.);
#886=ORIENTED_EDGE('',*,*,#885,.T.);
#887=EDGE_LOOP('',(#866,#872,#873,#879,#880,#886));
#888=FACE_BOUND('',#887,.T.);
#889=ADVANCED_FACE('',(#888),#865,.T.);
#890=CARTESIAN_POINT('',(-23.,-0.,1.5));
#891=DIRECTION('',(-1.,-0.,0.));
#892=DIRECTION('',(0.,-1.,0.));
#893=AXIS2_PLACEMENT_3D('',#890,#891,#892);
#894=PLANE('',#893);
#895=ORIENTED_EDGE('',*,*,#696,.F.);
#896=CARTESIAN_POINT('',(-23.,-11.5,0.));
#897=DIRECTION('',(-0.,-0.,1.));
#898=VECTOR('',#897,6.4);
#899=LINE('',#896,#898);
#900=EDGE_CURVE('',#682,#206,#899,.T.);
#901=ORIENTED_EDGE('',*,*,#900,.T.);
#902=ORIENTED_EDGE('',*,*,#211,.T.);
#903=CARTESIAN_POINT('',(-23.,11.5,6.4));
#904=DIRECTION('',(0.,0.,-1.));
#905=VECTOR('',#904,6.4);
#906=LINE('',#903,#905);
#907=EDGE_CURVE('',#197,#691,#906,.T.);
#908=ORIENTED_EDGE('',*,*,#907,.T.);
#909=EDGE_LOOP('',(#895,#901,#902,#908));
#910=FACE_BOUND('',#909,.T.);
#911=ADVANCED_FACE('',(#910),#894,.T.);
#912=CARTESIAN_POINT('',(0.,-14.5,1.5));
#913=DIRECTION('',(0.,-1.,0.));
#914=DIRECTION('',(1.,0.,0.));
#915=AXIS2_PLACEMENT_3D('',#912,#913,#914);
#916=PLANE('',#915);
#917=ORIENTED_EDGE('',*,*,#679,.F.);
#918=CARTESIAN_POINT('',(-3.,-14.5,0.));
#919=DIRECTION('',(0.,0.,1.));
#920=VECTOR('',#919,1.4);
#921=LINE('',#918,#920);
#922=EDGE_CURVE('',#665,#465,#921,.T.);
#923=ORIENTED_EDGE('',*,*,#922,.T.);
#924=ORIENTED_EDGE('',*,*,#470,.T.);
#925=CARTESIAN_POINT('',(-10.33198916,-14.5,1.4));
#926=DIRECTION('',(-0.,-0.,1.));
#927=VECTOR('',#926,5.);
#928=LINE('',#925,#927);
#929=EDGE_CURVE('',#456,#223,#928,.T.);
#930=ORIENTED_EDGE('',*,*,#929,.T.);
#931=ORIENTED_EDGE('',*,*,#228,.T.);
#932=CARTESIAN_POINT('',(-20.,-14.5,6.4));
#933=DIRECTION('',(0.,0.,-1.));
#934=VECTOR('',#933,6.4);
#935=LINE('',#932,#934);
#936=EDGE_CURVE('',#214,#674,#935,.T.);
#937=ORIENTED_EDGE('',*,*,#936,.T.);
#938=EDGE_LOOP('',(#917,#923,#924,#930,#931,#937));
#939=FACE_BOUND('',#938,.T.);
#940=ADVANCED_FACE('',(#939),#916,.T.);
#941=CARTESIAN_POINT('',(20.4,-11.5,0.));
#942=DIRECTION('',(0.,0.,1.));
#943=DIRECTION('',(1.,0.,-0.));
#944=AXIS2_PLACEMENT_3D('',#941,#942,#943);
#945=CYLINDRICAL_SURFACE('',#944,1.5);
#946=CARTESIAN_POINT('',(18.9,-11.5,6.4));
#947=VERTEX_POINT('',#946);
#948=CARTESIAN_POINT('',(18.9,-11.5,0.));
#949=DIRECTION('',(0.,0.,1.));
#950=VECTOR('',#949,6.4);
#951=LINE('',#948,#950);
#952=EDGE_CURVE('',#556,#947,#951,.T.);
#953=ORIENTED_EDGE('',*,*,#952,.T.);
#954=CARTESIAN_POINT('',(21.9,-11.5,6.4));
#955=VERTEX_POINT('',#954);
#956=CARTESIAN_POINT('',(20.4,-11.5,6.4));
#957=DIRECTION('',(0.,0.,1.));
#958=DIRECTION('',(1.,0.,-0.));
#959=AXIS2_PLACEMENT_3D('',#956,#957,#958);
#960=CIRCLE('',#959,1.5);
#961=EDGE_CURVE('',#947,#955,#960,.T.);
#962=ORIENTED_EDGE('',*,*,#961,.T.);
#963=CARTESIAN_POINT('',(21.9,-11.5,0.));
#964=DIRECTION('',(0.,0.,1.));
#965=VECTOR('',#964,6.4);
#966=LINE('',#963,#965);
#967=EDGE_CURVE('',#564,#955,#966,.T.);
#968=ORIENTED_EDGE('',*,*,#967,.F.);
#969=ORIENTED_EDGE('',*,*,#570,.F.);
#970=EDGE_LOOP('',(#953,#962,#968,#969));
#971=FACE_BOUND('',#970,.T.);
#972=ADVANCED_FACE('',(#971),#945,.F.);
#973=CARTESIAN_POINT('',(21.9,-3.,0.));
#974=DIRECTION('',(-1.,-0.,0.));
#975=DIRECTION('',(0.,-1.,0.));
#976=AXIS2_PLACEMENT_3D('',#973,#974,#975);
#977=PLANE('',#976);
#978=ORIENTED_EDGE('',*,*,#967,.T.);
#979=CARTESIAN_POINT('',(21.9,4.,6.4));
#980=VERTEX_POINT('',#979);
#981=CARTESIAN_POINT('',(21.9,4.,6.4));
#982=DIRECTION('',(0.,-1.,0.));
#983=VECTOR('',#982,15.5);
#984=LINE('',#981,#983);
#985=EDGE_CURVE('',#980,#955,#984,.T.);
#986=ORIENTED_EDGE('',*,*,#985,.F.);
#987=CARTESIAN_POINT('',(21.9,4.,0.));
#988=DIRECTION('',(0.,0.,1.));
#989=VECTOR('',#988,6.4);
#990=LINE('',#987,#989);
#991=EDGE_CURVE('',#573,#980,#990,.T.);
#992=ORIENTED_EDGE('',*,*,#991,.F.);
#993=ORIENTED_EDGE('',*,*,#578,.T.);
#994=EDGE_LOOP('',(#978,#986,#992,#993));
#995=FACE_BOUND('',#994,.T.);
#996=ADVANCED_FACE('',(#995),#977,.T.);
#997=CARTESIAN_POINT('',(19.7,4.,0.));
#998=DIRECTION('',(0.,-1.,0.));
#999=DIRECTION('',(1.,0.,0.));
#1000=AXIS2_PLACEMENT_3D('',#997,#998,#999);
#1001=PLANE('',#1000);
#1002=ORIENTED_EDGE('',*,*,#991,.T.);
#1003=CARTESIAN_POINT('',(17.5,4.,6.4));
#1004=VERTEX_POINT('',#1003);
#1005=CARTESIAN_POINT('',(17.5,4.,6.4));
#1006=DIRECTION('',(1.,0.,0.));
#1007=VECTOR('',#1006,4.4);
#1008=LINE('',#1005,#1007);
#1009=EDGE_CURVE('',#1004,#980,#1008,.T.);
#1010=ORIENTED_EDGE('',*,*,#1009,.F.);
#1011=CARTESIAN_POINT('',(17.5,4.,0.));
#1012=DIRECTION('',(0.,0.,1.));
#1013=VECTOR('',#1012,6.4);
#1014=LINE('',#1011,#1013);
#1015=EDGE_CURVE('',#581,#1004,#1014,.T.);
#1016=ORIENTED_EDGE('',*,*,#1015,.F.);
#1017=ORIENTED_EDGE('',*,*,#586,.T.);
#1018=EDGE_LOOP('',(#1002,#1010,#1016,#1017));
#1019=FACE_BOUND('',#1018,.T.);
#1020=ADVANCED_FACE('',(#1019),#1001,.T.);
#1021=CARTESIAN_POINT('',(17.5,-3.,0.));
#1022=DIRECTION('',(1.,0.,0.));
#1023=DIRECTION('',(-0.,1.,0.));
#1024=AXIS2_PLACEMENT_3D('',#1021,#1022,#1023);
#1025=PLANE('',#1024);
#1026=ORIENTED_EDGE('',*,*,#1015,.T.);
#1027=CARTESIAN_POINT('',(17.5,-10.,6.4));
#1028=VERTEX_POINT('',#1027);
#1029=CARTESIAN_POINT('',(17.5,-10.,6.4));
#1030=DIRECTION('',(-0.,1.,0.));
#1031=VECTOR('',#1030,14.);
#1032=LINE('',#1029,#1031);
#1033=EDGE_CURVE('',#1028,#1004,#1032,.T.);
#1034=ORIENTED_EDGE('',*,*,#1033,.F.);
#1035=CARTESIAN_POINT('',(17.5,-10.,0.));
#1036=DIRECTION('',(0.,0.,1.));
#1037=VECTOR('',#1036,6.4);
#1038=LINE('',#1035,#1037);
#1039=EDGE_CURVE('',#539,#1028,#1038,.T.);
#1040=ORIENTED_EDGE('',*,*,#1039,.F.);
#1041=ORIENTED_EDGE('',*,*,#592,.T.);
#1042=EDGE_LOOP('',(#1026,#1034,#1040,#1041));
#1043=FACE_BOUND('',#1042,.T.);
#1044=ADVANCED_FACE('',(#1043),#1025,.T.);
#1045=CARTESIAN_POINT('',(19.7,-10.,0.));
#1046=DIRECTION('',(0.,1.,0.));
#1047=DIRECTION('',(-1.,0.,0.));
#1048=AXIS2_PLACEMENT_3D('',#1045,#1046,#1047);
#1049=PLANE('',#1048);
#1050=ORIENTED_EDGE('',*,*,#1039,.T.);
#1051=CARTESIAN_POINT('',(17.9,-10.,6.4));
#1052=VERTEX_POINT('',#1051);
#1053=CARTESIAN_POINT('',(17.9,-10.,6.4));
#1054=DIRECTION('',(-1.,0.,0.));
#1055=VECTOR('',#1054,0.4);
#1056=LINE('',#1053,#1055);
#1057=EDGE_CURVE('',#1052,#1028,#1056,.T.);
#1058=ORIENTED_EDGE('',*,*,#1057,.F.);
#1059=CARTESIAN_POINT('',(17.9,-10.,6.4));
#1060=DIRECTION('',(-0.,-0.,-1.));
#1061=VECTOR('',#1060,6.4);
#1062=LINE('',#1059,#1061);
#1063=EDGE_CURVE('',#1052,#537,#1062,.T.);
#1064=ORIENTED_EDGE('',*,*,#1063,.T.);
#1065=ORIENTED_EDGE('',*,*,#544,.T.);
#1066=EDGE_LOOP('',(#1050,#1058,#1064,#1065));
#1067=FACE_BOUND('',#1066,.T.);
#1068=ADVANCED_FACE('',(#1067),#1049,.T.);
#1069=CARTESIAN_POINT('',(18.9,-10.75,0.));
#1070=DIRECTION('',(1.,0.,0.));
#1071=DIRECTION('',(-0.,1.,0.));
#1072=AXIS2_PLACEMENT_3D('',#1069,#1070,#1071);
#1073=PLANE('',#1072);
#1074=ORIENTED_EDGE('',*,*,#561,.T.);
#1075=CARTESIAN_POINT('',(18.9,-11.,6.4));
#1076=VERTEX_POINT('',#1075);
#1077=CARTESIAN_POINT('',(18.9,-11.,0.));
#1078=DIRECTION('',(0.,0.,1.));
#1079=VECTOR('',#1078,6.4);
#1080=LINE('',#1077,#1079);
#1081=EDGE_CURVE('',#547,#1076,#1080,.T.);
#1082=ORIENTED_EDGE('',*,*,#1081,.T.);
#1083=CARTESIAN_POINT('',(18.9,-11.5,6.4));
#1084=DIRECTION('',(-0.,1.,0.));
#1085=VECTOR('',#1084,0.5);
#1086=LINE('',#1083,#1085);
#1087=EDGE_CURVE('',#947,#1076,#1086,.T.);
#1088=ORIENTED_EDGE('',*,*,#1087,.F.);
#1089=ORIENTED_EDGE('',*,*,#952,.F.);
#1090=EDGE_LOOP('',(#1074,#1082,#1088,#1089));
#1091=FACE_BOUND('',#1090,.T.);
#1092=ADVANCED_FACE('',(#1091),#1073,.T.);
#1093=CARTESIAN_POINT('',(15.5,-6.5,-0.5));
#1094=DIRECTION('',(-1.,-0.,0.));
#1095=DIRECTION('',(0.,-1.,0.));
#1096=AXIS2_PLACEMENT_3D('',#1093,#1094,#1095);
#1097=PLANE('',#1096);
#1098=ORIENTED_EDGE('',*,*,#604,.T.);
#1099=CARTESIAN_POINT('',(15.5,-10.,6.4));
#1100=VERTEX_POINT('',#1099);
#1101=CARTESIAN_POINT('',(15.5,-10.,0.));
#1102=DIRECTION('',(0.,0.,1.));
#1103=VECTOR('',#1102,6.4);
#1104=LINE('',#1101,#1103);
#1105=EDGE_CURVE('',#599,#1100,#1104,.T.);
#1106=ORIENTED_EDGE('',*,*,#1105,.T.);
#1107=CARTESIAN_POINT('',(15.5,-3.968626967,6.4));
#1108=VERTEX_POINT('',#1107);
#1109=CARTESIAN_POINT('',(15.5,-3.968626967,6.4));
#1110=DIRECTION('',(0.,-1.,0.));
#1111=VECTOR('',#1110,6.031373033);
#1112=LINE('',#1109,#1111);
#1113=EDGE_CURVE('',#1108,#1100,#1112,.T.);
#1114=ORIENTED_EDGE('',*,*,#1113,.F.);
#1115=CARTESIAN_POINT('',(15.5,-3.968626967,6.4));
#1116=DIRECTION('',(0.,0.,-1.));
#1117=VECTOR('',#1116,5.);
#1118=LINE('',#1115,#1117);
#1119=EDGE_CURVE('',#1108,#322,#1118,.T.);
#1120=ORIENTED_EDGE('',*,*,#1119,.T.);
#1121=ORIENTED_EDGE('',*,*,#327,.F.);
#1122=CARTESIAN_POINT('',(15.5,-3.,0.));
#1123=DIRECTION('',(0.,0.,1.));
#1124=VECTOR('',#1123,1.4);
#1125=LINE('',#1122,#1124);
#1126=EDGE_CURVE('',#597,#314,#1125,.T.);
#1127=ORIENTED_EDGE('',*,*,#1126,.F.);
#1128=EDGE_LOOP('',(#1098,#1106,#1114,#1120,#1121,#1127));
#1129=FACE_BOUND('',#1128,.T.);
#1130=ADVANCED_FACE('',(#1129),#1097,.T.);
#1131=CARTESIAN_POINT('',(12.,-3.,-0.5));
#1132=DIRECTION('',(0.,-1.,0.));
#1133=DIRECTION('',(1.,0.,0.));
#1134=AXIS2_PLACEMENT_3D('',#1131,#1132,#1133);
#1135=PLANE('',#1134);
#1136=ORIENTED_EDGE('',*,*,#612,.T.);
#1137=ORIENTED_EDGE('',*,*,#1126,.T.);
#1138=ORIENTED_EDGE('',*,*,#319,.F.);
#1139=CARTESIAN_POINT('',(8.5,-3.,0.));
#1140=DIRECTION('',(0.,0.,1.));
#1141=VECTOR('',#1140,1.4);
#1142=LINE('',#1139,#1141);
#1143=EDGE_CURVE('',#607,#306,#1142,.T.);
#1144=ORIENTED_EDGE('',*,*,#1143,.F.);
#1145=EDGE_LOOP('',(#1136,#1137,#1138,#1144));
#1146=FACE_BOUND('',#1145,.T.);
#1147=ADVANCED_FACE('',(#1146),#1135,.T.);
#1148=CARTESIAN_POINT('',(8.5,-6.5,-0.5));
#1149=DIRECTION('',(1.,0.,0.));
#1150=DIRECTION('',(0.,0.,-1.));
#1151=AXIS2_PLACEMENT_3D('',#1148,#1149,#1150);
#1152=PLANE('',#1151);
#1153=ORIENTED_EDGE('',*,*,#620,.T.);
#1154=ORIENTED_EDGE('',*,*,#1143,.T.);
#1155=ORIENTED_EDGE('',*,*,#311,.F.);
#1156=CARTESIAN_POINT('',(8.5,-10.,0.));
#1157=DIRECTION('',(0.,0.,1.));
#1158=VECTOR('',#1157,1.4);
#1159=LINE('',#1156,#1158);
#1160=EDGE_CURVE('',#615,#298,#1159,.T.);
#1161=ORIENTED_EDGE('',*,*,#1160,.F.);
#1162=EDGE_LOOP('',(#1153,#1154,#1155,#1161));
#1163=FACE_BOUND('',#1162,.T.);
#1164=ADVANCED_FACE('',(#1163),#1152,.T.);
#1165=CARTESIAN_POINT('',(12.,-10.,-0.5));
#1166=DIRECTION('',(-0.,1.,0.));
#1167=DIRECTION('',(-1.,-0.,0.));
#1168=AXIS2_PLACEMENT_3D('',#1165,#1166,#1167);
#1169=PLANE('',#1168);
#1170=ORIENTED_EDGE('',*,*,#626,.T.);
#1171=ORIENTED_EDGE('',*,*,#1160,.T.);
#1172=ORIENTED_EDGE('',*,*,#303,.F.);
#1173=CARTESIAN_POINT('',(12.489995997,-10.,6.4));
#1174=VERTEX_POINT('',#1173);
#1175=CARTESIAN_POINT('',(12.489995997,-10.,6.4));
#1176=DIRECTION('',(0.,0.,-1.));
#1177=VECTOR('',#1176,5.);
#1178=LINE('',#1175,#1177);
#1179=EDGE_CURVE('',#1174,#289,#1178,.T.);
#1180=ORIENTED_EDGE('',*,*,#1179,.F.);
#1181=CARTESIAN_POINT('',(15.5,-10.,6.4));
#1182=DIRECTION('',(-1.,-0.,0.));
#1183=VECTOR('',#1182,3.010004003);
#1184=LINE('',#1181,#1183);
#1185=EDGE_CURVE('',#1100,#1174,#1184,.T.);
#1186=ORIENTED_EDGE('',*,*,#1185,.F.);
#1187=ORIENTED_EDGE('',*,*,#1105,.F.);
#1188=EDGE_LOOP('',(#1170,#1171,#1172,#1180,#1186,#1187));
#1189=FACE_BOUND('',#1188,.T.);
#1190=ADVANCED_FACE('',(#1189),#1169,.T.);
#1191=CARTESIAN_POINT('',(6.2,7.8,-0.5));
#1192=DIRECTION('',(-1.,-0.,0.));
#1193=DIRECTION('',(0.,-1.,0.));
#1194=AXIS2_PLACEMENT_3D('',#1191,#1192,#1193);
#1195=PLANE('',#1194);
#1196=ORIENTED_EDGE('',*,*,#379,.F.);
#1197=CARTESIAN_POINT('',(6.2,13.5,1.4));
#1198=DIRECTION('',(-0.,-0.,-1.));
#1199=VECTOR('',#1198,1.4);
#1200=LINE('',#1197,#1199);
#1201=EDGE_CURVE('',#365,#741,#1200,.T.);
#1202=ORIENTED_EDGE('',*,*,#1201,.T.);
#1203=ORIENTED_EDGE('',*,*,#746,.T.);
#1204=CARTESIAN_POINT('',(6.2,1.1,0.));
#1205=DIRECTION('',(0.,0.,1.));
#1206=VECTOR('',#1205,1.4);
#1207=LINE('',#1204,#1206);
#1208=EDGE_CURVE('',#733,#374,#1207,.T.);
#1209=ORIENTED_EDGE('',*,*,#1208,.T.);
#1210=EDGE_LOOP('',(#1196,#1202,#1203,#1209));
#1211=FACE_BOUND('',#1210,.T.);
#1212=ADVANCED_FACE('',(#1211),#1195,.T.);
#1213=CARTESIAN_POINT('',(-6.2,7.8,-0.5));
#1214=DIRECTION('',(1.,0.,0.));
#1215=DIRECTION('',(-0.,1.,0.));
#1216=AXIS2_PLACEMENT_3D('',#1213,#1214,#1215);
#1217=PLANE('',#1216);
#1218=ORIENTED_EDGE('',*,*,#730,.T.);
#1219=CARTESIAN_POINT('',(-6.2,13.5,0.));
#1220=DIRECTION('',(0.,0.,1.));
#1221=VECTOR('',#1220,1.4);
#1222=LINE('',#1219,#1221);
#1223=EDGE_CURVE('',#716,#390,#1222,.T.);
#1224=ORIENTED_EDGE('',*,*,#1223,.T.);
#1225=ORIENTED_EDGE('',*,*,#395,.F.);
#1226=CARTESIAN_POINT('',(-6.2,1.1,0.));
#1227=DIRECTION('',(0.,0.,1.));
#1228=VECTOR('',#1227,1.4);
#1229=LINE('',#1226,#1228);
#1230=EDGE_CURVE('',#725,#382,#1229,.T.);
#1231=ORIENTED_EDGE('',*,*,#1230,.F.);
#1232=EDGE_LOOP('',(#1218,#1224,#1225,#1231));
#1233=FACE_BOUND('',#1232,.T.);
#1234=ADVANCED_FACE('',(#1233),#1217,.T.);
#1235=CARTESIAN_POINT('',(-0.,1.1,-0.5));
#1236=DIRECTION('',(-0.,1.,0.));
#1237=DIRECTION('',(-1.,-0.,0.));
#1238=AXIS2_PLACEMENT_3D('',#1235,#1236,#1237);
#1239=PLANE('',#1238);
#1240=ORIENTED_EDGE('',*,*,#738,.T.);
#1241=ORIENTED_EDGE('',*,*,#1230,.T.);
#1242=ORIENTED_EDGE('',*,*,#387,.F.);
#1243=ORIENTED_EDGE('',*,*,#1208,.F.);
#1244=EDGE_LOOP('',(#1240,#1241,#1242,#1243));
#1245=FACE_BOUND('',#1244,.T.);
#1246=ADVANCED_FACE('',(#1245),#1239,.T.);
#1247=CARTESIAN_POINT('',(2.,-10.5,-0.5));
#1248=DIRECTION('',(-1.,0.,0.));
#1249=DIRECTION('',(0.,0.,1.));
#1250=AXIS2_PLACEMENT_3D('',#1247,#1248,#1249);
#1251=PLANE('',#1250);
#1252=ORIENTED_EDGE('',*,*,#646,.T.);
#1253=CARTESIAN_POINT('',(2.,-13.5,0.));
#1254=DIRECTION('',(0.,0.,1.));
#1255=VECTOR('',#1254,1.4);
#1256=LINE('',#1253,#1255);
#1257=EDGE_CURVE('',#632,#255,#1256,.T.);
#1258=ORIENTED_EDGE('',*,*,#1257,.T.);
#1259=ORIENTED_EDGE('',*,*,#260,.F.);
#1260=CARTESIAN_POINT('',(2.,-8.5,0.));
#1261=DIRECTION('',(0.,0.,1.));
#1262=VECTOR('',#1261,1.4);
#1263=LINE('',#1260,#1262);
#1264=EDGE_CURVE('',#641,#253,#1263,.T.);
#1265=ORIENTED_EDGE('',*,*,#1264,.F.);
#1266=EDGE_LOOP('',(#1252,#1258,#1259,#1265));
#1267=FACE_BOUND('',#1266,.T.);
#1268=ADVANCED_FACE('',(#1267),#1251,.T.);
#1269=CARTESIAN_POINT('',(-0.,-8.5,-0.5));
#1270=DIRECTION('',(0.,-1.,0.));
#1271=DIRECTION('',(0.,0.,-1.));
#1272=AXIS2_PLACEMENT_3D('',#1269,#1270,#1271);
#1273=PLANE('',#1272);
#1274=ORIENTED_EDGE('',*,*,#654,.T.);
#1275=ORIENTED_EDGE('',*,*,#1264,.T.);
#1276=ORIENTED_EDGE('',*,*,#493,.F.);
#1277=CARTESIAN_POINT('',(-2.,-8.5,0.));
#1278=DIRECTION('',(0.,0.,1.));
#1279=VECTOR('',#1278,1.4);
#1280=LINE('',#1277,#1279);
#1281=EDGE_CURVE('',#649,#482,#1280,.T.);
#1282=ORIENTED_EDGE('',*,*,#1281,.F.);
#1283=EDGE_LOOP('',(#1274,#1275,#1276,#1282));
#1284=FACE_BOUND('',#1283,.T.);
#1285=ADVANCED_FACE('',(#1284),#1273,.T.);
#1286=CARTESIAN_POINT('',(-2.,-10.5,-0.5));
#1287=DIRECTION('',(1.,0.,0.));
#1288=DIRECTION('',(0.,0.,-1.));
#1289=AXIS2_PLACEMENT_3D('',#1286,#1287,#1288);
#1290=PLANE('',#1289);
#1291=ORIENTED_EDGE('',*,*,#487,.F.);
#1292=CARTESIAN_POINT('',(-2.,-13.5,1.4));
#1293=DIRECTION('',(-0.,-0.,-1.));
#1294=VECTOR('',#1293,1.4);
#1295=LINE('',#1292,#1294);
#1296=EDGE_CURVE('',#473,#657,#1295,.T.);
#1297=ORIENTED_EDGE('',*,*,#1296,.T.);
#1298=ORIENTED_EDGE('',*,*,#662,.T.);
#1299=ORIENTED_EDGE('',*,*,#1281,.T.);
#1300=EDGE_LOOP('',(#1291,#1297,#1298,#1299));
#1301=FACE_BOUND('',#1300,.T.);
#1302=ADVANCED_FACE('',(#1301),#1290,.T.);
#1303=CARTESIAN_POINT('',(20.,11.5,0.));
#1304=DIRECTION('',(0.,0.,1.));
#1305=DIRECTION('',(1.,0.,-0.));
#1306=AXIS2_PLACEMENT_3D('',#1303,#1304,#1305);
#1307=CYLINDRICAL_SURFACE('',#1306,1.5);
#1308=CARTESIAN_POINT('',(21.5,11.5,6.4));
#1309=VERTEX_POINT('',#1308);
#1310=CARTESIAN_POINT('',(21.5,11.5,6.4));
#1311=DIRECTION('',(-0.,-0.,-1.));
#1312=VECTOR('',#1311,6.4);
#1313=LINE('',#1310,#1312);
#1314=EDGE_CURVE('',#1309,#526,#1313,.T.);
#1315=ORIENTED_EDGE('',*,*,#1314,.F.);
#1316=CARTESIAN_POINT('',(20.,11.5,6.4));
#1317=DIRECTION('',(0.,0.,1.));
#1318=DIRECTION('',(1.,0.,-0.));
#1319=AXIS2_PLACEMENT_3D('',#1316,#1317,#1318);
#1320=CIRCLE('',#1319,1.5);
#1321=EDGE_CURVE('',#1309,#1309,#1320,.T.);
#1322=ORIENTED_EDGE('',*,*,#1321,.T.);
#1323=ORIENTED_EDGE('',*,*,#1314,.T.);
#1324=ORIENTED_EDGE('',*,*,#532,.F.);
#1325=EDGE_LOOP('',(#1315,#1322,#1323,#1324));
#1326=FACE_BOUND('',#1325,.T.);
#1327=ADVANCED_FACE('',(#1326),#1307,.F.);
#1328=CARTESIAN_POINT('',(-20.,11.5,0.));
#1329=DIRECTION('',(0.,0.,1.));
#1330=DIRECTION('',(1.,0.,-0.));
#1331=AXIS2_PLACEMENT_3D('',#1328,#1329,#1330);
#1332=CYLINDRICAL_SURFACE('',#1331,1.5);
#1333=CARTESIAN_POINT('',(-18.5,11.5,6.4));
#1334=DIRECTION('',(-0.,-0.,-1.));
#1335=VECTOR('',#1334,6.4);
#1336=LINE('',#1333,#1335);
#1337=EDGE_CURVE('',#131,#515,#1336,.T.);
#1338=ORIENTED_EDGE('',*,*,#1337,.F.);
#1339=ORIENTED_EDGE('',*,*,#137,.T.);
#1340=ORIENTED_EDGE('',*,*,#1337,.T.);
#1341=ORIENTED_EDGE('',*,*,#521,.F.);
#1342=EDGE_LOOP('',(#1338,#1339,#1340,#1341));
#1343=FACE_BOUND('',#1342,.T.);
#1344=ADVANCED_FACE('',(#1343),#1332,.F.);
#1345=CARTESIAN_POINT('',(-20.,-11.5,0.));
#1346=DIRECTION('',(0.,0.,1.));
#1347=DIRECTION('',(1.,0.,-0.));
#1348=AXIS2_PLACEMENT_3D('',#1345,#1346,#1347);
#1349=CYLINDRICAL_SURFACE('',#1348,1.5);
#1350=CARTESIAN_POINT('',(-18.5,-11.5,6.4));
#1351=DIRECTION('',(-0.,-0.,-1.));
#1352=VECTOR('',#1351,6.4);
#1353=LINE('',#1350,#1352);
#1354=EDGE_CURVE('',#142,#504,#1353,.T.);
#1355=ORIENTED_EDGE('',*,*,#1354,.F.);
#1356=ORIENTED_EDGE('',*,*,#148,.T.);
#1357=ORIENTED_EDGE('',*,*,#1354,.T.);
#1358=ORIENTED_EDGE('',*,*,#510,.F.);
#1359=EDGE_LOOP('',(#1355,#1356,#1357,#1358));
#1360=FACE_BOUND('',#1359,.T.);
#1361=ADVANCED_FACE('',(#1360),#1349,.F.);
#1362=CARTESIAN_POINT('',(17.9,-11.,0.));
#1363=DIRECTION('',(0.,0.,1.));
#1364=DIRECTION('',(1.,0.,-0.));
#1365=AXIS2_PLACEMENT_3D('',#1362,#1363,#1364);
#1366=CYLINDRICAL_SURFACE('',#1365,1.);
#1367=ORIENTED_EDGE('',*,*,#553,.F.);
#1368=ORIENTED_EDGE('',*,*,#1063,.F.);
#1369=CARTESIAN_POINT('',(17.9,-11.,6.4));
#1370=DIRECTION('',(0.,0.,1.));
#1371=DIRECTION('',(1.,0.,-0.));
#1372=AXIS2_PLACEMENT_3D('',#1369,#1370,#1371);
#1373=CIRCLE('',#1372,1.);
#1374=EDGE_CURVE('',#1076,#1052,#1373,.T.);
#1375=ORIENTED_EDGE('',*,*,#1374,.F.);
#1376=ORIENTED_EDGE('',*,*,#1081,.F.);
#1377=EDGE_LOOP('',(#1367,#1368,#1375,#1376));
#1378=FACE_BOUND('',#1377,.T.);
#1379=ADVANCED_FACE('',(#1378),#1366,.T.);
#1380=CARTESIAN_POINT('',(0.,0.,5.5));
#1381=DIRECTION('',(0.,0.,-1.));
#1382=DIRECTION('',(-1.,0.,0.));
#1383=AXIS2_PLACEMENT_3D('',#1380,#1381,#1382);
#1384=CYLINDRICAL_SURFACE('',#1383,16.);
#1385=CARTESIAN_POINT('',(9.724225092,12.705882353,6.4));
#1386=VERTEX_POINT('',#1385);
#1387=CARTESIAN_POINT('',(0.,0.,6.4));
#1388=DIRECTION('',(0.,0.,1.));
#1389=DIRECTION('',(1.,0.,-0.));
#1390=AXIS2_PLACEMENT_3D('',#1387,#1388,#1389);
#1391=CIRCLE('',#1390,16.);
#1392=EDGE_CURVE('',#1108,#1386,#1391,.T.);
#1393=ORIENTED_EDGE('',*,*,#1392,.T.);
#1394=CARTESIAN_POINT('',(9.724225092,12.705882353,6.4));
#1395=DIRECTION('',(0.,0.,-1.));
#1396=VECTOR('',#1395,5.);
#1397=LINE('',#1394,#1396);
#1398=EDGE_CURVE('',#1386,#330,#1397,.T.);
#1399=ORIENTED_EDGE('',*,*,#1398,.T.);
#1400=ORIENTED_EDGE('',*,*,#336,.F.);
#1401=ORIENTED_EDGE('',*,*,#1119,.F.);
#1402=EDGE_LOOP('',(#1393,#1399,#1400,#1401));
#1403=FACE_BOUND('',#1402,.T.);
#1404=ADVANCED_FACE('',(#1403),#1384,.F.);
#1405=CARTESIAN_POINT('',(0.,0.,5.5));
#1406=DIRECTION('',(0.,0.,-1.));
#1407=DIRECTION('',(-1.,0.,0.));
#1408=AXIS2_PLACEMENT_3D('',#1405,#1406,#1407);
#1409=CYLINDRICAL_SURFACE('',#1408,16.);
#1410=ORIENTED_EDGE('',*,*,#295,.F.);
#1411=CARTESIAN_POINT('',(9.724225092,-12.705882353,6.4));
#1412=VERTEX_POINT('',#1411);
#1413=CARTESIAN_POINT('',(9.724225092,-12.705882353,1.4));
#1414=DIRECTION('',(-0.,-0.,1.));
#1415=VECTOR('',#1414,5.);
#1416=LINE('',#1413,#1415);
#1417=EDGE_CURVE('',#280,#1412,#1416,.T.);
#1418=ORIENTED_EDGE('',*,*,#1417,.T.);
#1419=CARTESIAN_POINT('',(0.,0.,6.4));
#1420=DIRECTION('',(0.,0.,1.));
#1421=DIRECTION('',(1.,0.,-0.));
#1422=AXIS2_PLACEMENT_3D('',#1419,#1420,#1421);
#1423=CIRCLE('',#1422,16.);
#1424=EDGE_CURVE('',#1412,#1174,#1423,.T.);
#1425=ORIENTED_EDGE('',*,*,#1424,.T.);
#1426=ORIENTED_EDGE('',*,*,#1179,.T.);
#1427=EDGE_LOOP('',(#1410,#1418,#1425,#1426));
#1428=FACE_BOUND('',#1427,.T.);
#1429=ADVANCED_FACE('',(#1428),#1409,.F.);
#1430=CARTESIAN_POINT('',(0.,0.,6.4));
#1431=DIRECTION('',(0.,0.,1.));
#1432=DIRECTION('',(1.,0.,0.));
#1433=AXIS2_PLACEMENT_3D('',#1430,#1431,#1432);
#1434=PLANE('',#1433);
#1435=ORIENTED_EDGE('',*,*,#1424,.F.);
#1436=CARTESIAN_POINT('',(9.33198916,-13.5,6.4));
#1437=VERTEX_POINT('',#1436);
#1438=CARTESIAN_POINT('',(10.33198916,-13.5,6.4));
#1439=DIRECTION('',(0.,0.,1.));
#1440=DIRECTION('',(1.,0.,-0.));
#1441=AXIS2_PLACEMENT_3D('',#1438,#1439,#1440);
#1442=CIRCLE('',#1441,1.);
#1443=EDGE_CURVE('',#1412,#1437,#1442,.T.);
#1444=ORIENTED_EDGE('',*,*,#1443,.T.);
#1445=CARTESIAN_POINT('',(10.33198916,-13.5,6.4));
#1446=DIRECTION('',(0.,0.,1.));
#1447=DIRECTION('',(1.,0.,-0.));
#1448=AXIS2_PLACEMENT_3D('',#1445,#1446,#1447);
#1449=CIRCLE('',#1448,1.);
#1450=EDGE_CURVE('',#1437,#67,#1449,.T.);
#1451=ORIENTED_EDGE('',*,*,#1450,.T.);
#1452=ORIENTED_EDGE('',*,*,#72,.F.);
#1453=CARTESIAN_POINT('',(20.,-11.5,6.4));
#1454=DIRECTION('',(0.,0.,1.));
#1455=DIRECTION('',(1.,0.,-0.));
#1456=AXIS2_PLACEMENT_3D('',#1453,#1454,#1455);
#1457=CIRCLE('',#1456,3.);
#1458=EDGE_CURVE('',#59,#845,#1457,.T.);
#1459=ORIENTED_EDGE('',*,*,#1458,.T.);
#1460=ORIENTED_EDGE('',*,*,#850,.F.);
#1461=CARTESIAN_POINT('',(20.,11.5,6.4));
#1462=DIRECTION('',(0.,0.,1.));
#1463=DIRECTION('',(1.,0.,-0.));
#1464=AXIS2_PLACEMENT_3D('',#1461,#1462,#1463);
#1465=CIRCLE('',#1464,3.);
#1466=EDGE_CURVE('',#837,#814,#1465,.T.);
#1467=ORIENTED_EDGE('',*,*,#1466,.T.);
#1468=ORIENTED_EDGE('',*,*,#819,.F.);
#1469=CARTESIAN_POINT('',(9.33198916,13.5,6.4));
#1470=VERTEX_POINT('',#1469);
#1471=CARTESIAN_POINT('',(10.33198916,13.5,6.4));
#1472=DIRECTION('',(0.,0.,1.));
#1473=DIRECTION('',(1.,0.,-0.));
#1474=AXIS2_PLACEMENT_3D('',#1471,#1472,#1473);
#1475=CIRCLE('',#1474,1.);
#1476=EDGE_CURVE('',#806,#1470,#1475,.T.);
#1477=ORIENTED_EDGE('',*,*,#1476,.T.);
#1478=CARTESIAN_POINT('',(10.33198916,13.5,6.4));
#1479=DIRECTION('',(0.,0.,1.));
#1480=DIRECTION('',(1.,0.,-0.));
#1481=AXIS2_PLACEMENT_3D('',#1478,#1479,#1480);
#1482=CIRCLE('',#1481,1.);
#1483=EDGE_CURVE('',#1470,#1386,#1482,.T.);
#1484=ORIENTED_EDGE('',*,*,#1483,.T.);
#1485=ORIENTED_EDGE('',*,*,#1392,.F.);
#1486=ORIENTED_EDGE('',*,*,#1113,.T.);
#1487=ORIENTED_EDGE('',*,*,#1185,.T.);
#1488=EDGE_LOOP('',(#1435,#1444,#1451,#1452,#1459,#1460,#1467,#1468,#1477,#1484,#1485,#1486,#1487));
#1489=FACE_BOUND('',#1488,.T.);
#1490=ORIENTED_EDGE('',*,*,#1321,.F.);
#1491=EDGE_LOOP('',(#1490));
#1492=FACE_BOUND('',#1491,.T.);
#1493=ORIENTED_EDGE('',*,*,#1009,.T.);
#1494=ORIENTED_EDGE('',*,*,#985,.T.);
#1495=ORIENTED_EDGE('',*,*,#961,.F.);
#1496=ORIENTED_EDGE('',*,*,#1087,.T.);
#1497=ORIENTED_EDGE('',*,*,#1374,.T.);
#1498=ORIENTED_EDGE('',*,*,#1057,.T.);
#1499=ORIENTED_EDGE('',*,*,#1033,.T.);
#1500=EDGE_LOOP('',(#1493,#1494,#1495,#1496,#1497,#1498,#1499));
#1501=FACE_BOUND('',#1500,.T.);
#1502=ADVANCED_FACE('',(#1489,#1492,#1501),#1434,.T.);
#1503=CARTESIAN_POINT('',(0.,0.,5.5));
#1504=DIRECTION('',(0.,0.,-1.));
#1505=DIRECTION('',(-1.,0.,0.));
#1506=AXIS2_PLACEMENT_3D('',#1503,#1504,#1505);
#1507=CYLINDRICAL_SURFACE('',#1506,16.);
#1508=CARTESIAN_POINT('',(-15.198684154,5.,1.4));
#1509=DIRECTION('',(0.,0.,1.));
#1510=VECTOR('',#1509,5.);
#1511=LINE('',#1508,#1510);
#1512=EDGE_CURVE('',#424,#163,#1511,.T.);
#1513=ORIENTED_EDGE('',*,*,#1512,.F.);
#1514=ORIENTED_EDGE('',*,*,#430,.F.);
#1515=CARTESIAN_POINT('',(-9.724225092,12.705882353,1.4));
#1516=DIRECTION('',(-0.,-0.,1.));
#1517=VECTOR('',#1516,5.);
#1518=LINE('',#1515,#1517);
#1519=EDGE_CURVE('',#415,#171,#1518,.T.);
#1520=ORIENTED_EDGE('',*,*,#1519,.T.);
#1521=ORIENTED_EDGE('',*,*,#177,.T.);
#1522=EDGE_LOOP('',(#1513,#1514,#1520,#1521));
#1523=FACE_BOUND('',#1522,.T.);
#1524=ADVANCED_FACE('',(#1523),#1507,.F.);
#1525=CARTESIAN_POINT('',(20.,-11.5,1.5));
#1526=DIRECTION('',(0.,0.,-1.));
#1527=DIRECTION('',(-1.,0.,0.));
#1528=AXIS2_PLACEMENT_3D('',#1525,#1526,#1527);
#1529=CYLINDRICAL_SURFACE('',#1528,3.);
#1530=ORIENTED_EDGE('',*,*,#1458,.F.);
#1531=ORIENTED_EDGE('',*,*,#64,.F.);
#1532=ORIENTED_EDGE('',*,*,#787,.F.);
#1533=ORIENTED_EDGE('',*,*,#856,.F.);
#1534=EDGE_LOOP('',(#1530,#1531,#1532,#1533));
#1535=FACE_BOUND('',#1534,.T.);
#1536=ADVANCED_FACE('',(#1535),#1529,.T.);
#1537=CARTESIAN_POINT('',(20.,11.5,1.5));
#1538=DIRECTION('',(0.,0.,-1.));
#1539=DIRECTION('',(-1.,0.,0.));
#1540=AXIS2_PLACEMENT_3D('',#1537,#1538,#1539);
#1541=CYLINDRICAL_SURFACE('',#1540,3.);
#1542=ORIENTED_EDGE('',*,*,#1466,.F.);
#1543=ORIENTED_EDGE('',*,*,#842,.F.);
#1544=ORIENTED_EDGE('',*,*,#772,.F.);
#1545=ORIENTED_EDGE('',*,*,#825,.F.);
#1546=EDGE_LOOP('',(#1542,#1543,#1544,#1545));
#1547=FACE_BOUND('',#1546,.T.);
#1548=ADVANCED_FACE('',(#1547),#1541,.T.);
#1549=CARTESIAN_POINT('',(-20.,11.5,1.5));
#1550=DIRECTION('',(0.,0.,-1.));
#1551=DIRECTION('',(-1.,0.,0.));
#1552=AXIS2_PLACEMENT_3D('',#1549,#1550,#1551);
#1553=CYLINDRICAL_SURFACE('',#1552,3.);
#1554=ORIENTED_EDGE('',*,*,#203,.F.);
#1555=ORIENTED_EDGE('',*,*,#878,.F.);
#1556=ORIENTED_EDGE('',*,*,#705,.F.);
#1557=ORIENTED_EDGE('',*,*,#907,.F.);
#1558=EDGE_LOOP('',(#1554,#1555,#1556,#1557));
#1559=FACE_BOUND('',#1558,.T.);
#1560=ADVANCED_FACE('',(#1559),#1553,.T.);
#1561=CARTESIAN_POINT('',(-20.,-11.5,1.5));
#1562=DIRECTION('',(0.,0.,-1.));
#1563=DIRECTION('',(-1.,0.,0.));
#1564=AXIS2_PLACEMENT_3D('',#1561,#1562,#1563);
#1565=CYLINDRICAL_SURFACE('',#1564,3.);
#1566=ORIENTED_EDGE('',*,*,#220,.F.);
#1567=ORIENTED_EDGE('',*,*,#900,.F.);
#1568=ORIENTED_EDGE('',*,*,#688,.F.);
#1569=ORIENTED_EDGE('',*,*,#936,.F.);
#1570=EDGE_LOOP('',(#1566,#1567,#1568,#1569));
#1571=FACE_BOUND('',#1570,.T.);
#1572=ADVANCED_FACE('',(#1571),#1565,.T.);
#1573=CARTESIAN_POINT('',(10.33198916,-13.5,5.5));
#1574=DIRECTION('',(0.,0.,-1.));
#1575=DIRECTION('',(-1.,0.,0.));
#1576=AXIS2_PLACEMENT_3D('',#1573,#1574,#1575);
#1577=CYLINDRICAL_SURFACE('',#1576,1.);
#1578=CARTESIAN_POINT('',(9.33198916,-13.5,1.4));
#1579=DIRECTION('',(-0.,-0.,1.));
#1580=VECTOR('',#1579,5.);
#1581=LINE('',#1578,#1580);
#1582=EDGE_CURVE('',#271,#1437,#1581,.T.);
#1583=ORIENTED_EDGE('',*,*,#1582,.T.);
#1584=ORIENTED_EDGE('',*,*,#1443,.F.);
#1585=ORIENTED_EDGE('',*,*,#1417,.F.);
#1586=ORIENTED_EDGE('',*,*,#286,.F.);
#1587=EDGE_LOOP('',(#1583,#1584,#1585,#1586));
#1588=FACE_BOUND('',#1587,.T.);
#1589=ADVANCED_FACE('',(#1588),#1577,.T.);
#1590=CARTESIAN_POINT('',(10.33198916,13.5,5.5));
#1591=DIRECTION('',(0.,0.,-1.));
#1592=DIRECTION('',(-1.,0.,0.));
#1593=AXIS2_PLACEMENT_3D('',#1590,#1591,#1592);
#1594=CYLINDRICAL_SURFACE('',#1593,1.);
#1595=CARTESIAN_POINT('',(9.33198916,13.5,1.4));
#1596=DIRECTION('',(-0.,-0.,1.));
#1597=VECTOR('',#1596,5.);
#1598=LINE('',#1595,#1597);
#1599=EDGE_CURVE('',#339,#1470,#1598,.T.);
#1600=ORIENTED_EDGE('',*,*,#1599,.T.);
#1601=ORIENTED_EDGE('',*,*,#1476,.F.);
#1602=ORIENTED_EDGE('',*,*,#811,.F.);
#1603=ORIENTED_EDGE('',*,*,#354,.F.);
#1604=EDGE_LOOP('',(#1600,#1601,#1602,#1603));
#1605=FACE_BOUND('',#1604,.T.);
#1606=ADVANCED_FACE('',(#1605),#1594,.T.);
#1607=CARTESIAN_POINT('',(-10.33198916,13.5,5.5));
#1608=DIRECTION('',(0.,0.,-1.));
#1609=DIRECTION('',(-1.,0.,0.));
#1610=AXIS2_PLACEMENT_3D('',#1607,#1608,#1609);
#1611=CYLINDRICAL_SURFACE('',#1610,1.);
#1612=ORIENTED_EDGE('',*,*,#186,.F.);
#1613=ORIENTED_EDGE('',*,*,#1519,.F.);
#1614=ORIENTED_EDGE('',*,*,#421,.F.);
#1615=ORIENTED_EDGE('',*,*,#885,.F.);
#1616=EDGE_LOOP('',(#1612,#1613,#1614,#1615));
#1617=FACE_BOUND('',#1616,.T.);
#1618=ADVANCED_FACE('',(#1617),#1611,.T.);
#1619=CARTESIAN_POINT('',(-10.33198916,-13.5,5.5));
#1620=DIRECTION('',(0.,0.,-1.));
#1621=DIRECTION('',(-1.,0.,0.));
#1622=AXIS2_PLACEMENT_3D('',#1619,#1620,#1621);
#1623=CYLINDRICAL_SURFACE('',#1622,1.);
#1624=ORIENTED_EDGE('',*,*,#235,.F.);
#1625=ORIENTED_EDGE('',*,*,#929,.F.);
#1626=ORIENTED_EDGE('',*,*,#462,.F.);
#1627=ORIENTED_EDGE('',*,*,#120,.F.);
#1628=EDGE_LOOP('',(#1624,#1625,#1626,#1627));
#1629=FACE_BOUND('',#1628,.T.);
#1630=ADVANCED_FACE('',(#1629),#1623,.T.);
#1631=CARTESIAN_POINT('',(-7.2,13.5,-0.5));
#1632=DIRECTION('',(0.,0.,1.));
#1633=DIRECTION('',(1.,0.,-0.));
#1634=AXIS2_PLACEMENT_3D('',#1631,#1632,#1633);
#1635=CYLINDRICAL_SURFACE('',#1634,1.);
#1636=ORIENTED_EDGE('',*,*,#722,.F.);
#1637=ORIENTED_EDGE('',*,*,#871,.F.);
#1638=ORIENTED_EDGE('',*,*,#404,.F.);
#1639=ORIENTED_EDGE('',*,*,#1223,.F.);
#1640=EDGE_LOOP('',(#1636,#1637,#1638,#1639));
#1641=FACE_BOUND('',#1640,.T.);
#1642=ADVANCED_FACE('',(#1641),#1635,.T.);
#1643=CARTESIAN_POINT('',(7.2,13.5,1.5));
#1644=DIRECTION('',(0.,0.,1.));
#1645=DIRECTION('',(1.,0.,-0.));
#1646=AXIS2_PLACEMENT_3D('',#1643,#1644,#1645);
#1647=CYLINDRICAL_SURFACE('',#1646,1.);
#1648=ORIENTED_EDGE('',*,*,#755,.F.);
#1649=ORIENTED_EDGE('',*,*,#1201,.F.);
#1650=ORIENTED_EDGE('',*,*,#371,.F.);
#1651=ORIENTED_EDGE('',*,*,#802,.F.);
#1652=EDGE_LOOP('',(#1648,#1649,#1650,#1651));
#1653=FACE_BOUND('',#1652,.T.);
#1654=ADVANCED_FACE('',(#1653),#1647,.T.);
#1655=CARTESIAN_POINT('',(-16.,5.,1.5));
#1656=DIRECTION('',(0.,-1.,0.));
#1657=DIRECTION('',(0.,0.,-1.));
#1658=AXIS2_PLACEMENT_3D('',#1655,#1656,#1657);
#1659=PLANE('',#1658);
#1660=ORIENTED_EDGE('',*,*,#168,.F.);
#1661=CARTESIAN_POINT('',(-18.,5.,1.4));
#1662=DIRECTION('',(0.,0.,1.));
#1663=VECTOR('',#1662,5.);
#1664=LINE('',#1661,#1663);
#1665=EDGE_CURVE('',#433,#155,#1664,.T.);
#1666=ORIENTED_EDGE('',*,*,#1665,.F.);
#1667=ORIENTED_EDGE('',*,*,#438,.T.);
#1668=ORIENTED_EDGE('',*,*,#1512,.T.);
#1669=EDGE_LOOP('',(#1660,#1666,#1667,#1668));
#1670=FACE_BOUND('',#1669,.T.);
#1671=ADVANCED_FACE('',(#1670),#1659,.T.);
#1672=CARTESIAN_POINT('',(-18.,0.,1.5));
#1673=DIRECTION('',(1.,0.,0.));
#1674=DIRECTION('',(0.,0.,-1.));
#1675=AXIS2_PLACEMENT_3D('',#1672,#1673,#1674);
#1676=PLANE('',#1675);
#1677=ORIENTED_EDGE('',*,*,#160,.F.);
#1678=CARTESIAN_POINT('',(-18.,-5.,1.4));
#1679=DIRECTION('',(0.,0.,1.));
#1680=VECTOR('',#1679,5.);
#1681=LINE('',#1678,#1680);
#1682=EDGE_CURVE('',#441,#153,#1681,.T.);
#1683=ORIENTED_EDGE('',*,*,#1682,.F.);
#1684=ORIENTED_EDGE('',*,*,#446,.T.);
#1685=ORIENTED_EDGE('',*,*,#1665,.T.);
#1686=EDGE_LOOP('',(#1677,#1683,#1684,#1685));
#1687=FACE_BOUND('',#1686,.T.);
#1688=ADVANCED_FACE('',(#1687),#1676,.T.);
#1689=CARTESIAN_POINT('',(-16.,-5.,1.5));
#1690=DIRECTION('',(-0.,1.,0.));
#1691=DIRECTION('',(-1.,-0.,0.));
#1692=AXIS2_PLACEMENT_3D('',#1689,#1690,#1691);
#1693=PLANE('',#1692);
#1694=ORIENTED_EDGE('',*,*,#242,.F.);
#1695=ORIENTED_EDGE('',*,*,#105,.F.);
#1696=ORIENTED_EDGE('',*,*,#452,.T.);
#1697=ORIENTED_EDGE('',*,*,#1682,.T.);
#1698=EDGE_LOOP('',(#1694,#1695,#1696,#1697));
#1699=FACE_BOUND('',#1698,.T.);
#1700=ADVANCED_FACE('',(#1699),#1693,.T.);
#1701=CARTESIAN_POINT('',(-3.,-13.5,1.5));
#1702=DIRECTION('',(0.,0.,1.));
#1703=DIRECTION('',(1.,0.,-0.));
#1704=AXIS2_PLACEMENT_3D('',#1701,#1702,#1703);
#1705=CYLINDRICAL_SURFACE('',#1704,1.);
#1706=ORIENTED_EDGE('',*,*,#671,.F.);
#1707=ORIENTED_EDGE('',*,*,#1296,.F.);
#1708=ORIENTED_EDGE('',*,*,#479,.F.);
#1709=ORIENTED_EDGE('',*,*,#922,.F.);
#1710=EDGE_LOOP('',(#1706,#1707,#1708,#1709));
#1711=FACE_BOUND('',#1710,.T.);
#1712=ADVANCED_FACE('',(#1711),#1705,.T.);
#1713=CARTESIAN_POINT('',(3.,-13.5,-0.5));
#1714=DIRECTION('',(0.,0.,1.));
#1715=DIRECTION('',(1.,0.,-0.));
#1716=AXIS2_PLACEMENT_3D('',#1713,#1714,#1715);
#1717=CYLINDRICAL_SURFACE('',#1716,1.);
#1718=ORIENTED_EDGE('',*,*,#638,.F.);
#1719=ORIENTED_EDGE('',*,*,#48,.F.);
#1720=ORIENTED_EDGE('',*,*,#267,.F.);
#1721=ORIENTED_EDGE('',*,*,#1257,.F.);
#1722=EDGE_LOOP('',(#1718,#1719,#1720,#1721));
#1723=FACE_BOUND('',#1722,.T.);
#1724=ADVANCED_FACE('',(#1723),#1717,.T.);
#1725=CARTESIAN_POINT('',(10.33198916,-13.5,5.5));
#1726=DIRECTION('',(0.,0.,-1.));
#1727=DIRECTION('',(-1.,0.,0.));
#1728=AXIS2_PLACEMENT_3D('',#1725,#1726,#1727);
#1729=CYLINDRICAL_SURFACE('',#1728,1.);
#1730=ORIENTED_EDGE('',*,*,#1582,.F.);
#1731=ORIENTED_EDGE('',*,*,#277,.F.);
#1732=ORIENTED_EDGE('',*,*,#78,.F.);
#1733=ORIENTED_EDGE('',*,*,#1450,.F.);
#1734=EDGE_LOOP('',(#1730,#1731,#1732,#1733));
#1735=FACE_BOUND('',#1734,.T.);
#1736=ADVANCED_FACE('',(#1735),#1729,.T.);
#1737=CARTESIAN_POINT('',(10.33198916,13.5,5.5));
#1738=DIRECTION('',(0.,0.,-1.));
#1739=DIRECTION('',(-1.,0.,0.));
#1740=AXIS2_PLACEMENT_3D('',#1737,#1738,#1739);
#1741=CYLINDRICAL_SURFACE('',#1740,1.);
#1742=ORIENTED_EDGE('',*,*,#1599,.F.);
#1743=ORIENTED_EDGE('',*,*,#345,.F.);
#1744=ORIENTED_EDGE('',*,*,#1398,.F.);
#1745=ORIENTED_EDGE('',*,*,#1483,.F.);
#1746=EDGE_LOOP('',(#1742,#1743,#1744,#1745));
#1747=FACE_BOUND('',#1746,.T.);
#1748=ADVANCED_FACE('',(#1747),#1741,.T.);
#1749=CLOSED_SHELL('',(#82,#124,#246,#497,#791,#829,#860,#889,#911,#940,#972,#996,#1020,#1044,#1068,#1092,#1130,#1147,#1164,#1190,#1212,#1234,#1246,#1268,#1285,#1302,
#1327,#1344,#1361,#1379,#1404,#1429,#1502,#1524,#1536,#1548,#1560,#1572,#1589,#1606,#1618,#1630,#1642,#1654,#1671,#1688,#1700,#1712,#1724,#1736,#1748));
#1750=MANIFOLD_SOLID_BREP('Body 01',#1749);
#1751=COLOUR_RGB('',0.494117647,0.494117647,0.525490224);
#1752=FILL_AREA_STYLE_COLOUR('',#1751);
#1753=FILL_AREA_STYLE('',(#1752));
#1754=SURFACE_STYLE_FILL_AREA(#1753);
#1755=SURFACE_SIDE_STYLE('',(#1754));
#1756=SURFACE_STYLE_USAGE(.BOTH.,#1755);
#1757=PRESENTATION_STYLE_ASSIGNMENT((#1756));
#26=STYLED_ITEM('',(#1757),#1750);
#16=SHAPE_REPRESENTATION('root',(#15),#10);
#17=ADVANCED_BREP_SHAPE_REPRESENTATION('root',(#1750),#10);
#1765=SHAPE_REPRESENTATION_RELATIONSHIP('','',#16,#17);
#1766=CARTESIAN_POINT('',(0.,0.,0.));
#1767=DIRECTION('',(0.,0.,1.));
#1768=DIRECTION('',(1.,0.,0.));
#1769=AXIS2_PLACEMENT_3D('',#1766,#1767,#1768);
#1771=MAPPED_ITEM('',#1770,#1769);
#1770=REPRESENTATION_MAP(#1769,#16);
#1772=APPLICATION_CONTEXT('Managed model based 3d engineering');
#1773=APPLICATION_PROTOCOL_DEFINITION('international standard','ap242_managed_model_based_3d_engineering',2014,#1772);
#1774=PRODUCT_CONTEXT('',#1772,'mechanical');
#1775=PRODUCT_DEFINITION_CONTEXT('part definition',#1772,'design');
#24=PRODUCT('root','root','',(#1774));
#1776=PRODUCT_RELATED_PRODUCT_CATEGORY('part','',(#24));
#1777=PRODUCT_DEFINITION_FORMATION_WITH_SPECIFIED_SOURCE('','',#24,.NOT_KNOWN.);
#25=PRODUCT_DEFINITION('design','',#1777,#1775);
#23=PRODUCT_DEFINITION_SHAPE('','',#25);
#1778=SHAPE_DEFINITION_REPRESENTATION(#23,#16);
#11=DRAUGHTING_MODEL('',(#1771),#10);
#1779=DESCRIPTIVE_REPRESENTATION_ITEM('KEY','/Users/milsagw1/Library/Containers/com.shapr3d.shapr/Data/tmp/6F723E6F-5C9A-4E5D-9A82-004CD13881D3.tmp');
#1780=PROPERTY_DEFINITION('KEY','',#25);
#1781=REPRESENTATION('',(#1779),#10);
#1782=PROPERTY_DEFINITION_REPRESENTATION(#1780,#1781);
#1783=GENERAL_PROPERTY('','KEY','');
#1784=GENERAL_PROPERTY_ASSOCIATION('','',#1783,#1780);
#1=MECHANICAL_DESIGN_GEOMETRIC_PRESENTATION_REPRESENTATION('',(#26),#10);
ENDSEC;
END-ISO-10303-21;
