ISO-10303-21;
HEADER;

/* File generated by Shapr3D Version 5.920.0.9294 */

FILE_DESCRIPTION(('HOOPS Exchange Step'),'2;1');

FILE_NAME('/Users/milsagw1/Library/Containers/com.shapr3d.shapr/Data/tmp/export/temp_export',
'2025-08-11T14:36:47-04:00',
('milsagw1'),
('Shapr3D Limited'),
'HOOPS Exchange 2025.5',
'Shapr3D',
'Authorized');

FILE_SCHEMA( ('AP242_MANAGED_MODEL_BASED_3D_ENGINEERING_MIM_LF {1 0 10303 442 1 1 4}') );

ENDSEC;

DATA;
#3=(NAMED_UNIT(*)PLANE_ANGLE_UNIT()SI_UNIT($,.RADIAN.));
#4=PLANE_ANGLE_MEASURE_WITH_UNIT(PLANE_ANGLE_MEASURE(0.0174532925),#3);
#5=(CONVERSION_BASED_UNIT('DEGREE',#4)NAMED_UNIT(#6)PLANE_ANGLE_UNIT());
#6=DIMENSIONAL_EXPONENTS(0.,0.,0.,0.,0.,0.,0.);
#7=(NAMED_UNIT(*)SI_UNIT($,.STERADIAN.)SOLID_ANGLE_UNIT());
#8=(LENGTH_UNIT()NAMED_UNIT(*)SI_UNIT(.MILLI.,.METRE.));
#9=UNCERTAINTY_MEASURE_WITH_UNIT(LENGTH_MEASURE(1.000000E-05),#8,'DISTANCE_ACCURACY_VALUE','Maximum Tolerance applied to model');
#10=(GEOMETRIC_REPRESENTATION_CONTEXT(3)GLOBAL_UNCERTAINTY_ASSIGNED_CONTEXT((#9))GLOBAL_UNIT_ASSIGNED_CONTEXT((#8,#5,#7))REPRESENTATION_CONTEXT('','root'));
#12=CARTESIAN_POINT('',(0.,0.,0.));
#13=DIRECTION('',(0.,0.,1.));
#14=DIRECTION('',(1.,0.,0.));
#15=AXIS2_PLACEMENT_3D('TS3D_PRODUCT_CSYS',#12,#13,#14);
#27=CARTESIAN_POINT('',(23.,0.,1.4));
#28=DIRECTION('',(1.,0.,0.));
#29=DIRECTION('',(-0.,1.,0.));
#30=AXIS2_PLACEMENT_3D('',#27,#28,#29);
#31=PLANE('',#30);
#32=CARTESIAN_POINT('',(23.,11.5,1.4));
#33=VERTEX_POINT('',#32);
#34=CARTESIAN_POINT('',(23.,-11.5,1.4));
#35=VERTEX_POINT('',#34);
#36=CARTESIAN_POINT('',(23.,11.5,1.4));
#37=DIRECTION('',(0.,-1.,0.));
#38=VECTOR('',#37,23.);
#39=LINE('',#36,#38);
#40=EDGE_CURVE('',#33,#35,#39,.T.);
#41=ORIENTED_EDGE('',*,*,#40,.T.);
#42=CARTESIAN_POINT('',(23.,-11.5,0.));
#43=VERTEX_POINT('',#42);
#44=CARTESIAN_POINT('',(23.,-11.5,1.4));
#45=DIRECTION('',(0.,0.,-1.));
#46=VECTOR('',#45,1.4);
#47=LINE('',#44,#46);
#48=EDGE_CURVE('',#35,#43,#47,.T.);
#49=ORIENTED_EDGE('',*,*,#48,.T.);
#50=CARTESIAN_POINT('',(23.,11.5,0.));
#51=VERTEX_POINT('',#50);
#52=CARTESIAN_POINT('',(23.,11.5,0.));
#53=DIRECTION('',(0.,-1.,0.));
#54=VECTOR('',#53,23.);
#55=LINE('',#52,#54);
#56=EDGE_CURVE('',#51,#43,#55,.T.);
#57=ORIENTED_EDGE('',*,*,#56,.F.);
#58=CARTESIAN_POINT('',(23.,11.5,0.));
#59=DIRECTION('',(-0.,-0.,1.));
#60=VECTOR('',#59,1.4);
#61=LINE('',#58,#60);
#62=EDGE_CURVE('',#51,#33,#61,.T.);
#63=ORIENTED_EDGE('',*,*,#62,.T.);
#64=EDGE_LOOP('',(#41,#49,#57,#63));
#65=FACE_BOUND('',#64,.T.);
#66=ADVANCED_FACE('',(#65),#31,.T.);
#67=CARTESIAN_POINT('',(-0.,14.5,1.4));
#68=DIRECTION('',(-0.,1.,0.));
#69=DIRECTION('',(-1.,-0.,0.));
#70=AXIS2_PLACEMENT_3D('',#67,#68,#69);
#71=PLANE('',#70);
#72=CARTESIAN_POINT('',(-20.,14.5,1.4));
#73=VERTEX_POINT('',#72);
#74=CARTESIAN_POINT('',(20.,14.5,1.4));
#75=VERTEX_POINT('',#74);
#76=CARTESIAN_POINT('',(-20.,14.5,1.4));
#77=DIRECTION('',(1.,0.,0.));
#78=VECTOR('',#77,40.);
#79=LINE('',#76,#78);
#80=EDGE_CURVE('',#73,#75,#79,.T.);
#81=ORIENTED_EDGE('',*,*,#80,.T.);
#82=CARTESIAN_POINT('',(20.,14.5,0.));
#83=VERTEX_POINT('',#82);
#84=CARTESIAN_POINT('',(20.,14.5,1.4));
#85=DIRECTION('',(0.,0.,-1.));
#86=VECTOR('',#85,1.4);
#87=LINE('',#84,#86);
#88=EDGE_CURVE('',#75,#83,#87,.T.);
#89=ORIENTED_EDGE('',*,*,#88,.T.);
#90=CARTESIAN_POINT('',(-20.,14.5,0.));
#91=VERTEX_POINT('',#90);
#92=CARTESIAN_POINT('',(-20.,14.5,0.));
#93=DIRECTION('',(1.,0.,0.));
#94=VECTOR('',#93,40.);
#95=LINE('',#92,#94);
#96=EDGE_CURVE('',#91,#83,#95,.T.);
#97=ORIENTED_EDGE('',*,*,#96,.F.);
#98=CARTESIAN_POINT('',(-20.,14.5,0.));
#99=DIRECTION('',(-0.,-0.,1.));
#100=VECTOR('',#99,1.4);
#101=LINE('',#98,#100);
#102=EDGE_CURVE('',#91,#73,#101,.T.);
#103=ORIENTED_EDGE('',*,*,#102,.T.);
#104=EDGE_LOOP('',(#81,#89,#97,#103));
#105=FACE_BOUND('',#104,.T.);
#106=ADVANCED_FACE('',(#105),#71,.T.);
#107=CARTESIAN_POINT('',(-23.,-0.,1.4));
#108=DIRECTION('',(-1.,-0.,0.));
#109=DIRECTION('',(0.,-1.,0.));
#110=AXIS2_PLACEMENT_3D('',#107,#108,#109);
#111=PLANE('',#110);
#112=CARTESIAN_POINT('',(-23.,-11.5,0.));
#113=VERTEX_POINT('',#112);
#114=CARTESIAN_POINT('',(-23.,11.5,0.));
#115=VERTEX_POINT('',#114);
#116=CARTESIAN_POINT('',(-23.,-11.5,0.));
#117=DIRECTION('',(-0.,1.,0.));
#118=VECTOR('',#117,23.);
#119=LINE('',#116,#118);
#120=EDGE_CURVE('',#113,#115,#119,.T.);
#121=ORIENTED_EDGE('',*,*,#120,.F.);
#122=CARTESIAN_POINT('',(-23.,-11.5,1.4));
#123=VERTEX_POINT('',#122);
#124=CARTESIAN_POINT('',(-23.,-11.5,0.));
#125=DIRECTION('',(-0.,-0.,1.));
#126=VECTOR('',#125,1.4);
#127=LINE('',#124,#126);
#128=EDGE_CURVE('',#113,#123,#127,.T.);
#129=ORIENTED_EDGE('',*,*,#128,.T.);
#130=CARTESIAN_POINT('',(-23.,11.5,1.4));
#131=VERTEX_POINT('',#130);
#132=CARTESIAN_POINT('',(-23.,-11.5,1.4));
#133=DIRECTION('',(-0.,1.,0.));
#134=VECTOR('',#133,23.);
#135=LINE('',#132,#134);
#136=EDGE_CURVE('',#123,#131,#135,.T.);
#137=ORIENTED_EDGE('',*,*,#136,.T.);
#138=CARTESIAN_POINT('',(-23.,11.5,1.4));
#139=DIRECTION('',(0.,0.,-1.));
#140=VECTOR('',#139,1.4);
#141=LINE('',#138,#140);
#142=EDGE_CURVE('',#131,#115,#141,.T.);
#143=ORIENTED_EDGE('',*,*,#142,.T.);
#144=EDGE_LOOP('',(#121,#129,#137,#143));
#145=FACE_BOUND('',#144,.T.);
#146=ADVANCED_FACE('',(#145),#111,.T.);
#147=CARTESIAN_POINT('',(-20.,-11.5,1.4));
#148=DIRECTION('',(0.,0.,-1.));
#149=DIRECTION('',(-1.,0.,0.));
#150=AXIS2_PLACEMENT_3D('',#147,#148,#149);
#151=CYLINDRICAL_SURFACE('',#150,1.5);
#152=CARTESIAN_POINT('',(-21.5,-11.5,0.));
#153=VERTEX_POINT('',#152);
#154=CARTESIAN_POINT('',(-21.5,-11.5,1.4));
#155=VERTEX_POINT('',#154);
#156=CARTESIAN_POINT('',(-21.5,-11.5,0.));
#157=DIRECTION('',(-0.,-0.,1.));
#158=VECTOR('',#157,1.4);
#159=LINE('',#156,#158);
#160=EDGE_CURVE('',#153,#155,#159,.T.);
#161=ORIENTED_EDGE('',*,*,#160,.F.);
#162=CARTESIAN_POINT('',(-18.5,-11.5,0.));
#163=VERTEX_POINT('',#162);
#164=CARTESIAN_POINT('',(-20.,-11.5,0.));
#165=DIRECTION('',(0.,0.,1.));
#166=DIRECTION('',(1.,0.,-0.));
#167=AXIS2_PLACEMENT_3D('',#164,#165,#166);
#168=CIRCLE('',#167,1.5);
#169=EDGE_CURVE('',#163,#153,#168,.T.);
#170=ORIENTED_EDGE('',*,*,#169,.F.);
#171=CARTESIAN_POINT('',(-20.,-11.5,0.));
#172=DIRECTION('',(0.,0.,1.));
#173=DIRECTION('',(1.,0.,-0.));
#174=AXIS2_PLACEMENT_3D('',#171,#172,#173);
#175=CIRCLE('',#174,1.5);
#176=EDGE_CURVE('',#153,#163,#175,.T.);
#177=ORIENTED_EDGE('',*,*,#176,.F.);
#178=ORIENTED_EDGE('',*,*,#160,.T.);
#179=CARTESIAN_POINT('',(-18.5,-11.5,1.4));
#180=VERTEX_POINT('',#179);
#181=CARTESIAN_POINT('',(-20.,-11.5,1.4));
#182=DIRECTION('',(0.,0.,1.));
#183=DIRECTION('',(1.,0.,-0.));
#184=AXIS2_PLACEMENT_3D('',#181,#182,#183);
#185=CIRCLE('',#184,1.5);
#186=EDGE_CURVE('',#155,#180,#185,.T.);
#187=ORIENTED_EDGE('',*,*,#186,.T.);
#188=CARTESIAN_POINT('',(-20.,-11.5,1.4));
#189=DIRECTION('',(0.,0.,1.));
#190=DIRECTION('',(1.,0.,-0.));
#191=AXIS2_PLACEMENT_3D('',#188,#189,#190);
#192=CIRCLE('',#191,1.5);
#193=EDGE_CURVE('',#180,#155,#192,.T.);
#194=ORIENTED_EDGE('',*,*,#193,.T.);
#195=EDGE_LOOP('',(#161,#170,#177,#178,#187,#194));
#196=FACE_BOUND('',#195,.T.);
#197=ADVANCED_FACE('',(#196),#151,.F.);
#198=CARTESIAN_POINT('',(-20.,11.5,1.4));
#199=DIRECTION('',(0.,0.,-1.));
#200=DIRECTION('',(-1.,0.,0.));
#201=AXIS2_PLACEMENT_3D('',#198,#199,#200);
#202=CYLINDRICAL_SURFACE('',#201,1.5);
#203=CARTESIAN_POINT('',(-21.5,11.5,0.));
#204=VERTEX_POINT('',#203);
#205=CARTESIAN_POINT('',(-21.5,11.5,1.4));
#206=VERTEX_POINT('',#205);
#207=CARTESIAN_POINT('',(-21.5,11.5,0.));
#208=DIRECTION('',(-0.,-0.,1.));
#209=VECTOR('',#208,1.4);
#210=LINE('',#207,#209);
#211=EDGE_CURVE('',#204,#206,#210,.T.);
#212=ORIENTED_EDGE('',*,*,#211,.F.);
#213=CARTESIAN_POINT('',(-18.5,11.5,0.));
#214=VERTEX_POINT('',#213);
#215=CARTESIAN_POINT('',(-20.,11.5,0.));
#216=DIRECTION('',(0.,0.,1.));
#217=DIRECTION('',(1.,0.,-0.));
#218=AXIS2_PLACEMENT_3D('',#215,#216,#217);
#219=CIRCLE('',#218,1.5);
#220=EDGE_CURVE('',#214,#204,#219,.T.);
#221=ORIENTED_EDGE('',*,*,#220,.F.);
#222=CARTESIAN_POINT('',(-20.,11.5,0.));
#223=DIRECTION('',(0.,0.,1.));
#224=DIRECTION('',(1.,0.,-0.));
#225=AXIS2_PLACEMENT_3D('',#222,#223,#224);
#226=CIRCLE('',#225,1.5);
#227=EDGE_CURVE('',#204,#214,#226,.T.);
#228=ORIENTED_EDGE('',*,*,#227,.F.);
#229=ORIENTED_EDGE('',*,*,#211,.T.);
#230=CARTESIAN_POINT('',(-18.5,11.5,1.4));
#231=VERTEX_POINT('',#230);
#232=CARTESIAN_POINT('',(-20.,11.5,1.4));
#233=DIRECTION('',(0.,0.,1.));
#234=DIRECTION('',(1.,0.,-0.));
#235=AXIS2_PLACEMENT_3D('',#232,#233,#234);
#236=CIRCLE('',#235,1.5);
#237=EDGE_CURVE('',#206,#231,#236,.T.);
#238=ORIENTED_EDGE('',*,*,#237,.T.);
#239=CARTESIAN_POINT('',(-20.,11.5,1.4));
#240=DIRECTION('',(0.,0.,1.));
#241=DIRECTION('',(1.,0.,-0.));
#242=AXIS2_PLACEMENT_3D('',#239,#240,#241);
#243=CIRCLE('',#242,1.5);
#244=EDGE_CURVE('',#231,#206,#243,.T.);
#245=ORIENTED_EDGE('',*,*,#244,.T.);
#246=EDGE_LOOP('',(#212,#221,#228,#229,#238,#245));
#247=FACE_BOUND('',#246,.T.);
#248=ADVANCED_FACE('',(#247),#202,.F.);
#249=CARTESIAN_POINT('',(20.,-11.5,1.4));
#250=DIRECTION('',(0.,0.,-1.));
#251=DIRECTION('',(-1.,0.,0.));
#252=AXIS2_PLACEMENT_3D('',#249,#250,#251);
#253=CYLINDRICAL_SURFACE('',#252,1.5);
#254=CARTESIAN_POINT('',(18.5,-11.5,0.));
#255=VERTEX_POINT('',#254);
#256=CARTESIAN_POINT('',(18.5,-11.5,1.4));
#257=VERTEX_POINT('',#256);
#258=CARTESIAN_POINT('',(18.5,-11.5,0.));
#259=DIRECTION('',(-0.,-0.,1.));
#260=VECTOR('',#259,1.4);
#261=LINE('',#258,#260);
#262=EDGE_CURVE('',#255,#257,#261,.T.);
#263=ORIENTED_EDGE('',*,*,#262,.F.);
#264=CARTESIAN_POINT('',(21.5,-11.5,0.));
#265=VERTEX_POINT('',#264);
#266=CARTESIAN_POINT('',(20.,-11.5,0.));
#267=DIRECTION('',(0.,0.,1.));
#268=DIRECTION('',(1.,0.,-0.));
#269=AXIS2_PLACEMENT_3D('',#266,#267,#268);
#270=CIRCLE('',#269,1.5);
#271=EDGE_CURVE('',#265,#255,#270,.T.);
#272=ORIENTED_EDGE('',*,*,#271,.F.);
#273=CARTESIAN_POINT('',(20.,-11.5,0.));
#274=DIRECTION('',(0.,0.,1.));
#275=DIRECTION('',(1.,0.,-0.));
#276=AXIS2_PLACEMENT_3D('',#273,#274,#275);
#277=CIRCLE('',#276,1.5);
#278=EDGE_CURVE('',#255,#265,#277,.T.);
#279=ORIENTED_EDGE('',*,*,#278,.F.);
#280=ORIENTED_EDGE('',*,*,#262,.T.);
#281=CARTESIAN_POINT('',(21.5,-11.5,1.4));
#282=VERTEX_POINT('',#281);
#283=CARTESIAN_POINT('',(20.,-11.5,1.4));
#284=DIRECTION('',(0.,0.,1.));
#285=DIRECTION('',(1.,0.,-0.));
#286=AXIS2_PLACEMENT_3D('',#283,#284,#285);
#287=CIRCLE('',#286,1.5);
#288=EDGE_CURVE('',#257,#282,#287,.T.);
#289=ORIENTED_EDGE('',*,*,#288,.T.);
#290=CARTESIAN_POINT('',(20.,-11.5,1.4));
#291=DIRECTION('',(0.,0.,1.));
#292=DIRECTION('',(1.,0.,-0.));
#293=AXIS2_PLACEMENT_3D('',#290,#291,#292);
#294=CIRCLE('',#293,1.5);
#295=EDGE_CURVE('',#282,#257,#294,.T.);
#296=ORIENTED_EDGE('',*,*,#295,.T.);
#297=EDGE_LOOP('',(#263,#272,#279,#280,#289,#296));
#298=FACE_BOUND('',#297,.T.);
#299=ADVANCED_FACE('',(#298),#253,.F.);
#300=CARTESIAN_POINT('',(20.,11.5,1.4));
#301=DIRECTION('',(0.,0.,-1.));
#302=DIRECTION('',(-1.,0.,0.));
#303=AXIS2_PLACEMENT_3D('',#300,#301,#302);
#304=CYLINDRICAL_SURFACE('',#303,1.5);
#305=CARTESIAN_POINT('',(18.5,11.5,0.));
#306=VERTEX_POINT('',#305);
#307=CARTESIAN_POINT('',(18.5,11.5,1.4));
#308=VERTEX_POINT('',#307);
#309=CARTESIAN_POINT('',(18.5,11.5,0.));
#310=DIRECTION('',(-0.,-0.,1.));
#311=VECTOR('',#310,1.4);
#312=LINE('',#309,#311);
#313=EDGE_CURVE('',#306,#308,#312,.T.);
#314=ORIENTED_EDGE('',*,*,#313,.F.);
#315=CARTESIAN_POINT('',(21.5,11.5,0.));
#316=VERTEX_POINT('',#315);
#317=CARTESIAN_POINT('',(20.,11.5,0.));
#318=DIRECTION('',(0.,0.,1.));
#319=DIRECTION('',(1.,0.,-0.));
#320=AXIS2_PLACEMENT_3D('',#317,#318,#319);
#321=CIRCLE('',#320,1.5);
#322=EDGE_CURVE('',#316,#306,#321,.T.);
#323=ORIENTED_EDGE('',*,*,#322,.F.);
#324=CARTESIAN_POINT('',(20.,11.5,0.));
#325=DIRECTION('',(0.,0.,1.));
#326=DIRECTION('',(1.,0.,-0.));
#327=AXIS2_PLACEMENT_3D('',#324,#325,#326);
#328=CIRCLE('',#327,1.5);
#329=EDGE_CURVE('',#306,#316,#328,.T.);
#330=ORIENTED_EDGE('',*,*,#329,.F.);
#331=ORIENTED_EDGE('',*,*,#313,.T.);
#332=CARTESIAN_POINT('',(21.5,11.5,1.4));
#333=VERTEX_POINT('',#332);
#334=CARTESIAN_POINT('',(20.,11.5,1.4));
#335=DIRECTION('',(0.,0.,1.));
#336=DIRECTION('',(1.,0.,-0.));
#337=AXIS2_PLACEMENT_3D('',#334,#335,#336);
#338=CIRCLE('',#337,1.5);
#339=EDGE_CURVE('',#308,#333,#338,.T.);
#340=ORIENTED_EDGE('',*,*,#339,.T.);
#341=CARTESIAN_POINT('',(20.,11.5,1.4));
#342=DIRECTION('',(0.,0.,1.));
#343=DIRECTION('',(1.,0.,-0.));
#344=AXIS2_PLACEMENT_3D('',#341,#342,#343);
#345=CIRCLE('',#344,1.5);
#346=EDGE_CURVE('',#333,#308,#345,.T.);
#347=ORIENTED_EDGE('',*,*,#346,.T.);
#348=EDGE_LOOP('',(#314,#323,#330,#331,#340,#347));
#349=FACE_BOUND('',#348,.T.);
#350=ADVANCED_FACE('',(#349),#304,.F.);
#351=CARTESIAN_POINT('',(0.,-14.5,1.4));
#352=DIRECTION('',(0.,-1.,0.));
#353=DIRECTION('',(1.,0.,0.));
#354=AXIS2_PLACEMENT_3D('',#351,#352,#353);
#355=PLANE('',#354);
#356=CARTESIAN_POINT('',(20.,-14.5,1.4));
#357=VERTEX_POINT('',#356);
#358=CARTESIAN_POINT('',(-20.,-14.5,1.4));
#359=VERTEX_POINT('',#358);
#360=CARTESIAN_POINT('',(20.,-14.5,1.4));
#361=DIRECTION('',(-1.,-0.,0.));
#362=VECTOR('',#361,40.);
#363=LINE('',#360,#362);
#364=EDGE_CURVE('',#357,#359,#363,.T.);
#365=ORIENTED_EDGE('',*,*,#364,.T.);
#366=CARTESIAN_POINT('',(-20.,-14.5,0.));
#367=VERTEX_POINT('',#366);
#368=CARTESIAN_POINT('',(-20.,-14.5,1.4));
#369=DIRECTION('',(0.,0.,-1.));
#370=VECTOR('',#369,1.4);
#371=LINE('',#368,#370);
#372=EDGE_CURVE('',#359,#367,#371,.T.);
#373=ORIENTED_EDGE('',*,*,#372,.T.);
#374=CARTESIAN_POINT('',(20.,-14.5,0.));
#375=VERTEX_POINT('',#374);
#376=CARTESIAN_POINT('',(20.,-14.5,0.));
#377=DIRECTION('',(-1.,-0.,0.));
#378=VECTOR('',#377,40.);
#379=LINE('',#376,#378);
#380=EDGE_CURVE('',#375,#367,#379,.T.);
#381=ORIENTED_EDGE('',*,*,#380,.F.);
#382=CARTESIAN_POINT('',(20.,-14.5,0.));
#383=DIRECTION('',(-0.,-0.,1.));
#384=VECTOR('',#383,1.4);
#385=LINE('',#382,#384);
#386=EDGE_CURVE('',#375,#357,#385,.T.);
#387=ORIENTED_EDGE('',*,*,#386,.T.);
#388=EDGE_LOOP('',(#365,#373,#381,#387));
#389=FACE_BOUND('',#388,.T.);
#390=ADVANCED_FACE('',(#389),#355,.T.);
#391=CARTESIAN_POINT('',(0.,0.,1.4));
#392=DIRECTION('',(0.,0.,1.));
#393=DIRECTION('',(1.,0.,0.));
#394=AXIS2_PLACEMENT_3D('',#391,#392,#393);
#395=PLANE('',#394);
#396=ORIENTED_EDGE('',*,*,#339,.F.);
#397=ORIENTED_EDGE('',*,*,#346,.F.);
#398=EDGE_LOOP('',(#396,#397));
#399=FACE_BOUND('',#398,.T.);
#400=ORIENTED_EDGE('',*,*,#288,.F.);
#401=ORIENTED_EDGE('',*,*,#295,.F.);
#402=EDGE_LOOP('',(#400,#401));
#403=FACE_BOUND('',#402,.T.);
#404=ORIENTED_EDGE('',*,*,#237,.F.);
#405=ORIENTED_EDGE('',*,*,#244,.F.);
#406=EDGE_LOOP('',(#404,#405));
#407=FACE_BOUND('',#406,.T.);
#408=ORIENTED_EDGE('',*,*,#186,.F.);
#409=ORIENTED_EDGE('',*,*,#193,.F.);
#410=EDGE_LOOP('',(#408,#409));
#411=FACE_BOUND('',#410,.T.);
#412=ORIENTED_EDGE('',*,*,#136,.F.);
#413=CARTESIAN_POINT('',(-20.,-11.5,1.4));
#414=DIRECTION('',(0.,0.,1.));
#415=DIRECTION('',(1.,0.,-0.));
#416=AXIS2_PLACEMENT_3D('',#413,#414,#415);
#417=CIRCLE('',#416,3.);
#418=EDGE_CURVE('',#123,#359,#417,.T.);
#419=ORIENTED_EDGE('',*,*,#418,.T.);
#420=ORIENTED_EDGE('',*,*,#364,.F.);
#421=CARTESIAN_POINT('',(20.,-11.5,1.4));
#422=DIRECTION('',(0.,0.,1.));
#423=DIRECTION('',(1.,0.,-0.));
#424=AXIS2_PLACEMENT_3D('',#421,#422,#423);
#425=CIRCLE('',#424,3.);
#426=EDGE_CURVE('',#357,#35,#425,.T.);
#427=ORIENTED_EDGE('',*,*,#426,.T.);
#428=ORIENTED_EDGE('',*,*,#40,.F.);
#429=CARTESIAN_POINT('',(20.,11.5,1.4));
#430=DIRECTION('',(0.,0.,1.));
#431=DIRECTION('',(1.,0.,-0.));
#432=AXIS2_PLACEMENT_3D('',#429,#430,#431);
#433=CIRCLE('',#432,3.);
#434=EDGE_CURVE('',#33,#75,#433,.T.);
#435=ORIENTED_EDGE('',*,*,#434,.T.);
#436=ORIENTED_EDGE('',*,*,#80,.F.);
#437=CARTESIAN_POINT('',(-20.,11.5,1.4));
#438=DIRECTION('',(0.,0.,1.));
#439=DIRECTION('',(1.,0.,-0.));
#440=AXIS2_PLACEMENT_3D('',#437,#438,#439);
#441=CIRCLE('',#440,3.);
#442=EDGE_CURVE('',#73,#131,#441,.T.);
#443=ORIENTED_EDGE('',*,*,#442,.T.);
#444=EDGE_LOOP('',(#412,#419,#420,#427,#428,#435,#436,#443));
#445=FACE_BOUND('',#444,.T.);
#446=ADVANCED_FACE('',(#399,#403,#407,#411,#445),#395,.T.);
#447=CARTESIAN_POINT('',(0.,0.,0.));
#448=DIRECTION('',(0.,0.,1.));
#449=DIRECTION('',(1.,0.,0.));
#450=AXIS2_PLACEMENT_3D('',#447,#448,#449);
#451=PLANE('',#450);
#452=ORIENTED_EDGE('',*,*,#322,.T.);
#453=ORIENTED_EDGE('',*,*,#329,.T.);
#454=EDGE_LOOP('',(#452,#453));
#455=FACE_BOUND('',#454,.T.);
#456=ORIENTED_EDGE('',*,*,#271,.T.);
#457=ORIENTED_EDGE('',*,*,#278,.T.);
#458=EDGE_LOOP('',(#456,#457));
#459=FACE_BOUND('',#458,.T.);
#460=ORIENTED_EDGE('',*,*,#220,.T.);
#461=ORIENTED_EDGE('',*,*,#227,.T.);
#462=EDGE_LOOP('',(#460,#461));
#463=FACE_BOUND('',#462,.T.);
#464=ORIENTED_EDGE('',*,*,#169,.T.);
#465=ORIENTED_EDGE('',*,*,#176,.T.);
#466=EDGE_LOOP('',(#464,#465));
#467=FACE_BOUND('',#466,.T.);
#468=ORIENTED_EDGE('',*,*,#380,.T.);
#469=CARTESIAN_POINT('',(-20.,-11.5,0.));
#470=DIRECTION('',(-0.,-0.,-1.));
#471=DIRECTION('',(1.,0.,-0.));
#472=AXIS2_PLACEMENT_3D('',#469,#470,#471);
#473=CIRCLE('',#472,3.);
#474=EDGE_CURVE('',#367,#113,#473,.T.);
#475=ORIENTED_EDGE('',*,*,#474,.T.);
#476=ORIENTED_EDGE('',*,*,#120,.T.);
#477=CARTESIAN_POINT('',(-20.,11.5,0.));
#478=DIRECTION('',(-0.,-0.,-1.));
#479=DIRECTION('',(1.,0.,-0.));
#480=AXIS2_PLACEMENT_3D('',#477,#478,#479);
#481=CIRCLE('',#480,3.);
#482=EDGE_CURVE('',#115,#91,#481,.T.);
#483=ORIENTED_EDGE('',*,*,#482,.T.);
#484=ORIENTED_EDGE('',*,*,#96,.T.);
#485=CARTESIAN_POINT('',(20.,11.5,0.));
#486=DIRECTION('',(-0.,-0.,-1.));
#487=DIRECTION('',(1.,0.,-0.));
#488=AXIS2_PLACEMENT_3D('',#485,#486,#487);
#489=CIRCLE('',#488,3.);
#490=EDGE_CURVE('',#83,#51,#489,.T.);
#491=ORIENTED_EDGE('',*,*,#490,.T.);
#492=ORIENTED_EDGE('',*,*,#56,.T.);
#493=CARTESIAN_POINT('',(20.,-11.5,0.));
#494=DIRECTION('',(-0.,-0.,-1.));
#495=DIRECTION('',(1.,0.,-0.));
#496=AXIS2_PLACEMENT_3D('',#493,#494,#495);
#497=CIRCLE('',#496,3.);
#498=EDGE_CURVE('',#43,#375,#497,.T.);
#499=ORIENTED_EDGE('',*,*,#498,.T.);
#500=EDGE_LOOP('',(#468,#475,#476,#483,#484,#491,#492,#499));
#501=FACE_BOUND('',#500,.T.);
#502=ADVANCED_FACE('',(#455,#459,#463,#467,#501),#451,.F.);
#503=CARTESIAN_POINT('',(-20.,-11.5,1.4));
#504=DIRECTION('',(0.,0.,-1.));
#505=DIRECTION('',(-1.,0.,0.));
#506=AXIS2_PLACEMENT_3D('',#503,#504,#505);
#507=CYLINDRICAL_SURFACE('',#506,3.);
#508=ORIENTED_EDGE('',*,*,#418,.F.);
#509=ORIENTED_EDGE('',*,*,#128,.F.);
#510=ORIENTED_EDGE('',*,*,#474,.F.);
#511=ORIENTED_EDGE('',*,*,#372,.F.);
#512=EDGE_LOOP('',(#508,#509,#510,#511));
#513=FACE_BOUND('',#512,.T.);
#514=ADVANCED_FACE('',(#513),#507,.T.);
#515=CARTESIAN_POINT('',(20.,-11.5,1.4));
#516=DIRECTION('',(0.,0.,-1.));
#517=DIRECTION('',(-1.,0.,0.));
#518=AXIS2_PLACEMENT_3D('',#515,#516,#517);
#519=CYLINDRICAL_SURFACE('',#518,3.);
#520=ORIENTED_EDGE('',*,*,#426,.F.);
#521=ORIENTED_EDGE('',*,*,#386,.F.);
#522=ORIENTED_EDGE('',*,*,#498,.F.);
#523=ORIENTED_EDGE('',*,*,#48,.F.);
#524=EDGE_LOOP('',(#520,#521,#522,#523));
#525=FACE_BOUND('',#524,.T.);
#526=ADVANCED_FACE('',(#525),#519,.T.);
#527=CARTESIAN_POINT('',(20.,11.5,1.4));
#528=DIRECTION('',(0.,0.,-1.));
#529=DIRECTION('',(-1.,0.,0.));
#530=AXIS2_PLACEMENT_3D('',#527,#528,#529);
#531=CYLINDRICAL_SURFACE('',#530,3.);
#532=ORIENTED_EDGE('',*,*,#434,.F.);
#533=ORIENTED_EDGE('',*,*,#62,.F.);
#534=ORIENTED_EDGE('',*,*,#490,.F.);
#535=ORIENTED_EDGE('',*,*,#88,.F.);
#536=EDGE_LOOP('',(#532,#533,#534,#535));
#537=FACE_BOUND('',#536,.T.);
#538=ADVANCED_FACE('',(#537),#531,.T.);
#539=CARTESIAN_POINT('',(-20.,11.5,1.4));
#540=DIRECTION('',(0.,0.,-1.));
#541=DIRECTION('',(-1.,0.,0.));
#542=AXIS2_PLACEMENT_3D('',#539,#540,#541);
#543=CYLINDRICAL_SURFACE('',#542,3.);
#544=ORIENTED_EDGE('',*,*,#442,.F.);
#545=ORIENTED_EDGE('',*,*,#102,.F.);
#546=ORIENTED_EDGE('',*,*,#482,.F.);
#547=ORIENTED_EDGE('',*,*,#142,.F.);
#548=EDGE_LOOP('',(#544,#545,#546,#547));
#549=FACE_BOUND('',#548,.T.);
#550=ADVANCED_FACE('',(#549),#543,.T.);
#551=CLOSED_SHELL('',(#66,#106,#146,#197,#248,#299,#350,#390,#446,#502,#514,#526,#538,#550));
#552=MANIFOLD_SOLID_BREP('Body 01',#551);
#553=COLOUR_RGB('',0.494117647,0.494117647,0.525490224);
#554=FILL_AREA_STYLE_COLOUR('',#553);
#555=FILL_AREA_STYLE('',(#554));
#556=SURFACE_STYLE_FILL_AREA(#555);
#557=SURFACE_SIDE_STYLE('',(#556));
#558=SURFACE_STYLE_USAGE(.BOTH.,#557);
#559=PRESENTATION_STYLE_ASSIGNMENT((#558));
#26=STYLED_ITEM('',(#559),#552);
#16=SHAPE_REPRESENTATION('root',(#15),#10);
#17=ADVANCED_BREP_SHAPE_REPRESENTATION('root',(#552),#10);
#567=SHAPE_REPRESENTATION_RELATIONSHIP('','',#16,#17);
#568=CARTESIAN_POINT('',(0.,0.,0.));
#569=DIRECTION('',(0.,0.,1.));
#570=DIRECTION('',(1.,0.,0.));
#571=AXIS2_PLACEMENT_3D('',#568,#569,#570);
#573=MAPPED_ITEM('',#572,#571);
#572=REPRESENTATION_MAP(#571,#16);
#574=APPLICATION_CONTEXT('Managed model based 3d engineering');
#575=APPLICATION_PROTOCOL_DEFINITION('international standard','ap242_managed_model_based_3d_engineering',2014,#574);
#576=PRODUCT_CONTEXT('',#574,'mechanical');
#577=PRODUCT_DEFINITION_CONTEXT('part definition',#574,'design');
#24=PRODUCT('root','root','',(#576));
#578=PRODUCT_RELATED_PRODUCT_CATEGORY('part','',(#24));
#579=PRODUCT_DEFINITION_FORMATION_WITH_SPECIFIED_SOURCE('','',#24,.NOT_KNOWN.);
#25=PRODUCT_DEFINITION('design','',#579,#577);
#23=PRODUCT_DEFINITION_SHAPE('','',#25);
#580=SHAPE_DEFINITION_REPRESENTATION(#23,#16);
#11=DRAUGHTING_MODEL('',(#573),#10);
#581=DESCRIPTIVE_REPRESENTATION_ITEM('KEY','/Users/milsagw1/Library/Containers/com.shapr3d.shapr/Data/tmp/CB6D69BF-EB15-4DF1-A976-E27123D70D67.tmp');
#582=PROPERTY_DEFINITION('KEY','',#25);
#583=REPRESENTATION('',(#581),#10);
#584=PROPERTY_DEFINITION_REPRESENTATION(#582,#583);
#585=GENERAL_PROPERTY('','KEY','');
#586=GENERAL_PROPERTY_ASSOCIATION('','',#585,#582);
#1=MECHANICAL_DESIGN_GEOMETRIC_PRESENTATION_REPRESENTATION('',(#26),#10);
ENDSEC;
END-ISO-10303-21;
