ISO-10303-21;
HEADER;

/* File generated by Shapr3D Version 5.920.0.9294 */

FILE_DESCRIPTION(('HOOPS Exchange Step'),'2;1');

FILE_NAME('/Users/milsagw1/Library/Containers/com.shapr3d.shapr/Data/tmp/export/temp_export',
'2025-08-11T14:36:16-04:00',
('milsagw1'),
('Shapr3D Limited'),
'HOOPS Exchange 2025.5',
'Shapr3D',
'Authorized');

FILE_SCHEMA( ('AP242_MANAGED_MODEL_BASED_3D_ENGINEERING_MIM_LF {1 0 10303 442 1 1 4}') );

ENDSEC;

DATA;
#3=(NAMED_UNIT(*)PLANE_ANGLE_UNIT()SI_UNIT($,.RADIAN.));
#4=PLANE_ANGLE_MEASURE_WITH_UNIT(PLANE_ANGLE_MEASURE(0.0174532925),#3);
#5=(CONVERSION_BASED_UNIT('DEGREE',#4)NAMED_UNIT(#6)PLANE_ANGLE_UNIT());
#6=DIMENSIONAL_EXPONENTS(0.,0.,0.,0.,0.,0.,0.);
#7=(NAMED_UNIT(*)SI_UNIT($,.STERADIAN.)SOLID_ANGLE_UNIT());
#8=(LENGTH_UNIT()NAMED_UNIT(*)SI_UNIT(.MILLI.,.METRE.));
#9=UNCERTAINTY_MEASURE_WITH_UNIT(LENGTH_MEASURE(1.000000E-05),#8,'DISTANCE_ACCURACY_VALUE','Maximum Tolerance applied to model');
#10=(GEOMETRIC_REPRESENTATION_CONTEXT(3)GLOBAL_UNCERTAINTY_ASSIGNED_CONTEXT((#9))GLOBAL_UNIT_ASSIGNED_CONTEXT((#8,#5,#7))REPRESENTATION_CONTEXT('','root'));
#12=CARTESIAN_POINT('',(0.,0.,0.));
#13=DIRECTION('',(0.,0.,1.));
#14=DIRECTION('',(1.,0.,0.));
#15=AXIS2_PLACEMENT_3D('TS3D_PRODUCT_CSYS',#12,#13,#14);
#27=CARTESIAN_POINT('',(0.,0.,1.4));
#28=DIRECTION('',(0.,0.,1.));
#29=DIRECTION('',(1.,0.,0.));
#30=AXIS2_PLACEMENT_3D('',#27,#28,#29);
#31=PLANE('',#30);
#32=CARTESIAN_POINT('',(-18.5,-11.5,1.4));
#33=VERTEX_POINT('',#32);
#34=CARTESIAN_POINT('',(-20.,-11.5,1.4));
#35=DIRECTION('',(0.,0.,1.));
#36=DIRECTION('',(1.,0.,-0.));
#37=AXIS2_PLACEMENT_3D('',#34,#35,#36);
#38=CIRCLE('',#37,1.5);
#39=EDGE_CURVE('',#33,#33,#38,.T.);
#40=ORIENTED_EDGE('',*,*,#39,.F.);
#41=EDGE_LOOP('',(#40));
#42=FACE_BOUND('',#41,.T.);
#43=CARTESIAN_POINT('',(-18.5,11.5,1.4));
#44=VERTEX_POINT('',#43);
#45=CARTESIAN_POINT('',(-20.,11.5,1.4));
#46=DIRECTION('',(0.,0.,1.));
#47=DIRECTION('',(1.,0.,-0.));
#48=AXIS2_PLACEMENT_3D('',#45,#46,#47);
#49=CIRCLE('',#48,1.5);
#50=EDGE_CURVE('',#44,#44,#49,.T.);
#51=ORIENTED_EDGE('',*,*,#50,.F.);
#52=EDGE_LOOP('',(#51));
#53=FACE_BOUND('',#52,.T.);
#54=CARTESIAN_POINT('',(20.,-14.5,1.4));
#55=VERTEX_POINT('',#54);
#56=CARTESIAN_POINT('',(-20.,-14.5,1.4));
#57=VERTEX_POINT('',#56);
#58=CARTESIAN_POINT('',(20.,-14.5,1.4));
#59=DIRECTION('',(-1.,-0.,0.));
#60=VECTOR('',#59,40.);
#61=LINE('',#58,#60);
#62=EDGE_CURVE('',#55,#57,#61,.T.);
#63=ORIENTED_EDGE('',*,*,#62,.F.);
#64=CARTESIAN_POINT('',(23.,-11.5,1.4));
#65=VERTEX_POINT('',#64);
#66=CARTESIAN_POINT('',(20.,-11.5,1.4));
#67=DIRECTION('',(0.,0.,1.));
#68=DIRECTION('',(1.,0.,-0.));
#69=AXIS2_PLACEMENT_3D('',#66,#67,#68);
#70=CIRCLE('',#69,3.);
#71=EDGE_CURVE('',#55,#65,#70,.T.);
#72=ORIENTED_EDGE('',*,*,#71,.T.);
#73=CARTESIAN_POINT('',(23.,11.5,1.4));
#74=VERTEX_POINT('',#73);
#75=CARTESIAN_POINT('',(23.,11.5,1.4));
#76=DIRECTION('',(0.,-1.,0.));
#77=VECTOR('',#76,23.);
#78=LINE('',#75,#77);
#79=EDGE_CURVE('',#74,#65,#78,.T.);
#80=ORIENTED_EDGE('',*,*,#79,.F.);
#81=CARTESIAN_POINT('',(20.,14.5,1.4));
#82=VERTEX_POINT('',#81);
#83=CARTESIAN_POINT('',(20.,11.5,1.4));
#84=DIRECTION('',(0.,0.,1.));
#85=DIRECTION('',(1.,0.,-0.));
#86=AXIS2_PLACEMENT_3D('',#83,#84,#85);
#87=CIRCLE('',#86,3.);
#88=EDGE_CURVE('',#74,#82,#87,.T.);
#89=ORIENTED_EDGE('',*,*,#88,.T.);
#90=CARTESIAN_POINT('',(-20.,14.5,1.4));
#91=VERTEX_POINT('',#90);
#92=CARTESIAN_POINT('',(-20.,14.5,1.4));
#93=DIRECTION('',(1.,0.,0.));
#94=VECTOR('',#93,40.);
#95=LINE('',#92,#94);
#96=EDGE_CURVE('',#91,#82,#95,.T.);
#97=ORIENTED_EDGE('',*,*,#96,.F.);
#98=CARTESIAN_POINT('',(-23.,11.5,1.4));
#99=VERTEX_POINT('',#98);
#100=CARTESIAN_POINT('',(-20.,11.5,1.4));
#101=DIRECTION('',(0.,0.,1.));
#102=DIRECTION('',(1.,0.,-0.));
#103=AXIS2_PLACEMENT_3D('',#100,#101,#102);
#104=CIRCLE('',#103,3.);
#105=EDGE_CURVE('',#91,#99,#104,.T.);
#106=ORIENTED_EDGE('',*,*,#105,.T.);
#107=CARTESIAN_POINT('',(-23.,-11.5,1.4));
#108=VERTEX_POINT('',#107);
#109=CARTESIAN_POINT('',(-23.,-11.5,1.4));
#110=DIRECTION('',(-0.,1.,0.));
#111=VECTOR('',#110,23.);
#112=LINE('',#109,#111);
#113=EDGE_CURVE('',#108,#99,#112,.T.);
#114=ORIENTED_EDGE('',*,*,#113,.F.);
#115=CARTESIAN_POINT('',(-20.,-11.5,1.4));
#116=DIRECTION('',(0.,0.,1.));
#117=DIRECTION('',(1.,0.,-0.));
#118=AXIS2_PLACEMENT_3D('',#115,#116,#117);
#119=CIRCLE('',#118,3.);
#120=EDGE_CURVE('',#108,#57,#119,.T.);
#121=ORIENTED_EDGE('',*,*,#120,.T.);
#122=EDGE_LOOP('',(#63,#72,#80,#89,#97,#106,#114,#121));
#123=FACE_BOUND('',#122,.T.);
#124=CARTESIAN_POINT('',(18.5,9.,1.4));
#125=VERTEX_POINT('',#124);
#126=CARTESIAN_POINT('',(18.5,-9.,1.4));
#127=VERTEX_POINT('',#126);
#128=CARTESIAN_POINT('',(18.5,9.,1.4));
#129=DIRECTION('',(0.,-1.,0.));
#130=VECTOR('',#129,18.);
#131=LINE('',#128,#130);
#132=EDGE_CURVE('',#125,#127,#131,.T.);
#133=ORIENTED_EDGE('',*,*,#132,.T.);
#134=CARTESIAN_POINT('',(19.5,-10.,1.4));
#135=VERTEX_POINT('',#134);
#136=CARTESIAN_POINT('',(19.5,-9.,1.4));
#137=DIRECTION('',(0.,0.,1.));
#138=DIRECTION('',(1.,0.,-0.));
#139=AXIS2_PLACEMENT_3D('',#136,#137,#138);
#140=CIRCLE('',#139,1.);
#141=EDGE_CURVE('',#127,#135,#140,.T.);
#142=ORIENTED_EDGE('',*,*,#141,.T.);
#143=CARTESIAN_POINT('',(20.,-10.,1.4));
#144=VERTEX_POINT('',#143);
#145=CARTESIAN_POINT('',(20.,-10.,1.4));
#146=DIRECTION('',(-1.,0.,0.));
#147=VECTOR('',#146,0.5);
#148=LINE('',#145,#147);
#149=EDGE_CURVE('',#144,#135,#148,.T.);
#150=ORIENTED_EDGE('',*,*,#149,.F.);
#151=CARTESIAN_POINT('',(21.5,-11.5,1.4));
#152=VERTEX_POINT('',#151);
#153=CARTESIAN_POINT('',(20.,-11.5,1.4));
#154=DIRECTION('',(0.,0.,1.));
#155=DIRECTION('',(1.,0.,-0.));
#156=AXIS2_PLACEMENT_3D('',#153,#154,#155);
#157=CIRCLE('',#156,1.5);
#158=EDGE_CURVE('',#152,#144,#157,.T.);
#159=ORIENTED_EDGE('',*,*,#158,.F.);
#160=CARTESIAN_POINT('',(20.,-13.,1.4));
#161=VERTEX_POINT('',#160);
#162=CARTESIAN_POINT('',(20.,-11.5,1.4));
#163=DIRECTION('',(0.,0.,1.));
#164=DIRECTION('',(1.,0.,-0.));
#165=AXIS2_PLACEMENT_3D('',#162,#163,#164);
#166=CIRCLE('',#165,1.5);
#167=EDGE_CURVE('',#161,#152,#166,.T.);
#168=ORIENTED_EDGE('',*,*,#167,.F.);
#169=CARTESIAN_POINT('',(-12.,-13.,1.4));
#170=VERTEX_POINT('',#169);
#171=CARTESIAN_POINT('',(-12.,-13.,1.4));
#172=DIRECTION('',(1.,0.,0.));
#173=VECTOR('',#172,32.);
#174=LINE('',#171,#173);
#175=EDGE_CURVE('',#170,#161,#174,.T.);
#176=ORIENTED_EDGE('',*,*,#175,.F.);
#177=CARTESIAN_POINT('',(-15.,-10.,1.4));
#178=VERTEX_POINT('',#177);
#179=CARTESIAN_POINT('',(-12.,-10.,1.4));
#180=DIRECTION('',(-0.,-0.,-1.));
#181=DIRECTION('',(1.,0.,-0.));
#182=AXIS2_PLACEMENT_3D('',#179,#180,#181);
#183=CIRCLE('',#182,3.);
#184=EDGE_CURVE('',#170,#178,#183,.T.);
#185=ORIENTED_EDGE('',*,*,#184,.T.);
#186=CARTESIAN_POINT('',(-15.,10.,1.4));
#187=VERTEX_POINT('',#186);
#188=CARTESIAN_POINT('',(-15.,-10.,1.4));
#189=DIRECTION('',(-0.,1.,0.));
#190=VECTOR('',#189,20.);
#191=LINE('',#188,#190);
#192=EDGE_CURVE('',#178,#187,#191,.T.);
#193=ORIENTED_EDGE('',*,*,#192,.T.);
#194=CARTESIAN_POINT('',(-12.,13.,1.4));
#195=VERTEX_POINT('',#194);
#196=CARTESIAN_POINT('',(-12.,10.,1.4));
#197=DIRECTION('',(-0.,-0.,-1.));
#198=DIRECTION('',(1.,0.,-0.));
#199=AXIS2_PLACEMENT_3D('',#196,#197,#198);
#200=CIRCLE('',#199,3.);
#201=EDGE_CURVE('',#187,#195,#200,.T.);
#202=ORIENTED_EDGE('',*,*,#201,.T.);
#203=CARTESIAN_POINT('',(20.,13.,1.4));
#204=VERTEX_POINT('',#203);
#205=CARTESIAN_POINT('',(-12.,13.,1.4));
#206=DIRECTION('',(1.,0.,0.));
#207=VECTOR('',#206,32.);
#208=LINE('',#205,#207);
#209=EDGE_CURVE('',#195,#204,#208,.T.);
#210=ORIENTED_EDGE('',*,*,#209,.T.);
#211=CARTESIAN_POINT('',(21.5,11.5,1.4));
#212=VERTEX_POINT('',#211);
#213=CARTESIAN_POINT('',(20.,11.5,1.4));
#214=DIRECTION('',(0.,0.,1.));
#215=DIRECTION('',(1.,0.,-0.));
#216=AXIS2_PLACEMENT_3D('',#213,#214,#215);
#217=CIRCLE('',#216,1.5);
#218=EDGE_CURVE('',#212,#204,#217,.T.);
#219=ORIENTED_EDGE('',*,*,#218,.F.);
#220=CARTESIAN_POINT('',(20.,10.,1.4));
#221=VERTEX_POINT('',#220);
#222=CARTESIAN_POINT('',(20.,11.5,1.4));
#223=DIRECTION('',(0.,0.,1.));
#224=DIRECTION('',(1.,0.,-0.));
#225=AXIS2_PLACEMENT_3D('',#222,#223,#224);
#226=CIRCLE('',#225,1.5);
#227=EDGE_CURVE('',#221,#212,#226,.T.);
#228=ORIENTED_EDGE('',*,*,#227,.F.);
#229=CARTESIAN_POINT('',(19.5,10.,1.4));
#230=VERTEX_POINT('',#229);
#231=CARTESIAN_POINT('',(20.,10.,1.4));
#232=DIRECTION('',(-1.,0.,0.));
#233=VECTOR('',#232,0.5);
#234=LINE('',#231,#233);
#235=EDGE_CURVE('',#221,#230,#234,.T.);
#236=ORIENTED_EDGE('',*,*,#235,.T.);
#237=CARTESIAN_POINT('',(19.5,9.,1.4));
#238=DIRECTION('',(0.,0.,1.));
#239=DIRECTION('',(1.,0.,-0.));
#240=AXIS2_PLACEMENT_3D('',#237,#238,#239);
#241=CIRCLE('',#240,1.);
#242=EDGE_CURVE('',#230,#125,#241,.T.);
#243=ORIENTED_EDGE('',*,*,#242,.T.);
#244=EDGE_LOOP('',(#133,#142,#150,#159,#168,#176,#185,#193,#202,#210,#219,#228,#236,#243));
#245=FACE_BOUND('',#244,.T.);
#246=ADVANCED_FACE('',(#42,#53,#123,#245),#31,.T.);
#247=CARTESIAN_POINT('',(0.,0.,0.));
#248=DIRECTION('',(0.,0.,1.));
#249=DIRECTION('',(1.,0.,0.));
#250=AXIS2_PLACEMENT_3D('',#247,#248,#249);
#251=PLANE('',#250);
#252=CARTESIAN_POINT('',(-18.5,-11.5,0.));
#253=VERTEX_POINT('',#252);
#254=CARTESIAN_POINT('',(-20.,-11.5,0.));
#255=DIRECTION('',(0.,0.,1.));
#256=DIRECTION('',(1.,0.,-0.));
#257=AXIS2_PLACEMENT_3D('',#254,#255,#256);
#258=CIRCLE('',#257,1.5);
#259=EDGE_CURVE('',#253,#253,#258,.T.);
#260=ORIENTED_EDGE('',*,*,#259,.T.);
#261=EDGE_LOOP('',(#260));
#262=FACE_BOUND('',#261,.T.);
#263=CARTESIAN_POINT('',(-18.5,11.5,0.));
#264=VERTEX_POINT('',#263);
#265=CARTESIAN_POINT('',(-20.,11.5,0.));
#266=DIRECTION('',(0.,0.,1.));
#267=DIRECTION('',(1.,0.,-0.));
#268=AXIS2_PLACEMENT_3D('',#265,#266,#267);
#269=CIRCLE('',#268,1.5);
#270=EDGE_CURVE('',#264,#264,#269,.T.);
#271=ORIENTED_EDGE('',*,*,#270,.T.);
#272=EDGE_LOOP('',(#271));
#273=FACE_BOUND('',#272,.T.);
#274=CARTESIAN_POINT('',(23.,11.5,0.));
#275=VERTEX_POINT('',#274);
#276=CARTESIAN_POINT('',(23.,-11.5,0.));
#277=VERTEX_POINT('',#276);
#278=CARTESIAN_POINT('',(23.,11.5,0.));
#279=DIRECTION('',(0.,-1.,0.));
#280=VECTOR('',#279,23.);
#281=LINE('',#278,#280);
#282=EDGE_CURVE('',#275,#277,#281,.T.);
#283=ORIENTED_EDGE('',*,*,#282,.T.);
#284=CARTESIAN_POINT('',(20.,-14.5,0.));
#285=VERTEX_POINT('',#284);
#286=CARTESIAN_POINT('',(20.,-11.5,0.));
#287=DIRECTION('',(-0.,-0.,-1.));
#288=DIRECTION('',(1.,0.,-0.));
#289=AXIS2_PLACEMENT_3D('',#286,#287,#288);
#290=CIRCLE('',#289,3.);
#291=EDGE_CURVE('',#277,#285,#290,.T.);
#292=ORIENTED_EDGE('',*,*,#291,.T.);
#293=CARTESIAN_POINT('',(-20.,-14.5,0.));
#294=VERTEX_POINT('',#293);
#295=CARTESIAN_POINT('',(20.,-14.5,0.));
#296=DIRECTION('',(-1.,-0.,0.));
#297=VECTOR('',#296,40.);
#298=LINE('',#295,#297);
#299=EDGE_CURVE('',#285,#294,#298,.T.);
#300=ORIENTED_EDGE('',*,*,#299,.T.);
#301=CARTESIAN_POINT('',(-23.,-11.5,0.));
#302=VERTEX_POINT('',#301);
#303=CARTESIAN_POINT('',(-20.,-11.5,0.));
#304=DIRECTION('',(-0.,-0.,-1.));
#305=DIRECTION('',(1.,0.,-0.));
#306=AXIS2_PLACEMENT_3D('',#303,#304,#305);
#307=CIRCLE('',#306,3.);
#308=EDGE_CURVE('',#294,#302,#307,.T.);
#309=ORIENTED_EDGE('',*,*,#308,.T.);
#310=CARTESIAN_POINT('',(-23.,11.5,0.));
#311=VERTEX_POINT('',#310);
#312=CARTESIAN_POINT('',(-23.,-11.5,0.));
#313=DIRECTION('',(-0.,1.,0.));
#314=VECTOR('',#313,23.);
#315=LINE('',#312,#314);
#316=EDGE_CURVE('',#302,#311,#315,.T.);
#317=ORIENTED_EDGE('',*,*,#316,.T.);
#318=CARTESIAN_POINT('',(-20.,14.5,0.));
#319=VERTEX_POINT('',#318);
#320=CARTESIAN_POINT('',(-20.,11.5,0.));
#321=DIRECTION('',(-0.,-0.,-1.));
#322=DIRECTION('',(1.,0.,-0.));
#323=AXIS2_PLACEMENT_3D('',#320,#321,#322);
#324=CIRCLE('',#323,3.);
#325=EDGE_CURVE('',#311,#319,#324,.T.);
#326=ORIENTED_EDGE('',*,*,#325,.T.);
#327=CARTESIAN_POINT('',(20.,14.5,0.));
#328=VERTEX_POINT('',#327);
#329=CARTESIAN_POINT('',(-20.,14.5,0.));
#330=DIRECTION('',(1.,0.,0.));
#331=VECTOR('',#330,40.);
#332=LINE('',#329,#331);
#333=EDGE_CURVE('',#319,#328,#332,.T.);
#334=ORIENTED_EDGE('',*,*,#333,.T.);
#335=CARTESIAN_POINT('',(20.,11.5,0.));
#336=DIRECTION('',(-0.,-0.,-1.));
#337=DIRECTION('',(1.,0.,-0.));
#338=AXIS2_PLACEMENT_3D('',#335,#336,#337);
#339=CIRCLE('',#338,3.);
#340=EDGE_CURVE('',#328,#275,#339,.T.);
#341=ORIENTED_EDGE('',*,*,#340,.T.);
#342=EDGE_LOOP('',(#283,#292,#300,#309,#317,#326,#334,#341));
#343=FACE_BOUND('',#342,.T.);
#344=CARTESIAN_POINT('',(20.,-10.,0.));
#345=VERTEX_POINT('',#344);
#346=CARTESIAN_POINT('',(19.5,-10.,0.));
#347=VERTEX_POINT('',#346);
#348=CARTESIAN_POINT('',(20.,-10.,0.));
#349=DIRECTION('',(-1.,0.,0.));
#350=VECTOR('',#349,0.5);
#351=LINE('',#348,#350);
#352=EDGE_CURVE('',#345,#347,#351,.T.);
#353=ORIENTED_EDGE('',*,*,#352,.T.);
#354=CARTESIAN_POINT('',(18.5,-9.,0.));
#355=VERTEX_POINT('',#354);
#356=CARTESIAN_POINT('',(19.5,-9.,0.));
#357=DIRECTION('',(-0.,-0.,-1.));
#358=DIRECTION('',(1.,0.,-0.));
#359=AXIS2_PLACEMENT_3D('',#356,#357,#358);
#360=CIRCLE('',#359,1.);
#361=EDGE_CURVE('',#347,#355,#360,.T.);
#362=ORIENTED_EDGE('',*,*,#361,.T.);
#363=CARTESIAN_POINT('',(18.5,9.,0.));
#364=VERTEX_POINT('',#363);
#365=CARTESIAN_POINT('',(18.5,9.,0.));
#366=DIRECTION('',(0.,-1.,0.));
#367=VECTOR('',#366,18.);
#368=LINE('',#365,#367);
#369=EDGE_CURVE('',#364,#355,#368,.T.);
#370=ORIENTED_EDGE('',*,*,#369,.F.);
#371=CARTESIAN_POINT('',(19.5,10.,0.));
#372=VERTEX_POINT('',#371);
#373=CARTESIAN_POINT('',(19.5,9.,0.));
#374=DIRECTION('',(-0.,-0.,-1.));
#375=DIRECTION('',(1.,0.,-0.));
#376=AXIS2_PLACEMENT_3D('',#373,#374,#375);
#377=CIRCLE('',#376,1.);
#378=EDGE_CURVE('',#364,#372,#377,.T.);
#379=ORIENTED_EDGE('',*,*,#378,.T.);
#380=CARTESIAN_POINT('',(20.,10.,0.));
#381=VERTEX_POINT('',#380);
#382=CARTESIAN_POINT('',(20.,10.,0.));
#383=DIRECTION('',(-1.,0.,0.));
#384=VECTOR('',#383,0.5);
#385=LINE('',#382,#384);
#386=EDGE_CURVE('',#381,#372,#385,.T.);
#387=ORIENTED_EDGE('',*,*,#386,.F.);
#388=CARTESIAN_POINT('',(21.5,11.5,0.));
#389=VERTEX_POINT('',#388);
#390=CARTESIAN_POINT('',(20.,11.5,0.));
#391=DIRECTION('',(0.,0.,1.));
#392=DIRECTION('',(1.,0.,-0.));
#393=AXIS2_PLACEMENT_3D('',#390,#391,#392);
#394=CIRCLE('',#393,1.5);
#395=EDGE_CURVE('',#381,#389,#394,.T.);
#396=ORIENTED_EDGE('',*,*,#395,.T.);
#397=CARTESIAN_POINT('',(20.,13.,0.));
#398=VERTEX_POINT('',#397);
#399=CARTESIAN_POINT('',(20.,11.5,0.));
#400=DIRECTION('',(0.,0.,1.));
#401=DIRECTION('',(1.,0.,-0.));
#402=AXIS2_PLACEMENT_3D('',#399,#400,#401);
#403=CIRCLE('',#402,1.5);
#404=EDGE_CURVE('',#389,#398,#403,.T.);
#405=ORIENTED_EDGE('',*,*,#404,.T.);
#406=CARTESIAN_POINT('',(-12.,13.,0.));
#407=VERTEX_POINT('',#406);
#408=CARTESIAN_POINT('',(-12.,13.,0.));
#409=DIRECTION('',(1.,0.,0.));
#410=VECTOR('',#409,32.);
#411=LINE('',#408,#410);
#412=EDGE_CURVE('',#407,#398,#411,.T.);
#413=ORIENTED_EDGE('',*,*,#412,.F.);
#414=CARTESIAN_POINT('',(-15.,10.,0.));
#415=VERTEX_POINT('',#414);
#416=CARTESIAN_POINT('',(-12.,10.,0.));
#417=DIRECTION('',(0.,0.,1.));
#418=DIRECTION('',(1.,0.,-0.));
#419=AXIS2_PLACEMENT_3D('',#416,#417,#418);
#420=CIRCLE('',#419,3.);
#421=EDGE_CURVE('',#407,#415,#420,.T.);
#422=ORIENTED_EDGE('',*,*,#421,.T.);
#423=CARTESIAN_POINT('',(-15.,-10.,0.));
#424=VERTEX_POINT('',#423);
#425=CARTESIAN_POINT('',(-15.,-10.,0.));
#426=DIRECTION('',(-0.,1.,0.));
#427=VECTOR('',#426,20.);
#428=LINE('',#425,#427);
#429=EDGE_CURVE('',#424,#415,#428,.T.);
#430=ORIENTED_EDGE('',*,*,#429,.F.);
#431=CARTESIAN_POINT('',(-12.,-13.,0.));
#432=VERTEX_POINT('',#431);
#433=CARTESIAN_POINT('',(-12.,-10.,0.));
#434=DIRECTION('',(0.,0.,1.));
#435=DIRECTION('',(1.,0.,-0.));
#436=AXIS2_PLACEMENT_3D('',#433,#434,#435);
#437=CIRCLE('',#436,3.);
#438=EDGE_CURVE('',#424,#432,#437,.T.);
#439=ORIENTED_EDGE('',*,*,#438,.T.);
#440=CARTESIAN_POINT('',(20.,-13.,0.));
#441=VERTEX_POINT('',#440);
#442=CARTESIAN_POINT('',(-12.,-13.,0.));
#443=DIRECTION('',(1.,0.,0.));
#444=VECTOR('',#443,32.);
#445=LINE('',#442,#444);
#446=EDGE_CURVE('',#432,#441,#445,.T.);
#447=ORIENTED_EDGE('',*,*,#446,.T.);
#448=CARTESIAN_POINT('',(21.5,-11.5,0.));
#449=VERTEX_POINT('',#448);
#450=CARTESIAN_POINT('',(20.,-11.5,0.));
#451=DIRECTION('',(0.,0.,1.));
#452=DIRECTION('',(1.,0.,-0.));
#453=AXIS2_PLACEMENT_3D('',#450,#451,#452);
#454=CIRCLE('',#453,1.5);
#455=EDGE_CURVE('',#441,#449,#454,.T.);
#456=ORIENTED_EDGE('',*,*,#455,.T.);
#457=CARTESIAN_POINT('',(20.,-11.5,0.));
#458=DIRECTION('',(0.,0.,1.));
#459=DIRECTION('',(1.,0.,-0.));
#460=AXIS2_PLACEMENT_3D('',#457,#458,#459);
#461=CIRCLE('',#460,1.5);
#462=EDGE_CURVE('',#449,#345,#461,.T.);
#463=ORIENTED_EDGE('',*,*,#462,.T.);
#464=EDGE_LOOP('',(#353,#362,#370,#379,#387,#396,#405,#413,#422,#430,#439,#447,#456,#463));
#465=FACE_BOUND('',#464,.T.);
#466=ADVANCED_FACE('',(#262,#273,#343,#465),#251,.F.);
#467=CARTESIAN_POINT('',(18.5,0.,0.));
#468=DIRECTION('',(-1.,0.,0.));
#469=DIRECTION('',(0.,0.,1.));
#470=AXIS2_PLACEMENT_3D('',#467,#468,#469);
#471=PLANE('',#470);
#472=ORIENTED_EDGE('',*,*,#369,.T.);
#473=CARTESIAN_POINT('',(18.5,-9.,0.));
#474=DIRECTION('',(0.,0.,1.));
#475=VECTOR('',#474,1.4);
#476=LINE('',#473,#475);
#477=EDGE_CURVE('',#355,#127,#476,.T.);
#478=ORIENTED_EDGE('',*,*,#477,.T.);
#479=ORIENTED_EDGE('',*,*,#132,.F.);
#480=CARTESIAN_POINT('',(18.5,9.,1.4));
#481=DIRECTION('',(-0.,-0.,-1.));
#482=VECTOR('',#481,1.4);
#483=LINE('',#480,#482);
#484=EDGE_CURVE('',#125,#364,#483,.T.);
#485=ORIENTED_EDGE('',*,*,#484,.T.);
#486=EDGE_LOOP('',(#472,#478,#479,#485));
#487=FACE_BOUND('',#486,.T.);
#488=ADVANCED_FACE('',(#487),#471,.T.);
#489=CARTESIAN_POINT('',(23.,0.,1.5));
#490=DIRECTION('',(1.,0.,0.));
#491=DIRECTION('',(-0.,1.,0.));
#492=AXIS2_PLACEMENT_3D('',#489,#490,#491);
#493=PLANE('',#492);
#494=ORIENTED_EDGE('',*,*,#79,.T.);
#495=CARTESIAN_POINT('',(23.,-11.5,1.4));
#496=DIRECTION('',(0.,0.,-1.));
#497=VECTOR('',#496,1.4);
#498=LINE('',#495,#497);
#499=EDGE_CURVE('',#65,#277,#498,.T.);
#500=ORIENTED_EDGE('',*,*,#499,.T.);
#501=ORIENTED_EDGE('',*,*,#282,.F.);
#502=CARTESIAN_POINT('',(23.,11.5,0.));
#503=DIRECTION('',(-0.,-0.,1.));
#504=VECTOR('',#503,1.4);
#505=LINE('',#502,#504);
#506=EDGE_CURVE('',#275,#74,#505,.T.);
#507=ORIENTED_EDGE('',*,*,#506,.T.);
#508=EDGE_LOOP('',(#494,#500,#501,#507));
#509=FACE_BOUND('',#508,.T.);
#510=ADVANCED_FACE('',(#509),#493,.T.);
#511=CARTESIAN_POINT('',(-0.,14.5,1.5));
#512=DIRECTION('',(-0.,1.,0.));
#513=DIRECTION('',(-1.,-0.,0.));
#514=AXIS2_PLACEMENT_3D('',#511,#512,#513);
#515=PLANE('',#514);
#516=ORIENTED_EDGE('',*,*,#96,.T.);
#517=CARTESIAN_POINT('',(20.,14.5,1.4));
#518=DIRECTION('',(0.,0.,-1.));
#519=VECTOR('',#518,1.4);
#520=LINE('',#517,#519);
#521=EDGE_CURVE('',#82,#328,#520,.T.);
#522=ORIENTED_EDGE('',*,*,#521,.T.);
#523=ORIENTED_EDGE('',*,*,#333,.F.);
#524=CARTESIAN_POINT('',(-20.,14.5,0.));
#525=DIRECTION('',(-0.,-0.,1.));
#526=VECTOR('',#525,1.4);
#527=LINE('',#524,#526);
#528=EDGE_CURVE('',#319,#91,#527,.T.);
#529=ORIENTED_EDGE('',*,*,#528,.T.);
#530=EDGE_LOOP('',(#516,#522,#523,#529));
#531=FACE_BOUND('',#530,.T.);
#532=ADVANCED_FACE('',(#531),#515,.T.);
#533=CARTESIAN_POINT('',(-23.,-0.,1.5));
#534=DIRECTION('',(-1.,-0.,0.));
#535=DIRECTION('',(0.,-1.,0.));
#536=AXIS2_PLACEMENT_3D('',#533,#534,#535);
#537=PLANE('',#536);
#538=ORIENTED_EDGE('',*,*,#316,.F.);
#539=CARTESIAN_POINT('',(-23.,-11.5,0.));
#540=DIRECTION('',(-0.,-0.,1.));
#541=VECTOR('',#540,1.4);
#542=LINE('',#539,#541);
#543=EDGE_CURVE('',#302,#108,#542,.T.);
#544=ORIENTED_EDGE('',*,*,#543,.T.);
#545=ORIENTED_EDGE('',*,*,#113,.T.);
#546=CARTESIAN_POINT('',(-23.,11.5,1.4));
#547=DIRECTION('',(0.,0.,-1.));
#548=VECTOR('',#547,1.4);
#549=LINE('',#546,#548);
#550=EDGE_CURVE('',#99,#311,#549,.T.);
#551=ORIENTED_EDGE('',*,*,#550,.T.);
#552=EDGE_LOOP('',(#538,#544,#545,#551));
#553=FACE_BOUND('',#552,.T.);
#554=ADVANCED_FACE('',(#553),#537,.T.);
#555=CARTESIAN_POINT('',(0.,-14.5,1.5));
#556=DIRECTION('',(0.,-1.,0.));
#557=DIRECTION('',(1.,0.,0.));
#558=AXIS2_PLACEMENT_3D('',#555,#556,#557);
#559=PLANE('',#558);
#560=ORIENTED_EDGE('',*,*,#299,.F.);
#561=CARTESIAN_POINT('',(20.,-14.5,0.));
#562=DIRECTION('',(-0.,-0.,1.));
#563=VECTOR('',#562,1.4);
#564=LINE('',#561,#563);
#565=EDGE_CURVE('',#285,#55,#564,.T.);
#566=ORIENTED_EDGE('',*,*,#565,.T.);
#567=ORIENTED_EDGE('',*,*,#62,.T.);
#568=CARTESIAN_POINT('',(-20.,-14.5,1.4));
#569=DIRECTION('',(0.,0.,-1.));
#570=VECTOR('',#569,1.4);
#571=LINE('',#568,#570);
#572=EDGE_CURVE('',#57,#294,#571,.T.);
#573=ORIENTED_EDGE('',*,*,#572,.T.);
#574=EDGE_LOOP('',(#560,#566,#567,#573));
#575=FACE_BOUND('',#574,.T.);
#576=ADVANCED_FACE('',(#575),#559,.T.);
#577=CARTESIAN_POINT('',(9.25,13.,0.));
#578=DIRECTION('',(0.,-1.,0.));
#579=DIRECTION('',(1.,0.,0.));
#580=AXIS2_PLACEMENT_3D('',#577,#578,#579);
#581=PLANE('',#580);
#582=ORIENTED_EDGE('',*,*,#209,.F.);
#583=CARTESIAN_POINT('',(-12.,13.,1.4));
#584=DIRECTION('',(-0.,-0.,-1.));
#585=VECTOR('',#584,1.4);
#586=LINE('',#583,#585);
#587=EDGE_CURVE('',#195,#407,#586,.T.);
#588=ORIENTED_EDGE('',*,*,#587,.T.);
#589=ORIENTED_EDGE('',*,*,#412,.T.);
#590=CARTESIAN_POINT('',(20.,13.,0.));
#591=DIRECTION('',(0.,0.,1.));
#592=VECTOR('',#591,1.4);
#593=LINE('',#590,#592);
#594=EDGE_CURVE('',#398,#204,#593,.T.);
#595=ORIENTED_EDGE('',*,*,#594,.T.);
#596=EDGE_LOOP('',(#582,#588,#589,#595));
#597=FACE_BOUND('',#596,.T.);
#598=ADVANCED_FACE('',(#597),#581,.T.);
#599=CARTESIAN_POINT('',(-15.,10.,0.));
#600=DIRECTION('',(1.,0.,0.));
#601=DIRECTION('',(-0.,1.,0.));
#602=AXIS2_PLACEMENT_3D('',#599,#600,#601);
#603=PLANE('',#602);
#604=ORIENTED_EDGE('',*,*,#192,.F.);
#605=CARTESIAN_POINT('',(-15.,-10.,1.4));
#606=DIRECTION('',(-0.,-0.,-1.));
#607=VECTOR('',#606,1.4);
#608=LINE('',#605,#607);
#609=EDGE_CURVE('',#178,#424,#608,.T.);
#610=ORIENTED_EDGE('',*,*,#609,.T.);
#611=ORIENTED_EDGE('',*,*,#429,.T.);
#612=CARTESIAN_POINT('',(-15.,10.,0.));
#613=DIRECTION('',(0.,0.,1.));
#614=VECTOR('',#613,1.4);
#615=LINE('',#612,#614);
#616=EDGE_CURVE('',#415,#187,#615,.T.);
#617=ORIENTED_EDGE('',*,*,#616,.T.);
#618=EDGE_LOOP('',(#604,#610,#611,#617));
#619=FACE_BOUND('',#618,.T.);
#620=ADVANCED_FACE('',(#619),#603,.T.);
#621=CARTESIAN_POINT('',(1.75,-13.,0.));
#622=DIRECTION('',(0.,-1.,0.));
#623=DIRECTION('',(1.,0.,0.));
#624=AXIS2_PLACEMENT_3D('',#621,#622,#623);
#625=PLANE('',#624);
#626=ORIENTED_EDGE('',*,*,#446,.F.);
#627=CARTESIAN_POINT('',(-12.,-13.,0.));
#628=DIRECTION('',(0.,0.,1.));
#629=VECTOR('',#628,1.4);
#630=LINE('',#627,#629);
#631=EDGE_CURVE('',#432,#170,#630,.T.);
#632=ORIENTED_EDGE('',*,*,#631,.T.);
#633=ORIENTED_EDGE('',*,*,#175,.T.);
#634=CARTESIAN_POINT('',(20.,-13.,0.));
#635=DIRECTION('',(0.,0.,1.));
#636=VECTOR('',#635,1.4);
#637=LINE('',#634,#636);
#638=EDGE_CURVE('',#441,#161,#637,.T.);
#639=ORIENTED_EDGE('',*,*,#638,.F.);
#640=EDGE_LOOP('',(#626,#632,#633,#639));
#641=FACE_BOUND('',#640,.T.);
#642=ADVANCED_FACE('',(#641),#625,.F.);
#643=CARTESIAN_POINT('',(20.,-11.5,0.));
#644=DIRECTION('',(0.,0.,1.));
#645=DIRECTION('',(1.,0.,-0.));
#646=AXIS2_PLACEMENT_3D('',#643,#644,#645);
#647=CYLINDRICAL_SURFACE('',#646,1.5);
#648=CARTESIAN_POINT('',(21.5,-11.5,1.4));
#649=DIRECTION('',(-0.,-0.,-1.));
#650=VECTOR('',#649,1.4);
#651=LINE('',#648,#650);
#652=EDGE_CURVE('',#152,#449,#651,.T.);
#653=ORIENTED_EDGE('',*,*,#652,.F.);
#654=ORIENTED_EDGE('',*,*,#158,.T.);
#655=CARTESIAN_POINT('',(20.,-10.,0.));
#656=DIRECTION('',(0.,0.,1.));
#657=VECTOR('',#656,1.4);
#658=LINE('',#655,#657);
#659=EDGE_CURVE('',#345,#144,#658,.T.);
#660=ORIENTED_EDGE('',*,*,#659,.F.);
#661=ORIENTED_EDGE('',*,*,#462,.F.);
#662=EDGE_LOOP('',(#653,#654,#660,#661));
#663=FACE_BOUND('',#662,.T.);
#664=ADVANCED_FACE('',(#663),#647,.F.);
#665=CARTESIAN_POINT('',(19.25,-10.,0.));
#666=DIRECTION('',(0.,1.,0.));
#667=DIRECTION('',(-1.,0.,0.));
#668=AXIS2_PLACEMENT_3D('',#665,#666,#667);
#669=PLANE('',#668);
#670=ORIENTED_EDGE('',*,*,#149,.T.);
#671=CARTESIAN_POINT('',(19.5,-10.,1.4));
#672=DIRECTION('',(-0.,-0.,-1.));
#673=VECTOR('',#672,1.4);
#674=LINE('',#671,#673);
#675=EDGE_CURVE('',#135,#347,#674,.T.);
#676=ORIENTED_EDGE('',*,*,#675,.T.);
#677=ORIENTED_EDGE('',*,*,#352,.F.);
#678=ORIENTED_EDGE('',*,*,#659,.T.);
#679=EDGE_LOOP('',(#670,#676,#677,#678));
#680=FACE_BOUND('',#679,.T.);
#681=ADVANCED_FACE('',(#680),#669,.F.);
#682=CARTESIAN_POINT('',(19.25,10.,0.));
#683=DIRECTION('',(0.,1.,0.));
#684=DIRECTION('',(0.,0.,1.));
#685=AXIS2_PLACEMENT_3D('',#682,#683,#684);
#686=PLANE('',#685);
#687=ORIENTED_EDGE('',*,*,#386,.T.);
#688=CARTESIAN_POINT('',(19.5,10.,0.));
#689=DIRECTION('',(0.,0.,1.));
#690=VECTOR('',#689,1.4);
#691=LINE('',#688,#690);
#692=EDGE_CURVE('',#372,#230,#691,.T.);
#693=ORIENTED_EDGE('',*,*,#692,.T.);
#694=ORIENTED_EDGE('',*,*,#235,.F.);
#695=CARTESIAN_POINT('',(20.,10.,0.));
#696=DIRECTION('',(0.,0.,1.));
#697=VECTOR('',#696,1.4);
#698=LINE('',#695,#697);
#699=EDGE_CURVE('',#381,#221,#698,.T.);
#700=ORIENTED_EDGE('',*,*,#699,.F.);
#701=EDGE_LOOP('',(#687,#693,#694,#700));
#702=FACE_BOUND('',#701,.T.);
#703=ADVANCED_FACE('',(#702),#686,.T.);
#704=CARTESIAN_POINT('',(20.,11.5,0.));
#705=DIRECTION('',(0.,0.,1.));
#706=DIRECTION('',(1.,0.,-0.));
#707=AXIS2_PLACEMENT_3D('',#704,#705,#706);
#708=CYLINDRICAL_SURFACE('',#707,1.5);
#709=CARTESIAN_POINT('',(21.5,11.5,1.4));
#710=DIRECTION('',(-0.,-0.,-1.));
#711=VECTOR('',#710,1.4);
#712=LINE('',#709,#711);
#713=EDGE_CURVE('',#212,#389,#712,.T.);
#714=ORIENTED_EDGE('',*,*,#713,.F.);
#715=ORIENTED_EDGE('',*,*,#218,.T.);
#716=ORIENTED_EDGE('',*,*,#594,.F.);
#717=ORIENTED_EDGE('',*,*,#404,.F.);
#718=EDGE_LOOP('',(#714,#715,#716,#717));
#719=FACE_BOUND('',#718,.T.);
#720=ADVANCED_FACE('',(#719),#708,.F.);
#721=CARTESIAN_POINT('',(-20.,11.5,0.));
#722=DIRECTION('',(0.,0.,1.));
#723=DIRECTION('',(1.,0.,-0.));
#724=AXIS2_PLACEMENT_3D('',#721,#722,#723);
#725=CYLINDRICAL_SURFACE('',#724,1.5);
#726=CARTESIAN_POINT('',(-18.5,11.5,1.4));
#727=DIRECTION('',(-0.,-0.,-1.));
#728=VECTOR('',#727,1.4);
#729=LINE('',#726,#728);
#730=EDGE_CURVE('',#44,#264,#729,.T.);
#731=ORIENTED_EDGE('',*,*,#730,.F.);
#732=ORIENTED_EDGE('',*,*,#50,.T.);
#733=ORIENTED_EDGE('',*,*,#730,.T.);
#734=ORIENTED_EDGE('',*,*,#270,.F.);
#735=EDGE_LOOP('',(#731,#732,#733,#734));
#736=FACE_BOUND('',#735,.T.);
#737=ADVANCED_FACE('',(#736),#725,.F.);
#738=CARTESIAN_POINT('',(-20.,-11.5,0.));
#739=DIRECTION('',(0.,0.,1.));
#740=DIRECTION('',(1.,0.,-0.));
#741=AXIS2_PLACEMENT_3D('',#738,#739,#740);
#742=CYLINDRICAL_SURFACE('',#741,1.5);
#743=CARTESIAN_POINT('',(-18.5,-11.5,1.4));
#744=DIRECTION('',(-0.,-0.,-1.));
#745=VECTOR('',#744,1.4);
#746=LINE('',#743,#745);
#747=EDGE_CURVE('',#33,#253,#746,.T.);
#748=ORIENTED_EDGE('',*,*,#747,.F.);
#749=ORIENTED_EDGE('',*,*,#39,.T.);
#750=ORIENTED_EDGE('',*,*,#747,.T.);
#751=ORIENTED_EDGE('',*,*,#259,.F.);
#752=EDGE_LOOP('',(#748,#749,#750,#751));
#753=FACE_BOUND('',#752,.T.);
#754=ADVANCED_FACE('',(#753),#742,.F.);
#755=CARTESIAN_POINT('',(19.5,9.,0.));
#756=DIRECTION('',(0.,0.,1.));
#757=DIRECTION('',(1.,0.,-0.));
#758=AXIS2_PLACEMENT_3D('',#755,#756,#757);
#759=CYLINDRICAL_SURFACE('',#758,1.);
#760=ORIENTED_EDGE('',*,*,#378,.F.);
#761=ORIENTED_EDGE('',*,*,#484,.F.);
#762=ORIENTED_EDGE('',*,*,#242,.F.);
#763=ORIENTED_EDGE('',*,*,#692,.F.);
#764=EDGE_LOOP('',(#760,#761,#762,#763));
#765=FACE_BOUND('',#764,.T.);
#766=ADVANCED_FACE('',(#765),#759,.T.);
#767=CARTESIAN_POINT('',(19.5,-9.,0.));
#768=DIRECTION('',(0.,0.,-1.));
#769=DIRECTION('',(-1.,0.,0.));
#770=AXIS2_PLACEMENT_3D('',#767,#768,#769);
#771=CYLINDRICAL_SURFACE('',#770,1.);
#772=ORIENTED_EDGE('',*,*,#361,.F.);
#773=ORIENTED_EDGE('',*,*,#675,.F.);
#774=ORIENTED_EDGE('',*,*,#141,.F.);
#775=ORIENTED_EDGE('',*,*,#477,.F.);
#776=EDGE_LOOP('',(#772,#773,#774,#775));
#777=FACE_BOUND('',#776,.T.);
#778=ADVANCED_FACE('',(#777),#771,.T.);
#779=CARTESIAN_POINT('',(-12.,10.,0.));
#780=DIRECTION('',(0.,0.,-1.));
#781=DIRECTION('',(-1.,0.,0.));
#782=AXIS2_PLACEMENT_3D('',#779,#780,#781);
#783=CYLINDRICAL_SURFACE('',#782,3.);
#784=ORIENTED_EDGE('',*,*,#421,.F.);
#785=ORIENTED_EDGE('',*,*,#587,.F.);
#786=ORIENTED_EDGE('',*,*,#201,.F.);
#787=ORIENTED_EDGE('',*,*,#616,.F.);
#788=EDGE_LOOP('',(#784,#785,#786,#787));
#789=FACE_BOUND('',#788,.T.);
#790=ADVANCED_FACE('',(#789),#783,.F.);
#791=CARTESIAN_POINT('',(-12.,-10.,0.));
#792=DIRECTION('',(0.,0.,1.));
#793=DIRECTION('',(1.,0.,-0.));
#794=AXIS2_PLACEMENT_3D('',#791,#792,#793);
#795=CYLINDRICAL_SURFACE('',#794,3.);
#796=ORIENTED_EDGE('',*,*,#438,.F.);
#797=ORIENTED_EDGE('',*,*,#609,.F.);
#798=ORIENTED_EDGE('',*,*,#184,.F.);
#799=ORIENTED_EDGE('',*,*,#631,.F.);
#800=EDGE_LOOP('',(#796,#797,#798,#799));
#801=FACE_BOUND('',#800,.T.);
#802=ADVANCED_FACE('',(#801),#795,.F.);
#803=CARTESIAN_POINT('',(20.,-11.5,1.5));
#804=DIRECTION('',(0.,0.,-1.));
#805=DIRECTION('',(-1.,0.,0.));
#806=AXIS2_PLACEMENT_3D('',#803,#804,#805);
#807=CYLINDRICAL_SURFACE('',#806,3.);
#808=ORIENTED_EDGE('',*,*,#71,.F.);
#809=ORIENTED_EDGE('',*,*,#565,.F.);
#810=ORIENTED_EDGE('',*,*,#291,.F.);
#811=ORIENTED_EDGE('',*,*,#499,.F.);
#812=EDGE_LOOP('',(#808,#809,#810,#811));
#813=FACE_BOUND('',#812,.T.);
#814=ADVANCED_FACE('',(#813),#807,.T.);
#815=CARTESIAN_POINT('',(20.,11.5,1.5));
#816=DIRECTION('',(0.,0.,-1.));
#817=DIRECTION('',(-1.,0.,0.));
#818=AXIS2_PLACEMENT_3D('',#815,#816,#817);
#819=CYLINDRICAL_SURFACE('',#818,3.);
#820=ORIENTED_EDGE('',*,*,#88,.F.);
#821=ORIENTED_EDGE('',*,*,#506,.F.);
#822=ORIENTED_EDGE('',*,*,#340,.F.);
#823=ORIENTED_EDGE('',*,*,#521,.F.);
#824=EDGE_LOOP('',(#820,#821,#822,#823));
#825=FACE_BOUND('',#824,.T.);
#826=ADVANCED_FACE('',(#825),#819,.T.);
#827=CARTESIAN_POINT('',(-20.,-11.5,1.5));
#828=DIRECTION('',(0.,0.,-1.));
#829=DIRECTION('',(-1.,0.,0.));
#830=AXIS2_PLACEMENT_3D('',#827,#828,#829);
#831=CYLINDRICAL_SURFACE('',#830,3.);
#832=ORIENTED_EDGE('',*,*,#120,.F.);
#833=ORIENTED_EDGE('',*,*,#543,.F.);
#834=ORIENTED_EDGE('',*,*,#308,.F.);
#835=ORIENTED_EDGE('',*,*,#572,.F.);
#836=EDGE_LOOP('',(#832,#833,#834,#835));
#837=FACE_BOUND('',#836,.T.);
#838=ADVANCED_FACE('',(#837),#831,.T.);
#839=CARTESIAN_POINT('',(-20.,11.5,1.5));
#840=DIRECTION('',(0.,0.,-1.));
#841=DIRECTION('',(-1.,0.,0.));
#842=AXIS2_PLACEMENT_3D('',#839,#840,#841);
#843=CYLINDRICAL_SURFACE('',#842,3.);
#844=ORIENTED_EDGE('',*,*,#105,.F.);
#845=ORIENTED_EDGE('',*,*,#528,.F.);
#846=ORIENTED_EDGE('',*,*,#325,.F.);
#847=ORIENTED_EDGE('',*,*,#550,.F.);
#848=EDGE_LOOP('',(#844,#845,#846,#847));
#849=FACE_BOUND('',#848,.T.);
#850=ADVANCED_FACE('',(#849),#843,.T.);
#851=CARTESIAN_POINT('',(20.,-11.5,0.));
#852=DIRECTION('',(0.,0.,1.));
#853=DIRECTION('',(1.,0.,-0.));
#854=AXIS2_PLACEMENT_3D('',#851,#852,#853);
#855=CYLINDRICAL_SURFACE('',#854,1.5);
#856=ORIENTED_EDGE('',*,*,#652,.T.);
#857=ORIENTED_EDGE('',*,*,#455,.F.);
#858=ORIENTED_EDGE('',*,*,#638,.T.);
#859=ORIENTED_EDGE('',*,*,#167,.T.);
#860=EDGE_LOOP('',(#856,#857,#858,#859));
#861=FACE_BOUND('',#860,.T.);
#862=ADVANCED_FACE('',(#861),#855,.F.);
#863=CARTESIAN_POINT('',(20.,11.5,0.));
#864=DIRECTION('',(0.,0.,1.));
#865=DIRECTION('',(1.,0.,-0.));
#866=AXIS2_PLACEMENT_3D('',#863,#864,#865);
#867=CYLINDRICAL_SURFACE('',#866,1.5);
#868=ORIENTED_EDGE('',*,*,#713,.T.);
#869=ORIENTED_EDGE('',*,*,#395,.F.);
#870=ORIENTED_EDGE('',*,*,#699,.T.);
#871=ORIENTED_EDGE('',*,*,#227,.T.);
#872=EDGE_LOOP('',(#868,#869,#870,#871));
#873=FACE_BOUND('',#872,.T.);
#874=ADVANCED_FACE('',(#873),#867,.F.);
#875=CLOSED_SHELL('',(#246,#466,#488,#510,#532,#554,#576,#598,#620,#642,#664,#681,#703,#720,#737,#754,#766,#778,#790,#802,#814,#826,#838,#850,#862,#874));
#876=MANIFOLD_SOLID_BREP('Body 01',#875);
#877=COLOUR_RGB('',0.494117647,0.494117647,0.525490224);
#878=FILL_AREA_STYLE_COLOUR('',#877);
#879=FILL_AREA_STYLE('',(#878));
#880=SURFACE_STYLE_FILL_AREA(#879);
#881=SURFACE_SIDE_STYLE('',(#880));
#882=SURFACE_STYLE_USAGE(.BOTH.,#881);
#883=PRESENTATION_STYLE_ASSIGNMENT((#882));
#26=STYLED_ITEM('',(#883),#876);
#16=SHAPE_REPRESENTATION('root',(#15),#10);
#17=ADVANCED_BREP_SHAPE_REPRESENTATION('root',(#876),#10);
#891=SHAPE_REPRESENTATION_RELATIONSHIP('','',#16,#17);
#892=CARTESIAN_POINT('',(0.,0.,0.));
#893=DIRECTION('',(0.,0.,1.));
#894=DIRECTION('',(1.,0.,0.));
#895=AXIS2_PLACEMENT_3D('',#892,#893,#894);
#897=MAPPED_ITEM('',#896,#895);
#896=REPRESENTATION_MAP(#895,#16);
#898=APPLICATION_CONTEXT('Managed model based 3d engineering');
#899=APPLICATION_PROTOCOL_DEFINITION('international standard','ap242_managed_model_based_3d_engineering',2014,#898);
#900=PRODUCT_CONTEXT('',#898,'mechanical');
#901=PRODUCT_DEFINITION_CONTEXT('part definition',#898,'design');
#24=PRODUCT('root','root','',(#900));
#902=PRODUCT_RELATED_PRODUCT_CATEGORY('part','',(#24));
#903=PRODUCT_DEFINITION_FORMATION_WITH_SPECIFIED_SOURCE('','',#24,.NOT_KNOWN.);
#25=PRODUCT_DEFINITION('design','',#903,#901);
#23=PRODUCT_DEFINITION_SHAPE('','',#25);
#904=SHAPE_DEFINITION_REPRESENTATION(#23,#16);
#11=DRAUGHTING_MODEL('',(#897),#10);
#905=DESCRIPTIVE_REPRESENTATION_ITEM('KEY','/Users/milsagw1/Library/Containers/com.shapr3d.shapr/Data/tmp/12DA523F-B182-4B17-9791-2DA332218011.tmp');
#906=PROPERTY_DEFINITION('KEY','',#25);
#907=REPRESENTATION('',(#905),#10);
#908=PROPERTY_DEFINITION_REPRESENTATION(#906,#907);
#909=GENERAL_PROPERTY('','KEY','');
#910=GENERAL_PROPERTY_ASSOCIATION('','',#909,#906);
#1=MECHANICAL_DESIGN_GEOMETRIC_PRESENTATION_REPRESENTATION('',(#26),#10);
ENDSEC;
END-ISO-10303-21;
